<?xml version="1.0" encoding="utf-8" ?><svg xmlns="http://www.w3.org/2000/svg" xmlns:xlink="http://www.w3.org/1999/xlink" width="1024" height="1024" viewBox="0 0 1024 1024"><path fill="#FEFEFE" d="M530.871 16.1728C548.03 14.1165 562.395 24.268 576.898 32.1262C582.232 35.595 589.324 38.6446 594.34 42.4732C620.817 62.6826 644.641 86.0333 665.897 111.673C669.158 115.607 672.92 121.942 675.919 126.271C701.938 163.239 720.968 204.66 732.067 248.483C736.958 267.158 741.367 286.659 743.73 305.812C744.194 309.576 744.148 313.397 744.833 317.131C745.455 316.671 746.068 316.336 746.787 316.035C750.848 314.337 756.935 314.869 760.754 316.812C765.082 319.015 768.164 323.068 769.549 327.681C772.948 339.007 763.815 372.19 759.527 383.806C758.057 387.788 756.149 391.467 754.135 395.193C761.095 403.231 760.376 405.905 764.522 413.877C769.544 423.532 774.577 430.534 777.08 441.966C778.985 450.668 782.108 461.573 776.89 469.726C770.069 480.384 761.441 476.957 751.298 478.753C749.808 479.017 747.472 479.593 745.909 479.934C749.663 486.796 749.198 493.509 746.595 500.618L747.031 500.941C749.04 502.472 750.113 503.195 751.831 505.097C763.897 518.46 774.532 532.785 784.269 547.919C787.708 553.481 792.05 558.856 795.179 564.566C806.574 585.361 816.874 606.779 828.307 627.545C831.46 633.272 833.721 639.532 836.603 645.355C853.1 678.691 867.287 707.366 865.399 745.58C881.75 774.404 893.014 800.358 898.418 832.236C908.904 894.099 892.692 957.827 850.191 1004.36C840.815 1014.63 838.406 1012.29 825.53 1012.09L802.694 1011.91C793.568 1011.92 787.727 1013.71 778.594 1011.77C766.397 1016.36 765.264 1011.81 753.697 1011.72L653.803 1011.83L200.75 1011.84L131.101 1011.84C122.175 1011.85 112.603 1012.47 103.835 1012.25C92.1453 1011.96 88.0481 996.78 94.2554 987.632C93.4122 986.553 90.1371 984.861 88.7672 984.162C72.52 975.874 67.462 955.346 81.655 942.484C65.4571 927.659 54.3098 899.938 53.2089 878.048C52.4173 862.309 59.1547 847.73 76.9552 847.299C75.2992 835.629 76.0002 815.938 77.0474 803.771C79.4509 775.848 87.8097 744.532 103.602 721.084C106.64 716.573 114.626 709.681 118.758 706.258C118.46 688.102 117.556 669.942 116.967 651.809C116.351 632.832 124.404 615.935 146.099 616.711C170.765 617.465 192.34 633.07 211.749 646.779C224.735 655.951 236.822 668.482 248.086 679.818C257.651 673.536 265.919 670.2 276.714 666.954C271.722 646.595 276.993 618.207 287.519 600.288C267.805 582.251 257.512 564.989 249.984 539.276C243.188 516.062 243.38 482.05 255.302 460.618C267.789 438.171 289.493 421.385 312.574 411.095C322.255 406.778 327.068 404.049 337.923 401.188C340.431 398.034 342.207 395.889 344.997 393.008C331.755 383.196 324.257 376.136 312.481 364.71C282.715 335.826 257.696 303.383 233.255 270.001C223.703 256.955 213.924 244.128 205.714 230.15C201.446 223.079 199.542 213.331 202.205 205.303C209.259 184.04 242.303 181.177 260.912 179.679C311.953 175.571 364.251 179.044 414.482 188.7C423.926 190.515 434.405 192.802 443.525 195.815C471.814 188.329 460.154 166.292 472.926 153.286C479.291 146.806 483.393 151.223 489.466 149.947C489.731 149.891 490.057 149.848 490.212 149.626C490.539 149.155 490.679 136.317 490.811 134.601C492.756 109.261 498.287 44.9476 514.464 25.4378C518.969 20.005 523.763 16.8777 530.871 16.1728Z"/><path fill="#530001" d="M495.065 197.473C497.601 189.582 502.784 177.537 503.851 169.79C505.142 160.413 504.531 150.366 505.15 140.856C506.404 121.596 512.873 40.003 529.959 31.6317C534.904 29.2087 540.928 30.854 545.793 32.7277C557.595 37.2733 569.175 44.2313 579.695 51.2249C630.436 84.9566 672.618 137.065 697.001 192.753C712.096 227.227 729.728 286.054 730.421 323.268C730.545 329.958 729.535 336.545 728.733 343.167C733.978 341.979 739.98 340.868 744.576 338.06C748.029 335.951 749.428 330.202 753.535 329.61C757.226 332.745 754.507 342.988 753.58 347.387C750.492 362.031 746.306 386.856 734.056 396.32C742.191 404.269 746.906 408.992 750.295 419.955C751.851 422.941 755 426.095 756.477 428.972C759.797 435.436 762.141 442.224 763.68 449.294C765.606 458.144 767.314 467.59 754.722 460.882C750.827 464.565 736.469 466.977 729.989 469.014C725.218 470.473 720.593 472.372 716.173 474.687C715.318 479.059 714.378 482.155 712.751 486.337C730.238 483.194 741.641 484.308 727.844 503.836C766.786 535.979 791.669 588.764 813.999 633.087C831.362 667.551 855.586 709.507 849.957 749.086C853.97 753.584 858.247 762.893 861.196 768.344C900.611 841.178 895.556 936.998 835.986 997.86C832.714 997.549 830.373 997.394 827.091 997.367C824.65 997.184 821.509 997.266 819.005 997.257C817.69 997.453 817.986 997.561 816.778 997.305C809.413 997.451 800.765 997.236 793.372 996.981C791.439 997.195 788.517 998.026 786.548 998.519C784.929 997.896 783.019 997.557 781.301 997.168C790.645 992.007 806.781 986.778 816.974 991.435C826.633 984.448 837.533 976.433 846.792 968.992C842.176 971.235 833.588 975.097 829.569 976.5C824.108 978.406 790.496 987.622 787.064 985.766C777.247 980.456 758.765 951.076 753.772 941.254C761.584 933.215 771.188 901.119 777.983 890.337C788.381 873.84 799.334 856.318 804.364 837.159C800.409 842.224 796.736 849.166 792.719 853.894C784.104 864.032 780.789 869.914 775.615 881.93C772.663 888.885 769.454 895.729 765.997 902.447C763.267 907.625 760.213 912.626 756.854 917.42C754.809 920.305 751.165 924.965 749.54 927.83C744.545 936.635 740.314 952.234 730.211 956.127C723.008 958.903 712.673 957.665 706.736 952.312C704.477 950.275 703.35 946.963 701.046 945.961L700.13 946.471C699.014 949.148 698.481 954.471 698.559 957.395C701.079 959.97 704.867 960.504 708.263 961.275C720.573 964.072 732.194 964.124 744.482 961.392C748.771 966.467 772.59 993.689 772.639 997.472C771.44 998.838 771.325 998.767 769.699 999.455C767.766 999.157 768.106 998.926 766.358 997.263C747.329 996.91 728.071 997.66 709.339 997.367C708.455 997.499 707.818 997.376 706.901 997.312C700.55 997.12 693.881 997.221 687.499 997.233C685.732 997.558 684.16 997.398 682.365 997.33L678.958 997.473C677.22 997.687 676.965 997.84 675.249 997.396C672.826 994.767 669.702 952.451 669.287 946.204C655.582 950.963 643.061 955.579 628.927 959.184C631.125 964.379 635.381 993.237 633.835 997.231C631.892 998.052 632.825 998.017 630.963 997.613C626.627 993.512 625.429 966.69 625.719 960.147C606.96 964.591 593.441 967.227 574.189 969.824C575.98 978.952 577.991 988.494 579.469 997.647C576.436 997.825 575.471 997.908 572.366 997.423C551.224 996.555 526.007 997.202 504.592 997.193C480.423 997.182 453.883 996.617 429.926 997.379C427.97 997.521 425.963 997.925 424.271 997.074C419.219 990.708 418.395 967.203 417.919 958.532C417.862 957.49 415.82 956.932 414.953 956.544C412.342 956.482 400.647 952.662 397.578 951.738C395.629 951.108 393.495 950.285 391.547 949.584C390.962 949.214 389.811 948.859 389.111 948.605C388.285 948.485 385.869 947.705 384.94 947.428C380.342 945.509 375.346 943.707 370.666 941.927L363.969 938.998C363.962 944.063 363.997 949.609 363.585 954.436C363.055 960.644 359.409 990.807 360.387 994.898L363.024 996.745C361.604 997.415 351.588 997.651 350.155 997.151C335.982 997.393 321.7 997.054 307.54 997.17C302.557 997.21 291.564 996.855 287.055 997.483C284.821 997.585 281.683 997.395 279.378 997.329C260.327 996.78 239.221 997.197 219.956 997.197L114.053 997.252C111.191 997.45 108.355 997.154 105.495 996.938C111.518 990.009 115.464 986.678 121.533 980.349C111.881 978.99 86.9446 972.833 88.0949 959.073C88.759 951.13 102.427 948.098 109.019 946.808C88.6754 933.31 74.5989 911.942 69.1824 888.226C67.4172 880.498 65.4564 864.438 75.6035 862.021C83.0633 860.243 94.8351 871.337 100.18 875.511C84.6823 846.099 90.3141 796.747 99.3165 765.487C103.83 749.814 116.226 721.404 133.12 715.767C134.554 692.238 131.026 668.745 131.877 645.255C132.443 629.664 146.981 629.559 158.422 633.657C193.433 646.361 221.587 672.395 246.141 699.407C263.842 686.074 273.763 681.256 296.037 678.372C282.679 645.782 290.955 626.202 306.269 596.734C278.979 575.157 265.601 552.286 260.761 517.756C253.067 464.671 292.313 431.045 338.747 416.493C340.671 415.89 349.541 412.971 349.693 412.401C352.157 403.145 364.236 395.842 372.242 390.923C357.372 384.234 347.448 377.424 335.406 366.36C293.949 328.272 260.257 282.922 227.863 237.143C224.388 232.233 218.729 224.171 216.635 218.769C208.49 197.762 250.996 195.019 263.253 194.055C308.92 190.463 356.654 193.325 401.72 201.264C407.456 202.242 413.169 203.358 418.851 204.612C424.595 205.924 439.889 210.72 444.848 210.208C467.939 207.824 479.127 187.349 481.965 166.353C482.111 165.334 482.697 164.834 483.432 164.265L484.61 164.455C485.831 166.257 494.083 193.969 495.065 197.473Z"/><path fill="#FE0100" d="M136.456 819.239C135.213 823.359 130.793 836.118 132.219 839.566C134.407 840.187 138.338 834.335 140.42 832.393C152.002 821.584 172.177 811.063 187.381 807.744L179.401 821.82C194.745 813.739 201.843 813.733 217.653 809.909C224.213 820.572 231.293 830.907 238.867 840.876C248.604 852.763 259.017 864.079 270.055 874.769C269.029 898.097 277.605 918.008 290.303 936.896C294.25 942.767 297.759 949.092 302.217 954.724C296 973.705 290.214 980.986 279.378 997.329C260.327 996.78 239.221 997.197 219.956 997.197L114.053 997.252C117.15 992.953 128.642 981.665 128.906 978.506C128.499 977.834 127.698 976.54 126.641 976.683C117.496 977.927 94.9505 971.62 92.6527 961.912C90.4766 952.718 117.889 953.156 120.873 948.962C120.768 948.13 120.851 947.574 119.748 947.086C111.438 943.412 107.277 941.883 100.653 935.203C85.5912 920.012 73.5468 897.432 73.4447 875.643C73.43 872.497 73.7516 870.33 75.9638 868.127C83.4249 865.167 99.9615 884.354 109.288 886.687C111.282 886.283 110.385 886.718 111.931 885.079C110.593 882.744 109.273 881.027 107.8 878.842C99.2658 866.178 97.1269 850.316 96.8598 835.355C100.291 839.281 104.63 847.034 107.371 851.729L107.551 851.073C111.339 837.825 124.829 825.636 136.456 819.239Z"/><path fill="#FEFEFE" d="M136.456 819.239C135.213 823.359 130.793 836.118 132.219 839.566C134.407 840.187 138.338 834.335 140.42 832.393C152.002 821.584 172.177 811.063 187.381 807.744L179.401 821.82C194.745 813.739 201.843 813.733 217.653 809.909C224.213 820.572 231.293 830.907 238.867 840.876C230.414 845.461 222.924 850.08 216.053 856.99C214.485 858.566 211.003 863.114 209.666 863.785C207.513 863.053 208.158 862.206 207.508 860.482C203.963 851.073 195.915 843.3 190.42 834.997C186.535 841.255 181.601 848.824 178.124 855.24C175.04 860.933 171.615 868.763 168.833 874.75C169.18 860.457 169.691 852.245 175.559 839.263C156.296 845.09 135.7 866.576 127.364 884.655C125.292 876.632 123.766 867.501 120.02 860.318C116.89 866.701 112.13 877.833 111.931 885.079C110.593 882.744 109.273 881.027 107.8 878.842C99.2658 866.178 97.1269 850.316 96.8598 835.355C100.291 839.281 104.63 847.034 107.371 851.729L107.551 851.073C111.339 837.825 124.829 825.636 136.456 819.239Z"/><path fill="#E40201" d="M252.551 870.787C253.454 873.045 252.154 874.709 250.658 876.256L249.959 875.79C251.078 873.941 251.652 872.759 252.551 870.787Z"/><path fill="#00BDFD" d="M135.419 743.877C137.162 731.043 138.196 718.123 138.515 705.175C138.754 692.285 137.23 678.94 137.322 666.134C137.394 656.119 132.791 634.129 149.628 638.702C186.594 648.743 215.759 677.06 241.031 704.34C220.957 724.244 209.503 751.236 209.137 779.502C208.896 794.509 210.66 797.335 217.653 809.909C201.843 813.733 194.745 813.739 179.401 821.82L187.381 807.744C172.177 811.063 152.002 821.584 140.42 832.393C138.338 834.335 134.407 840.187 132.219 839.566C130.793 836.118 135.213 823.359 136.456 819.239C124.829 825.636 111.339 837.825 107.551 851.073L107.371 851.729C104.63 847.034 100.291 839.281 96.8598 835.355C96.4629 833.34 96.426 829.296 96.5095 827.214C97.9861 790.435 103.675 749.643 130.995 722.678C131.117 729.391 131.375 737.889 130.649 744.461C130.355 749.344 129.79 753.844 131.061 758.601L131.674 758.944C134.033 756.185 134.855 747.701 135.419 743.877Z"/><path fill="#72DBFD" d="M135.419 743.877C136.31 749.682 136.362 787.171 131.489 787.692C128.873 786.435 127.884 784.965 126.244 782.692C116.962 769.829 122.111 755.659 130.649 744.461C130.355 749.344 129.79 753.844 131.061 758.601L131.674 758.944C134.033 756.185 134.855 747.701 135.419 743.877Z"/><path fill="#72DBFD" d="M147.762 679.33C150.216 681.496 151.943 689.237 152.828 692.654C157.941 712.391 153.993 736.168 146.619 754.842L145.922 756.05C137.954 755.35 142.987 702.078 145.112 695.16C146.374 691.054 147.414 684.276 147.709 680.127L147.762 679.33Z"/><path fill="#72DBFD" d="M113.353 770.44L113.64 770.759C114.184 774.82 119.833 782.664 121.028 787.39C122.481 793.133 130.649 808.621 126.705 813.429C125.075 814.187 124.275 813.952 122.485 813.809C111.762 807.145 104.021 792.01 107.851 779.363C108.981 775.634 110.944 773.365 113.353 770.44Z"/><path fill="#FE0100" d="M423.792 959.184L435.669 962.024C457.488 965.897 473.1 969.216 495.667 971.02L509.183 971.962C520.265 971.825 529.833 972.803 541.516 972.197C546.922 971.917 565.73 970.391 569.168 970.665C570.412 971.889 572.049 994.034 572.366 997.423C551.224 996.555 526.007 997.202 504.592 997.193C480.423 997.182 453.883 996.617 429.926 997.379C428.067 984.25 424.781 973.218 423.792 959.184Z"/><path fill="#313847" d="M435.669 962.024C457.488 965.897 473.1 969.216 495.667 971.02C495.633 971.551 495.593 972.082 495.547 972.612C495.127 977.578 493.52 983.974 489.269 987.088C479.166 993.83 462.575 994.202 450.998 993.19C431.108 991.451 433.763 976.263 435.669 962.024Z"/><path fill="#313847" d="M509.183 971.962C520.265 971.825 529.833 972.803 541.516 972.197C546.922 971.917 565.73 970.391 569.168 970.665C568.773 974.05 568.016 982.555 564.541 984.247C551.917 990.393 532.752 991.891 518.822 991.156C507.915 990.581 508.271 979.838 509.183 971.962Z"/><path fill="#30416B" d="M697.776 959.403C708.475 969.178 728.762 967.69 741.785 965.166C745.057 975.816 758.652 988.202 766.358 997.263C747.329 996.91 728.071 997.66 709.339 997.367C711.114 996.985 714.36 997.06 716.29 997.036C704.142 985.7 699.674 975.46 697.776 959.403Z"/><path fill="#FE0100" d="M671.036 945.111C677.358 943.462 691.056 936.756 697.186 933.734C688.894 952.271 688.666 967.781 698.209 985.787C698.513 986.25 699.124 987.087 699.295 987.555C701.582 991.078 703.97 994.283 706.901 997.312C700.55 997.12 693.881 997.221 687.499 997.233C685.732 997.558 684.16 997.398 682.365 997.33L678.958 997.473C677.22 997.687 676.965 997.84 675.249 997.396C672.826 994.767 669.702 952.451 669.287 946.204L671.036 945.111Z"/><path fill="#5B0100" d="M669.287 946.204L671.036 945.111C674.492 952.371 678.966 988.739 678.958 997.473C677.22 997.687 676.965 997.84 675.249 997.396C672.826 994.767 669.702 952.451 669.287 946.204Z"/><path fill="#FE0100" d="M687.499 997.233L699.295 987.555C701.582 991.078 703.97 994.283 706.901 997.312C700.55 997.12 693.881 997.221 687.499 997.233Z"/><path fill="#5B0100" d="M698.209 985.787C698.513 986.25 699.124 987.087 699.295 987.555L687.499 997.233C685.732 997.558 684.16 997.398 682.365 997.33C687.496 993.279 693.281 990.08 698.209 985.787Z"/><path fill="#FE0100" d="M306.263 959.863C323.894 980.144 329.848 982.667 350.155 997.151C335.982 997.393 321.7 997.054 307.54 997.17C302.557 997.21 291.564 996.855 287.055 997.483C287.749 995.979 293.181 987.955 294.465 985.937C300.551 976.373 302.994 970.344 306.263 959.863Z"/><path fill="#FE0100" d="M819.005 997.257C827.971 989.492 837.08 981.894 846.327 974.467C842.742 979.128 831.107 993.793 827.091 997.367C824.65 997.184 821.509 997.266 819.005 997.257Z"/><path fill="#30416B" d="M793.372 996.981C797.233 994.884 809.153 993.076 813.38 994.365L813.615 994.956L811.833 996.318L812.191 996.807C813.535 996.934 815.513 997.061 816.778 997.305C809.413 997.451 800.765 997.236 793.372 996.981Z"/><path fill="#FE0100" d="M362.892 202.255C372.439 203.093 382.945 204.013 392.397 205.577C405.11 207.159 424.165 210.315 436.423 213.791C448.501 215.296 478.642 225.411 491.041 229.814C501.601 235.162 511.714 235.195 523.456 232.901C519.493 237.444 513.956 245.464 510.148 248.77L510.894 248.375C522.612 242.257 527.604 243.496 538.01 233.934C535.683 242.458 534.604 245.407 530.492 253.36C547.875 253.733 566.599 262.042 581.804 270.186C585.174 271.991 593.428 276.597 594.125 280.61C591.751 282.489 579.044 281.019 576.125 283.601C576.645 284.98 578.032 285.667 579.524 286.235C592.066 291.008 605.864 304.369 614.207 315.05C616.425 321.315 622.466 340.183 626.545 340.717C640.057 342.487 630.422 308.724 628.348 304.028C632.466 306.404 638.27 310.392 642.924 309.398C645.118 308.038 645.657 304.444 647.318 304.472C659.262 304.674 672.947 315.013 681.984 321.576C685.748 324.31 693.017 331.417 695.145 331.814C696.141 331.001 696.052 330.966 696.577 329.763C711.747 349.155 711.234 350.826 736.802 346.715C734.683 348.416 731.652 351.007 729.429 352.32L726.989 353.985L727.241 354.718C729.298 353.562 731.387 352.69 733.542 351.732C736.566 348.885 743.713 345.427 749.503 340.088C747.501 348.872 745.634 360.377 742.608 368.564C740.558 375.146 736.478 388.301 730.3 391.703C729.109 392.359 727.128 393.658 726.79 394.664C727.834 396.311 727.826 395.87 729.106 396.741C733.237 399.553 738.842 407.451 741.718 411.64C733.516 407.014 722.104 400.832 713.014 398.679L713.44 398.982C716.188 400.895 720.07 402.927 723.049 404.613C745.683 417.424 754.306 432.706 759.475 458.021C742.858 450.74 726.243 443.344 707.643 443.393C712.263 445.167 716.436 445.853 720.989 447.256C730.659 450.235 742.838 454.539 751.436 459.681C729.984 465.037 715.901 465.29 697.373 480.646C700.171 460.63 690.755 452.106 672.941 445.55L660.738 440.462C663.456 416.064 675.919 399.984 695.303 385.51C698.083 383.433 711.789 377.144 708.67 373.005C705.824 369.229 689.912 375.237 686.161 377.031C668.318 385.571 655.659 395.756 648.724 414.527C647.948 412.501 647.051 410.523 646.038 408.604C645.322 407.271 644.614 406.269 643.134 405.817L642.343 406.42C641.187 410.646 642.291 413.12 643.352 417.458L643.546 417.908C646.174 425.232 650.449 436.022 655.3 442.079C660.689 443.952 667.688 447.46 672.945 450.038C673.072 456.323 673.549 463.605 673.476 469.719C656.162 459.303 613.43 466.747 604.184 485.019C599.807 502.892 629.668 513.445 642.62 516.045C639.911 518.762 636.943 521.209 633.758 523.349C609.498 539.989 568.668 529.94 552.038 506.268C545.841 497.448 543.552 484.789 547.541 474.692C548.992 471.018 552.494 466.606 553.287 462.76C552.364 461.62 552.744 462.034 551.225 461.393C544.053 461.644 539.731 475.584 538.743 481.403C524.335 461.406 498.498 442.24 476.971 430.75C471.559 427.884 466.032 425.242 460.403 422.829C453.292 419.859 446.462 418.533 441.584 412.378C422.706 407.82 407.067 403.753 387.558 405.422C381.225 406.605 368.936 406.261 359.996 407.602C365.868 402.853 373.578 396.941 379.823 392.77C382.63 392.869 387.452 393.243 389.73 391.638L389.678 390.927C387.748 390.837 385.402 392.158 383.406 390.688L383.718 389.807C390.037 384.931 392.737 383.916 400.208 381.119C394.774 380.399 390.024 380.681 384.72 380.298C375.383 379.623 365.287 378.06 356.324 375.439C370.865 370.379 380.165 364.307 393.67 357.283C397.199 355.448 401.016 355.79 401.847 354.856C400.366 354.695 400.784 354.918 399.586 354.25C400.619 352.908 405.484 350.059 407.366 348.699C403.574 350.307 400.207 351.479 396.302 352.82C391.571 349.964 388.168 347.31 383.955 343.785C388.919 342.945 415.807 339.412 417.864 338.23L416.886 337.829L416.98 338.552L416.355 337.769C409.495 337.203 401.709 337.052 394.839 337.043C407.383 330.782 421.747 322.27 435.512 319.69C427.272 313.958 422.221 301.517 419.95 292.071C422.026 293.119 425.348 294.412 427.583 295.352L428.655 294.838L428.303 293.854L429.192 293.446C430.651 294.114 433.762 295.705 435.225 295.768C434.06 295.206 434.093 295.202 433.131 294.324C434.32 293.532 438.959 293.627 440.75 293.346C463.15 289.834 439.271 273.783 432.092 268.949C412.356 254.926 389.643 245.536 366.584 238.564C360.061 235.959 342.591 232.775 335.702 231.53L356 209.791C358.296 207.412 360.653 204.719 362.892 202.255Z"/><path fill="#FEFEFE" d="M387.558 405.422C392.831 402.004 423.145 395.816 429.982 395.81C428.391 396.749 425.671 398.025 424.844 399.404C427.67 399.866 433.361 399.488 436.585 399.552C442.489 399.698 448.38 400.169 454.232 400.961C486.894 405.462 532.707 423.071 559.394 442.361C563.105 445.904 567.343 448.377 571.091 452.78C578.082 460.994 584.009 469.936 592.194 477.034C595.845 480.199 600.223 482.034 604.184 485.019C599.807 502.892 629.668 513.445 642.62 516.045C639.911 518.762 636.943 521.209 633.758 523.349C609.498 539.989 568.668 529.94 552.038 506.268C545.841 497.448 543.552 484.789 547.541 474.692C548.992 471.018 552.494 466.606 553.287 462.76C552.364 461.62 552.744 462.034 551.225 461.393C544.053 461.644 539.731 475.584 538.743 481.403C524.335 461.406 498.498 442.24 476.971 430.75C471.559 427.884 466.032 425.242 460.403 422.829C453.292 419.859 446.462 418.533 441.584 412.378C422.706 407.82 407.067 403.753 387.558 405.422Z"/><path fill="#FEFEFE" d="M719.512 385.828C722.948 380.064 735.295 366.395 742.608 368.564C740.558 375.146 736.478 388.301 730.3 391.703C729.109 392.359 727.128 393.658 726.79 394.664C727.834 396.311 727.826 395.87 729.106 396.741C733.237 399.553 738.842 407.451 741.718 411.64C733.516 407.014 722.104 400.832 713.014 398.679L713.44 398.982C716.188 400.895 720.07 402.927 723.049 404.613C745.683 417.424 754.306 432.706 759.475 458.021C742.858 450.74 726.243 443.344 707.643 443.393C712.263 445.167 716.436 445.853 720.989 447.256C730.659 450.235 742.838 454.539 751.436 459.681C729.984 465.037 715.901 465.29 697.373 480.646C700.171 460.63 690.755 452.106 672.941 445.55C673.272 411.004 695.882 411.493 709.574 384.052C711.047 381.099 714.928 371.621 718.165 372.322C720.083 374.823 719.521 382.336 719.512 385.828Z"/><path fill="#530001" d="M429.982 395.81C431.806 395.42 436.814 394.148 438.363 394.046C457.868 392.752 478.956 399.028 497.116 405.439C519.924 396.293 548.025 404.962 566.391 419.932C565.03 416.243 561.245 407.919 563.22 404.464C565.012 404.907 566.23 407.179 567.131 408.652C570.121 413.542 581.786 439.16 580.771 443.857C580.602 444.641 580.182 445.244 579.74 445.892C577.79 446.945 578.811 446.699 576.544 446.586C573.247 444.6 569.207 439.846 566.076 437.138C556.707 429.035 544.329 424.755 532.569 421.693C540.302 426.398 554.547 434.8 559.394 442.361C532.707 423.071 486.894 405.462 454.232 400.961C448.38 400.169 442.489 399.698 436.585 399.552C433.361 399.488 427.67 399.866 424.844 399.404C425.671 398.025 428.391 396.749 429.982 395.81Z"/><path fill="#FEFEFE" d="M362.892 202.255C372.439 203.093 382.945 204.013 392.397 205.577C391.545 207.834 387.883 212.45 386.269 214.596C380.216 222.418 373.477 231.586 366.584 238.564C360.061 235.959 342.591 232.775 335.702 231.53L356 209.791C358.296 207.412 360.653 204.719 362.892 202.255Z"/><path fill="#FE807F" d="M392.397 205.577C405.11 207.159 424.165 210.315 436.423 213.791L436.838 214.016C444.458 218.067 467.038 226.885 471.04 233.859C471.173 235.66 471.44 234.915 470.342 236.212C468.904 236.648 467.446 236.939 465.996 236.396C451.166 230.833 437.132 225.784 421.747 221.832C414.164 219.858 406.509 218.174 398.797 216.785C395.514 216.175 389.18 215.299 386.269 214.596C387.883 212.45 391.545 207.834 392.397 205.577Z"/><path fill="#FE807F" d="M733.542 351.732C733.133 356.767 722.595 366.928 717.487 367.425C708.894 363.872 720.695 351.342 729.429 352.32L726.989 353.985L727.241 354.718C729.298 353.562 731.387 352.69 733.542 351.732Z"/><path fill="#97423E" d="M726.989 353.985L727.241 354.718C723.879 357.031 722.032 357.295 718.143 358.062C721.073 356.92 724.129 355.363 726.989 353.985Z"/><path fill="#FE807F" d="M643.546 417.908C637.895 420.396 631.821 425.406 625.208 426.586C623.857 426.827 623.053 426.127 622.025 425.333C621.684 424.635 621.121 423.895 621.309 423.212C623.536 415.127 638.414 417.284 643.352 417.458L643.546 417.908Z"/><path fill="#8D0101" d="M427.583 295.352L428.655 294.838L428.303 293.854L429.192 293.446C430.651 294.114 433.762 295.705 435.225 295.768C439.063 297.625 440.78 298.991 443.802 301.799C438.355 300.382 432.6 297.881 427.583 295.352Z"/><path fill="#530001" d="M534.127 309.666C539.48 308.71 550.845 310.343 549.152 318.23C547.527 325.798 528.207 326.579 520.997 328.915C503.683 334.525 490.546 343.868 476.492 355.14C473.755 357.504 470.831 360.764 466.966 359.615L466.4 358.565C466.181 349.62 476.065 340.501 482.247 335.081C497.307 321.878 514.277 312.835 534.127 309.666Z"/><path fill="#FE807F" d="M406.898 366.05C417.416 364.928 430.455 377.453 422.206 385.553C416.585 384.763 404.252 372.755 405.176 367.241L406.898 366.05Z"/><path fill="#FE807F" d="M399.183 383.566C403.966 383.293 414.227 384.951 412.988 391.554C410.891 394.296 408.816 394.185 405.375 394.808C392.73 396.8 383.963 389.787 399.183 383.566Z"/><path fill="#FE807F" d="M622.874 413.168C623.362 413.088 624.596 413.086 625.153 413.068L625.469 413.586C623.175 418.858 609.393 428.372 604.248 431.567C603.02 431.92 603.474 431.809 602.083 431.578C599.389 429.179 601.913 424.921 603.722 422.659C608.694 416.435 615.279 414.126 622.874 413.168Z"/><path fill="#FE807F" d="M715.598 350.637L715.842 351.028C712.061 357.039 710.702 372.237 701.321 369.457C692.653 358.794 708.55 354.37 715.029 350.943L715.598 350.637Z"/><path fill="#FE807F" d="M600.933 415.988L601.326 416.437C600.119 422.311 593.731 438.383 586.644 439.141C580.385 431.594 595.658 420.135 600.933 415.988Z"/><path fill="#FEFEFE" d="M377.522 640.211C408.041 623.432 450.002 619.759 483.157 630.079C521.309 641.955 559.84 668.544 599.816 645.69C621.126 633.423 635.912 617.182 662.138 627.985C657.518 639.918 646.624 652.677 632.678 651.47C633.615 652.821 635.753 653.505 637.316 653.71C653.465 655.826 663.921 644.792 667.682 630.574C679.566 638.333 686.811 648.832 692.85 661.542C686.143 671.542 675.619 683.164 665.199 689.343C679.288 686.409 688.301 679.638 695.376 667.291C699.618 678.728 703.47 693.179 697.518 704.76C692.856 713.828 678.795 727.553 669.106 730.75C674.709 734.999 688.381 725.147 692.599 720.928C684.83 739.327 657.101 757.937 638.886 765.436C630.76 768.781 604.894 771.395 595.509 772.157C525.967 777.803 453.141 771.397 388.784 742.894C373.494 736.123 351.897 724.891 338.578 714.718C326.339 685.363 357.176 656.954 377.522 640.211Z"/><path fill="#FEFEFE" d="M706.738 706.707C725.469 692.946 768.552 664.677 791.004 661.353C794.984 660.764 799.187 660.551 803.166 661.261C805.712 661.715 813.463 665.47 814.958 665.037C815.959 663.899 815.956 662.717 816.214 661.182C818.23 662.259 819.623 663.045 821.526 664.305C834.268 689.879 850.446 725.992 841.089 754.595C832.559 779.831 804.036 797.508 780.949 808.057C735.46 828.843 686.322 845.547 636.945 853.69C628.864 855.023 614.776 855.978 606.641 856.358C593.96 856.951 575.467 854.573 563.081 851.532C565.066 850.504 571.07 847.597 572.193 846.01L571.305 846.105C556.484 847.624 544.203 846.184 532.617 836.267C531.419 835.242 530.846 834.93 530.092 833.496C531.849 831.625 532.396 834.86 532.576 832.313L532.493 830.904C538.29 831.144 543.089 830.349 548.43 828.166C538.747 827.649 527.354 823.396 518.553 819.514C513.236 810.247 512.508 800.979 513.759 790.506C523.864 800.334 530.976 802.347 544.59 798.293C533.517 797.751 523.023 793.183 515.083 785.446C515.852 783.606 516.799 781.694 517.655 779.882C526.166 780.936 538.604 781.256 547.57 780.978C576.892 780.07 624.444 781.205 650.434 768.492C675.768 756.1 698.728 733.763 706.738 706.707Z"/><path fill="#FEFEFE" d="M323.559 430.068C327.039 428.245 332.283 426.257 336.025 424.714C326.101 437.996 301.964 477.655 306.895 495.886C309.292 504.744 333.208 518.693 341.484 523.47C347.691 527.053 355.602 521.748 360.82 518.315C389.651 498.91 425.731 480.511 461.172 479.095C483.037 478.222 523.48 493.396 544.301 502.779C557.214 522.089 573.303 528.834 595.34 533.574C604.451 542.805 611.311 552.168 623.399 557.446C635.028 562.523 645.555 563.324 657.421 558.885C673.814 549.967 674.937 534.71 668.106 519.23C673.176 522.118 683.516 531.194 688.384 535.418C725.474 567.594 765.298 612.08 789.947 654.639C777.056 656.521 760.471 664.364 749.288 671.283C744.684 673.779 738.97 677.585 734.428 680.442C733.901 678.365 733.288 675.984 732.677 673.961C730.546 666.912 726.093 659.703 722.006 653.642C697.259 616.944 649.491 582.507 610.943 561.984C569.459 539.898 491.325 505.941 445.265 501.531C437.34 500.784 429.353 501.05 421.495 502.324C407.51 504.603 399.772 508.754 388.85 517.526C386.557 519.369 369.449 521.448 365.637 526.35C357.82 536.035 353.077 548.795 346.34 559.344C340.357 568.713 364.332 577.412 370.78 580.012C373.968 592.641 376.911 601.884 385.609 611.603L388.297 612.725C390.453 614.734 392.463 617.094 394.439 619.298L392.361 619.15C380.18 618.524 355.507 612.195 344.012 608.298C340.413 599.573 337.085 592.005 336.079 582.411C335.151 576.877 337.905 569.491 332.534 565.737C317.158 554.993 301.821 545.749 286.771 534.381C282.371 537.543 278.731 541.039 275.069 545.006C271.456 536.594 269.472 528.06 268.158 519.041C269.658 520.458 274.323 524.526 276.286 523.034C283.719 517.381 292.572 502.14 294.965 493.355C296.668 487.545 295.248 471.38 298.195 466.831C306.176 454.516 316.131 442.98 323.559 430.068Z"/><path fill="#30416B" d="M668.106 519.23C673.176 522.118 683.516 531.194 688.384 535.418C725.474 567.594 765.298 612.08 789.947 654.639C777.056 656.521 760.471 664.364 749.288 671.283C745.932 666.348 742.949 659.485 740.048 654.079C735.301 645.407 730.1 636.992 724.467 628.867C712.576 612.064 695.778 594.844 680.857 580.656C673.168 573.345 664.911 566.403 657.421 558.885C673.814 549.967 674.937 534.71 668.106 519.23Z"/><path fill="#97423E" d="M385.609 611.603L388.297 612.725C390.453 614.734 392.463 617.094 394.439 619.298L392.361 619.15C392.192 617.739 387.036 613.13 385.609 611.603Z"/><path fill="#00BDFD" d="M600.182 186.319C613.946 176.715 632.848 155.607 643.601 142.803C645.566 147.384 647.179 153.593 648.487 158.481C654.629 179.315 655.594 205.111 645.133 224.9C639.88 234.836 624.71 240.334 616.214 252.226C629.829 245.503 635.052 241.976 647.603 233.708L658.704 224.286C659.338 231.597 660.088 239.118 658.446 246.369C655.977 260.154 649.031 271.62 637.505 279.826C635.646 281.149 633.349 282.249 631.358 283.497L631.013 283.575C628.288 284.022 621.429 284.544 619.716 285.13L619.2 285.924C620.973 288.574 627.727 289.85 629.804 292.14C630.715 293.145 628.526 297.333 630.41 299.739C633.141 303.226 639.044 301.475 640.581 305.299L640.189 305.991C633.996 305.442 622.695 296.468 619.515 297.376C620.043 298.774 620.221 298.753 621.084 299.878C627.693 308.496 628.484 324.379 627.952 334.719C624.856 330.284 617.148 317.762 614.207 315.05C605.864 304.369 592.066 291.008 579.524 286.235C578.032 285.667 576.645 284.98 576.125 283.601C579.044 281.019 591.751 282.489 594.125 280.61C593.428 276.597 585.174 271.991 581.804 270.186C566.599 262.042 547.875 253.733 530.492 253.36C534.604 245.407 535.683 242.458 538.01 233.934C527.604 243.496 522.612 242.257 510.894 248.375L510.148 248.77C513.956 245.464 519.493 237.444 523.456 232.901C511.714 235.195 501.601 235.162 491.041 229.814C483.624 224.522 460.068 216.191 450.906 213.192C462.836 209.569 467.219 207.578 475.254 197.853C480.913 188.863 482.326 185.346 484.911 174.949C487.331 181.165 489.451 187.924 491.56 194.293C492.958 198.508 494.307 202.729 495.94 206.859C496.805 201.561 497.139 198.315 499.107 193.298C500.648 187.84 504.57 176.493 507.661 172.049C507.903 171.846 508.254 171.83 508.557 171.741C510.72 175.536 511.295 197.071 513.849 204.186C514.333 202.22 514.62 196.45 515.029 195.91C522.942 185.468 553.988 173.193 565.148 169.465C582.793 162.228 606.771 155.186 625.252 150.989C621.657 155.627 615.992 163.125 611.928 167.11L611.659 167.513C609.351 170.915 596.461 185.479 596.641 187.549C598.55 187.642 598.28 186.909 600.182 186.319Z"/><path fill="#72DBFD" d="M565.148 169.465C582.793 162.228 606.771 155.186 625.252 150.989C621.657 155.627 615.992 163.125 611.928 167.11C609.086 168.168 605.966 170.265 603.357 171.878C581.413 185.444 558.295 196.609 535.432 208.465C528.157 212.237 520.215 216.467 514.277 222.126C525.562 205.401 537.231 194.774 551.734 181.026C554.291 178.602 563.978 171.248 565.148 169.465Z"/><path fill="#72DBFD" d="M600.182 186.319C613.946 176.715 632.848 155.607 643.601 142.803C645.566 147.384 647.179 153.593 648.487 158.481C631.585 196.557 605.02 205.896 569.206 221.278C575.19 216.169 596.813 192.988 600.182 186.319Z"/><path fill="#72DBFD" d="M647.603 233.708L658.704 224.286C659.338 231.597 660.088 239.118 658.446 246.369C655.422 249.094 652.464 254.076 648.446 257.28C637.153 266.285 621.576 269.537 607.529 268.433C612.864 264.026 645.345 238.36 647.603 233.708Z"/><path fill="#72DBFD" d="M475.254 197.853C480.913 188.863 482.326 185.346 484.911 174.949C487.331 181.165 489.451 187.924 491.56 194.293C490.798 199.541 488.348 210.104 484.241 213.539C479.177 214.579 476.157 201.739 475.254 197.853Z"/><path fill="#72DBFD" d="M507.661 172.049C511.199 187.496 505.074 202.009 501.527 217.345C501.286 212.46 500.852 196.57 499.107 193.298C500.648 187.84 504.57 176.493 507.661 172.049Z"/><path fill="#72DBFD" d="M635.963 204.976C636.779 204.929 637.186 205.061 638.008 205.191C640.532 209.095 627.857 221.975 624.695 224.703C618.59 229.971 611.407 232.385 603.329 231.724C601.126 230.842 600.618 230.605 599.639 228.702C599.607 227.778 599.595 226.626 600.103 225.832C607.783 213.819 624.126 209.483 635.963 204.976Z"/><path fill="#FE0100" d="M291.78 686.086L296.569 685.611C313.262 706.222 328.067 723.421 349.285 739.866C351.968 741.945 358.258 746.875 360.897 748.209C361.523 748.622 362.308 748.977 362.578 749.491C368.147 753.772 382.858 763.064 389.312 766.117C390.067 766.426 390.699 766.536 391.119 767.05C403.106 773.762 411.719 776.35 423.136 781.765C406.103 798.426 390.928 817.615 375.825 836.027C370.178 842.912 358.77 855.556 354.943 863.053C348.093 859.551 341.348 855.848 334.716 851.949C332.374 850.579 324.429 845.611 322.363 844.769L321.731 844.762L320.666 843.613C320.079 843.59 320.414 843.664 319.722 843.201C317.639 841.333 312.365 837.967 309.862 836.248C304.875 832.812 299.941 829.298 295.064 825.707C293.28 825.707 292.988 825.387 292.325 823.965C287.565 817.913 273.188 808.01 266.412 800.687C251.991 785.104 229.256 759.759 229.265 737.846C229.404 737.4 230.192 735.889 230.442 735.38L230.099 734.623L227.608 734.123C228.581 732.342 229.571 730.45 230.605 728.716C236.169 735.579 241.076 743.509 250.825 737.187C255.875 733.911 260.269 730.107 264.947 726.342L287.327 708.27C292.152 704.296 294.324 702.714 296.485 696.978C295.541 691.559 294.939 690.642 291.78 686.086Z"/><path fill="#FEFEFE" d="M295.064 825.707C297.76 823.179 302.425 817.198 305.021 814.063C310.683 807.221 316.436 800.456 322.28 793.769C332.095 782.654 342.959 772.18 353.069 761.311C356.978 757.108 359.799 754.56 362.578 749.491C368.147 753.772 382.858 763.064 389.312 766.117C390.067 766.426 390.699 766.536 391.119 767.05C403.106 773.762 411.719 776.35 423.136 781.765C406.103 798.426 390.928 817.615 375.825 836.027C370.178 842.912 358.77 855.556 354.943 863.053C348.093 859.551 341.348 855.848 334.716 851.949C332.374 850.579 324.429 845.611 322.363 844.769L321.731 844.762L320.666 843.613C320.079 843.59 320.414 843.664 319.722 843.201C317.639 841.333 312.365 837.967 309.862 836.248C304.875 832.812 299.941 829.298 295.064 825.707Z"/><path fill="#FEFEFE" d="M295.064 825.707C297.76 823.179 302.425 817.198 305.021 814.063C310.683 807.221 316.436 800.456 322.28 793.769C332.095 782.654 342.959 772.18 353.069 761.311C356.978 757.108 359.799 754.56 362.578 749.491C368.147 753.772 382.858 763.064 389.312 766.117C390.067 766.426 390.699 766.536 391.119 767.05C377.317 783.565 363.976 799.656 349.524 815.631C344.538 821.143 324.834 840.403 322.363 844.769L321.731 844.762L320.666 843.613C320.079 843.59 320.414 843.664 319.722 843.201C317.639 841.333 312.365 837.967 309.862 836.248C304.875 832.812 299.941 829.298 295.064 825.707Z"/><path fill="#5B0100" d="M389.312 766.117C390.067 766.426 390.699 766.536 391.119 767.05C377.317 783.565 363.976 799.656 349.524 815.631C344.538 821.143 324.834 840.403 322.363 844.769L321.731 844.762L320.666 843.613C320.079 843.59 320.414 843.664 319.722 843.201C321.282 839.948 339.441 820.456 342.871 816.672C357.503 800.53 372.942 780.283 389.312 766.117Z"/><path fill="#313847" d="M354.157 766.646C362.416 767.523 372.135 777.223 366.607 785.484C362.106 791.238 356.352 797.864 351.086 802.986C344.138 809.744 335.534 822.518 326.244 824.549C318.432 822.716 314.53 818.607 312.259 811.073C312.679 809.358 313.302 806.615 314.566 805.111C324.87 792.848 336.69 779.216 348.707 768.723C350.157 767.457 352.481 766.97 354.157 766.646Z"/><path fill="#313847" d="M379.352 790.077C385.868 790.534 391.34 795.298 393.947 801.025C397.32 808.137 385.796 818.529 381.079 823.254C374.318 830.027 364.143 843.525 355.81 846.765C349.225 846.412 341.97 841.24 340.312 834.836C339.627 832.208 340.057 829.414 341.498 827.112C345.78 820.222 367 799.089 374.042 792.321C375.321 791.091 377.619 790.473 379.352 790.077Z"/><path fill="#5B0100" d="M360.897 748.209C361.523 748.622 362.308 748.977 362.578 749.491C359.799 754.56 356.978 757.108 353.069 761.311C342.959 772.18 332.095 782.654 322.28 793.769C316.436 800.456 310.683 807.221 305.021 814.063C302.425 817.198 297.76 823.179 295.064 825.707C293.28 825.707 292.988 825.387 292.325 823.965C292.421 823.792 292.521 823.62 292.613 823.444C302.835 804.119 343.682 762.223 360.897 748.209Z"/><path fill="#313847" d="M296.859 707.126C298.888 706.979 300.95 706.92 302.915 707.545C308.917 709.45 335.015 738.069 337.986 744.321C339.238 746.956 339.618 748.955 338.507 751.707C337.551 754.073 336.004 756.188 334.313 758.081C329.684 763.264 324.163 767.952 319.165 772.806C312.911 778.879 306.591 786.026 299.602 791.196C298.137 792.28 296.574 792.99 294.896 793.687C292.652 793.873 290.274 793.884 288.204 792.868C283.554 790.586 258.018 759.305 254.509 753.588C253.484 751.917 252.936 749.925 252.365 748.061C252.626 746.982 253.788 742.771 254.365 742.204C262.193 734.516 287.42 709.861 296.859 707.126Z"/><path fill="#30416B" d="M263.95 229.077C287.296 227.915 310.699 229.448 333.695 233.645C335.802 234.022 344.853 235.673 346.358 236.199C379.304 243.71 402.681 253.141 431.266 270.914C446.282 281.395 458.674 290.576 428.744 291.482C428.067 291.502 427.854 292.902 427.72 293.364C424.206 293.253 420.686 287.648 418.099 290.257C417.202 291.161 416.694 292.551 416.876 293.737C418.386 303.545 424.917 312.417 431.82 318.693C423.654 319.537 393.394 329.933 391.037 337.942C390.645 342.547 381.443 338.909 379.488 342.965C380.771 349.873 386.569 349.909 390.316 354.348C389.711 355.816 387.962 356.126 386.464 356.279L386.072 356.043C382.779 359.052 356.25 367.846 350.32 369.938C332.473 354.205 321.521 343.451 305.408 325.638C298.082 317.745 291.104 309.535 284.494 301.032C288.755 295.776 292.685 290.26 296.263 284.517C288.764 276.018 257.594 240.487 257.791 230.576L259.43 231.127C260.841 229.552 261.555 229.794 263.95 229.077Z"/><path fill="#00BDFD" d="M346.358 236.199C379.304 243.71 402.681 253.141 431.266 270.914C446.282 281.395 458.674 290.576 428.744 291.482C428.067 291.502 427.854 292.902 427.72 293.364C424.206 293.253 420.686 287.648 418.099 290.257C417.202 291.161 416.694 292.551 416.876 293.737C418.386 303.545 424.917 312.417 431.82 318.693C423.654 319.537 393.394 329.933 391.037 337.942C389.375 337.033 387.716 336.126 387.31 334.188C386.184 328.822 392.927 320.055 395.842 315.982C387.277 317.247 369.235 317.497 364.499 308.831C359.699 300.049 373.12 292.282 379.267 289.232C376.875 287.836 374.557 286.317 372.323 284.68C359.421 275.104 348.351 257.127 345.976 241.03C345.713 239.253 345.387 237.454 346.358 236.199Z"/><path fill="#FE0100" d="M316.76 307.048C330.732 321.001 365.751 357.779 386.072 356.043C382.779 359.052 356.25 367.846 350.32 369.938C332.473 354.205 321.521 343.451 305.408 325.638C309.841 320.359 313.77 313.228 316.76 307.048Z"/><path fill="#530001" d="M257.791 230.576L259.43 231.127C264.858 240.667 272.483 249.122 279.442 257.583C298.602 280.88 357.724 348.568 384.843 355.776C385.249 355.884 385.661 355.962 386.072 356.043C365.751 357.779 330.732 321.001 316.76 307.048C313.77 313.228 309.841 320.359 305.408 325.638C298.082 317.745 291.104 309.535 284.494 301.032C288.755 295.776 292.685 290.26 296.263 284.517C288.764 276.018 257.594 240.487 257.791 230.576Z"/><path fill="#FEFEFE" d="M296.263 284.517C302.811 291.851 309.922 300.025 316.76 307.048C313.77 313.228 309.841 320.359 305.408 325.638C298.082 317.745 291.104 309.535 284.494 301.032C288.755 295.776 292.685 290.26 296.263 284.517Z"/><path fill="#FEFEFE" d="M227.608 734.123L230.099 734.623L230.442 735.38C230.192 735.889 229.404 737.4 229.265 737.846C226.633 749.249 234.069 767.786 240.544 777.126C289.292 847.441 385.126 888.343 465.561 905.976C552.807 925.103 656.874 933.526 735.666 884.406C747.487 876.872 760.921 866.522 770.912 856.711C776.943 850.755 782.533 844.368 787.639 837.601C791.034 833.089 793.255 827.386 798.619 826.046C799.328 824.58 798.947 823.202 798.764 821.522C799.391 818.754 799.457 819.829 797.872 816.677C797.153 813.94 796.619 811.118 796.048 808.342C799.182 806.637 802.302 804.905 805.407 803.147C806.878 801.785 807.276 801.71 809.156 800.873C810.383 799.977 811.238 799.158 812.71 798.867C813.249 800.687 806.769 816.261 805.557 818.822C801.591 827.194 796.166 837.09 790.593 844.436C786.174 850.262 778.733 856.449 773.402 861.656C743.859 890.514 712.884 907.611 674.483 921.855C602.143 948.688 535.495 950.917 460.147 935.503C427.542 929.019 395.79 918.812 365.515 905.083C313.465 880.923 249.737 833.371 218.966 782.386C212.48 771.64 222.351 745.127 227.608 734.123Z"/><path fill="#FEFEFE" d="M805.407 803.147C805.439 806.64 800.626 814.731 797.872 816.677C797.153 813.94 796.619 811.118 796.048 808.342C799.182 806.637 802.302 804.905 805.407 803.147Z"/><path fill="#8D0101" d="M805.407 803.147C806.878 801.785 807.276 801.71 809.156 800.873C806.698 807.631 803.158 815.749 798.764 821.522C799.391 818.754 799.457 819.829 797.872 816.677C800.626 814.731 805.439 806.64 805.407 803.147Z"/><path fill="#00BDFD" d="M511.409 162.025C511.765 146.719 512.72 131.432 514.274 116.2C515.551 103.366 522.685 45.1439 532.524 38.4198C535.022 36.7128 538.411 37.8948 541.124 38.4782C581.076 53.9691 626.819 95.1091 651.457 129.689C661.157 142.495 670.83 156.767 678.448 170.941C671.557 173.462 666.377 173.938 659.114 174.02C658.172 167.659 652.388 136.809 644.351 134.497C640.609 133.421 635.726 143 632.148 145.741C631.582 145.616 628.354 144.935 627.95 145.015C605.986 149.355 584.343 156.789 563.335 164.655C546.349 171.015 527.298 178.795 514.062 191.503C513.049 182.715 511.335 170.725 511.409 162.025Z"/><path fill="#FEFEFE" d="M524.165 154.766C533.734 149.939 542.36 145.689 552.425 141.959C584.116 130.569 617.945 126.378 651.457 129.689C661.157 142.495 670.83 156.767 678.448 170.941C671.557 173.462 666.377 173.938 659.114 174.02C658.172 167.659 652.388 136.809 644.351 134.497C640.609 133.421 635.726 143 632.148 145.741C631.582 145.616 628.354 144.935 627.95 145.015C605.986 149.355 584.343 156.789 563.335 164.655C546.349 171.015 527.298 178.795 514.062 191.503C513.049 182.715 511.335 170.725 511.409 162.025C514.328 160.627 520.86 156.618 524.165 154.766Z"/><path fill="#72DBFD" d="M511.409 162.025C511.765 146.719 512.72 131.432 514.274 116.2C515.551 103.366 522.685 45.1439 532.524 38.4198C535.022 36.7128 538.411 37.8948 541.124 38.4782C540.192 47.9036 536.655 62.6061 534.933 72.7461C532.22 89.2367 529.831 105.779 527.766 122.363C526.435 132.827 524.839 144.291 524.165 154.766C520.86 156.618 514.328 160.627 511.409 162.025Z"/><path fill="#FE0100" d="M426.862 782.893C447.51 791.668 485.163 799.437 507.292 801.701C507.981 813.46 510.065 819.115 516.37 829.031C510.803 827.729 498.018 824.069 493.177 826.34C486.634 829.409 480.648 849.078 477.236 855.694C474.613 860.78 472.302 867.06 470.484 872.367C468.02 879.56 470.133 883.446 477.133 885.907C491.847 890.197 507.092 894.071 522.21 896.566C535.798 898.808 537.021 884.372 539.364 874.612C541.124 867.074 542.975 859.557 544.917 852.064C550.602 854.936 555.331 856.467 561.314 858.324L552.744 878.122C548.07 888.765 541.247 903.8 537.612 914.647C528.383 913.992 514.417 911.82 505.255 910.34C456.197 902.418 403.095 887.479 358.645 864.764C369.526 850.393 381.61 837.437 393.225 823.683C404.522 810.306 416.242 796.806 426.862 782.893Z"/><path fill="#313847" d="M430.531 801.169C439.831 801.041 446.597 807.365 454.774 811.16C460.381 813.851 465.849 816.4 471.332 819.352C474.891 821.267 477.033 825.572 475.22 829.346C471.712 836.645 466.694 843.505 462.701 850.612C459.068 857.079 455.523 863.7 451.573 869.964C450.006 872.416 447.712 873.237 444.98 873.658C436.226 873.412 412.663 858.031 403.759 853.73C395.468 849.726 399.704 840.007 404.403 834.66C410.766 827.418 422.357 804.632 430.531 801.169Z"/><path fill="#30416B" d="M847.197 758.717C847.792 759.138 848.017 759.206 848.401 759.859C871.98 800.08 884.35 846.531 878.056 893.236C875.442 912.632 869.128 936.673 858.468 953.577C857.094 955.755 854.029 958.018 851.934 959.638C852.264 947.412 851.763 943.136 846.984 931.698C835.337 907.81 813.604 889.123 786.972 884.791C796.568 871.087 803.702 855.815 808.053 839.661C811.3 827.702 812.837 817.141 818.494 805.749C819.993 802.73 820.326 796.07 821.907 793.074C824.834 787.529 831.87 783.668 835.664 778.537C841.277 771.377 843.546 766.743 847.197 758.717Z"/><path fill="#30416B" d="M331.073 438.76C342.205 420.57 343.901 421.419 363.752 416.216C380.283 411.884 393.609 417.668 407.984 426.103C426.465 435.776 442.216 456.386 450.642 475.232C428.5 479.032 408.058 486.072 388.138 496.449C380.362 500.5 352.162 520.679 347.522 520.885C341.875 521.135 329.801 511.763 324.931 508.32C319.236 504.294 311.326 499.035 309.901 491.708C308.192 482.915 325.386 447.273 330.944 438.9C330.979 438.847 331.03 438.807 331.073 438.76Z"/><path fill="#530001" d="M333.975 437.896C335.479 435.442 337.217 432.145 340.242 431.773C341.733 432.944 341.257 432.452 341.857 434.619L341.993 435.339C344.018 435.957 346.235 436.221 348.14 437.12C357.803 441.682 366.889 447.697 376.125 453.047C384.334 457.803 393.189 462.103 400.845 467.698C402.882 469.186 405.119 471.061 406.276 473.348C406.795 474.374 406.859 475.292 406.45 476.341C403.515 483.856 362.661 503.334 353.486 506.891C350.068 508.217 346.558 509.484 342.96 510.225C337.049 508.11 328.228 501.366 323.22 497.725C313.004 490.299 317.064 478.693 320.704 469.021C324.402 458.123 329.541 448.337 333.975 437.896Z"/><path fill="#4D80AF" d="M333.27 449.269C333.932 449.722 336.455 452.407 337.327 453.224C340.026 455.752 342.838 458.156 345.754 460.43C361.363 472.658 368.86 476.766 386.46 485.306C379.249 489.778 374.063 492.78 366.323 496.352C357.935 500.353 351.894 502.676 343.083 505.498C335.514 500.888 324.169 495.396 320.69 487.454C321.674 476.708 328.975 459.549 333.27 449.269Z"/><path fill="#30416B" d="M339.35 436.636C345.549 438.259 364.126 451.056 371.137 455.187C379.896 460.349 396.237 468.412 403.366 474.544L403.158 475.267C401.319 477.212 398.711 478.344 396.299 479.631C394.148 480.601 392.28 481.84 390.272 483.077C379.37 476.994 368.72 470.472 358.347 463.526C351.501 458.924 340.807 451.132 334.032 447.533C335.416 444.248 337.726 439.912 339.35 436.636Z"/><path fill="#8D919A" d="M331.073 438.76C342.205 420.57 343.901 421.419 363.752 416.216C380.283 411.884 393.609 417.668 407.984 426.103C387.567 425.787 369.63 425.998 349.705 431.816C348.168 432.265 343.044 433.849 341.857 434.619C341.257 432.452 341.733 432.944 340.242 431.773C337.217 432.145 335.479 435.442 333.975 437.896L331.073 438.76Z"/><path fill="#FE0100" d="M458.499 510.231C485.308 514.334 531.758 531.331 556.385 542.289C541.539 560.078 527.703 590.596 517.018 612.178L514.294 617.655C479.843 604.486 459.888 598.192 423.25 592.219C428.122 582.225 433.082 569.387 437.692 559.032C444.823 543.017 452.14 526.543 458.499 510.231Z"/><path fill="#313847" d="M461.337 523.241C469.179 521.996 487.908 527.579 494.356 531.889C499.457 540.557 492.31 551.351 489.319 559.907C486.919 566.772 484.269 573.999 477.483 577.267C471.571 577.674 469.611 576.807 464.587 575.625C437.464 569.311 439.945 564.215 449.816 541.056C452.671 534.357 454.214 526.945 461.337 523.241Z"/><path fill="#313847" d="M508.331 539.148C516.108 538.8 523.797 542.987 530.819 545.881C540.692 550.054 537.831 560.898 534.307 568.47C530.499 576.653 528.224 589.88 518.383 592.363C511.069 592.633 504.747 588.743 498.15 586.227C483.576 580.805 489.896 567.678 494.53 557.459C497.755 550.347 500.152 541.558 508.331 539.148Z"/><path fill="#30416B" d="M226.612 809.66L228.541 809.905C242.57 826.652 258.522 840.902 275.461 854.683C296.236 871.826 318.615 886.927 342.287 899.778C394.191 927.745 460.846 946.057 519.509 951.284C534.461 952.711 549.485 953.22 564.499 952.806C622.079 950.759 687.1 932.197 735.391 900.291L736.227 901.015C729.577 907.05 721.458 910.961 713.927 915.537C637.436 962.017 549.522 973.565 460.891 959.328C427.906 954.335 395.71 945.077 365.111 931.786C317.24 910.62 273.01 873.074 240.962 831.768C237.256 826.991 228.637 814.9 226.612 809.66Z"/><path fill="#FE0100" d="M678.448 170.941C699.014 205.556 720.062 269.976 723.787 310.827C725.021 324.351 724.407 331.113 724.019 344.029L717.597 345.281C707.892 337.433 702.341 327.062 696.844 316.082C686.855 296.13 677.086 278.254 657.776 265.768C664.398 254.512 666.482 245.07 665.877 231.979C665.488 223.55 664.858 210.066 653.298 219.906C660.928 202.269 660.791 193.149 659.114 174.02C666.377 173.938 671.557 173.462 678.448 170.941Z"/><path fill="#FE0100" d="M591.284 557.819C593.712 559.308 597.172 561.021 599.745 562.318C626.656 575.881 650.06 592.348 673.306 611.401C670.175 614.96 668.027 617.624 665.217 621.441C659.229 619.49 652.803 615.119 647.469 611.619C631.363 601.049 627.632 608.564 619.945 623.05C619.882 623.179 619.568 623.854 619.413 623.997C607.354 635.103 591.866 644.225 575.852 647.601C566.982 643.302 556.986 637.688 547.897 633.125C564.048 608.133 575.586 582.813 591.284 557.819Z"/><path fill="#313847" d="M587.055 580.134C589.831 580.024 592.732 579.945 595.184 581.232C620.474 594.512 630.722 593.969 611.664 623.006C608.623 627.639 607.211 632.117 601.083 634.423C590.623 634.831 587.102 629.592 578.748 626.005C559.458 617.879 566.253 608.76 574.573 594.643C577.93 588.946 580.567 582.772 587.055 580.134Z"/><path fill="#FE0100" d="M312.248 600.782C321.549 606.998 332.354 611.763 342.885 615.419C347.99 617.088 352.374 618.224 357.336 619.738C371.548 623.282 383.288 625.171 397.761 627.288C387.014 631.243 367.938 639.888 362.438 651.016C362.169 651.561 362.208 651.335 362.374 651.924C365.663 647.206 371.86 641.434 377.522 640.211C357.176 656.954 326.339 685.363 338.578 714.718C335.11 712.836 329.338 707.863 326.321 705.228C311.823 692.562 301.42 678.413 297.452 659.341C295.44 652.142 297.264 633.544 300.258 626.389C302.175 619.742 308.885 607.198 312.248 600.782Z"/><path fill="#C17374" d="M307.736 622.914C310.638 623.645 312.12 624.107 314.524 625.986L314.506 626.579C319.143 633.797 315.748 643.097 312.577 650.3C311.703 652.519 310.33 654.867 309.625 656.867C306.693 659.312 305.765 659.754 302.12 660.847C301.336 662.846 300.604 665.412 299.942 667.499C299.468 664.71 299.208 661.725 298.904 658.901L297.452 659.341C295.44 652.142 297.264 633.544 300.258 626.389C301.393 626.973 303.319 624.046 307.232 623.207L307.736 622.914Z"/><path fill="#8D0101" d="M314.506 626.579C319.143 633.797 315.748 643.097 312.577 650.3C311.703 652.519 310.33 654.867 309.625 656.867C306.693 659.312 305.765 659.754 302.12 660.847C306.584 650.917 311.347 636.887 314.506 626.579Z"/><path fill="#8D0101" d="M300.258 626.389C301.393 626.973 303.319 624.046 307.232 623.207C301.903 635.596 298.46 645.017 298.904 658.901L297.452 659.341C295.44 652.142 297.264 633.544 300.258 626.389Z"/><path fill="#8D0101" d="M342.885 615.419C347.99 617.088 352.374 618.224 357.336 619.738C358.042 626.741 356.486 633.82 350.89 638.675C346.182 642.684 339.51 642.491 335.759 637.28C329.569 628.682 335.875 620.569 342.885 615.419Z"/><path fill="#FE807F" d="M312.577 650.3C314.483 649.376 314.966 648.95 316.997 649.011C318.137 649.736 318.456 649.713 318.717 651.39C320.296 661.531 317.325 679.973 318.781 689.126C311.248 678.847 306.957 673.911 309.016 660.277C309.187 659.135 309.39 657.998 309.625 656.867C310.33 654.867 311.703 652.519 312.577 650.3Z"/><path fill="#FE807F" d="M307.736 622.914C309.279 620.205 310.431 617.988 313.851 619.074C315.719 621.187 315.277 623.382 314.524 625.986C312.12 624.107 310.638 623.645 307.736 622.914Z"/><path fill="#8D0101" d="M330.815 652.445C334.539 651.086 338.663 652.974 340.069 656.681C341.474 660.387 339.639 664.535 335.95 665.987C333.523 666.942 330.769 666.518 328.741 664.877C326.713 663.235 325.725 660.63 326.155 658.056C326.584 655.483 328.364 653.34 330.815 652.445Z"/><path fill="#00BDFD" d="M222.493 213.452C222.884 211.91 223.679 210.923 224.924 209.977C243.654 195.749 337.374 199.11 362.892 202.255C360.653 204.719 358.296 207.412 356 209.791L335.702 231.53C310.991 227.973 290.85 226.225 265.983 227.724L265.475 228.504L263.848 228.504L263.95 229.077C261.555 229.794 260.841 229.552 259.43 231.127L257.791 230.576C257.594 240.487 288.764 276.018 296.263 284.517C292.685 290.26 288.755 295.776 284.494 301.032C273.567 287.422 225.67 225.915 222.493 213.452Z"/><path fill="#72DBFD" d="M222.493 213.452C222.884 211.91 223.679 210.923 224.924 209.977C243.654 195.749 337.374 199.11 362.892 202.255C360.653 204.719 358.296 207.412 356 209.791C320.946 206.347 305.395 204.242 269.451 207.565C259.678 208.509 249.934 209.736 240.233 211.244C236.48 211.792 225.794 213.607 222.493 213.452Z"/><path fill="#5B0100" d="M257.791 230.576C257.94 230.313 258.773 229.309 258.993 229.033C261.418 227.837 263.275 227.928 265.983 227.724L265.475 228.504L263.848 228.504L263.95 229.077C261.555 229.794 260.841 229.552 259.43 231.127L257.791 230.576Z"/><path fill="#FE0100" d="M428.355 508.194C436.221 507.02 448.617 508.366 456.291 509.828C446.63 527.669 438.822 546.484 430.96 565.175C427.338 573.784 424.295 583.462 420.186 591.686C415.338 591.222 410.484 590.829 405.625 590.505C395.49 590.038 389.039 589.931 378.96 590.627C367.544 549.319 383.271 513.516 428.355 508.194Z"/><path fill="#FE0100" d="M723.501 509.42C731.692 515.461 738.176 522.892 744.98 530.374C746.439 532.127 752.546 539.87 753.403 541.527C762.875 554.461 771.553 567.956 779.391 581.94C781.925 586.21 784.284 590.664 786.658 595.032C792.019 605.244 797.259 615.519 802.377 625.855C803.191 626.682 804.912 630.331 805.275 631.425C803.863 639.709 801.63 644.333 792.173 644.516C790.239 641.262 788.221 638.059 786.12 634.91C775.132 619.059 766.091 606.836 753.807 591.993C750.364 587.897 747.137 584.072 743.5 580.136C734.391 569.343 721.941 556.625 711.834 546.984C716.311 549.398 722.281 553.424 727.189 552.734C729.036 548.741 727.283 546.868 725.825 543.044C721.79 534.179 717.216 528.046 711.065 520.738C717.227 516.822 718.559 515.065 723.501 509.42Z"/><path fill="#8D0101" d="M723.501 509.42C731.692 515.461 738.176 522.892 744.98 530.374C746.439 532.127 752.546 539.87 753.403 541.527C753.689 544.842 753.957 546.917 753.622 550.615C752.697 560.839 744.895 573.304 733.758 565.055C730.17 562.398 729.417 556.646 727.189 552.734C729.036 548.741 727.283 546.868 725.825 543.044C721.79 534.179 717.216 528.046 711.065 520.738C717.227 516.822 718.559 515.065 723.501 509.42Z"/><path fill="#FE0100" d="M723.501 509.42C731.692 515.461 738.176 522.892 744.98 530.374C733.49 528.909 730.354 532.997 725.825 543.044C721.79 534.179 717.216 528.046 711.065 520.738C717.227 516.822 718.559 515.065 723.501 509.42Z"/><path fill="#8D0101" d="M779.391 581.94C781.925 586.21 784.284 590.664 786.658 595.032C785.331 597.705 786.027 601.22 783.894 603.911C780.791 607.972 776.15 608.422 772.315 604.898C767.316 600.305 766.408 589.465 771.364 584.504C773.846 582.02 776.02 581.968 779.391 581.94Z"/><path fill="#8D0101" d="M786.12 634.91C787.365 631.914 788.005 628.814 789.979 626.069C792.736 622.236 799.174 625.26 802.377 625.855C803.191 626.682 804.912 630.331 805.275 631.425C803.863 639.709 801.63 644.333 792.173 644.516C790.239 641.262 788.221 638.059 786.12 634.91Z"/><path fill="#8D0101" d="M743.5 580.136C745.702 578.663 747.394 577.479 750.184 578.065C752.397 578.52 754.303 579.914 755.406 581.886C757.404 585.51 756.313 589.026 753.807 591.993C750.364 587.897 747.137 584.072 743.5 580.136Z"/><path fill="#313847" d="M496.069 827.014C500.165 826.852 513.977 829.777 518.12 831.205C527.406 842.21 531.018 844.505 543.424 851.333C541.091 859.681 536.164 889.33 530.336 893.462C526.768 895.993 523.167 895.286 519.128 894.732C506.354 890.902 489.916 888.702 477.039 884.159C472.931 882.709 472.236 880.955 470.598 877.241C470.914 875.894 471.526 873.4 472.173 871.928C478.172 858.287 483.703 843.533 490.684 830.448C491.409 829.088 494.806 827.577 496.069 827.014Z"/><path fill="#FE0100" d="M277.851 881.962C285.704 889.404 295.19 896.854 303.67 903.624C305.722 905.095 314.438 911.16 315.648 912.645C318.089 913.545 325.099 918.404 327.639 920.078C336.725 926.065 346.455 930.281 355.876 935.497C356.88 935.733 360.196 937.403 361.321 937.935C357.407 955.637 354.765 975.177 356.719 993.23C354.114 990.687 343.51 983.996 339.68 981.27C323.417 969.692 310.432 956.05 300.088 938.938C297.608 934.836 292.656 928.242 291.553 923.76C288.049 918.051 280.124 889.735 277.851 881.962Z"/><path fill="#313847" d="M315.648 912.645C318.089 913.545 325.099 918.404 327.639 920.078C336.725 926.065 346.455 930.281 355.876 935.497C351.066 947.253 352.11 962.135 336.435 957.614C310.208 950.049 309.487 936.081 315.648 912.645Z"/><path fill="#313847" d="M277.851 881.962C285.704 889.404 295.19 896.854 303.67 903.624C301.949 911.701 303.471 931.939 291.553 923.76C288.049 918.051 280.124 889.735 277.851 881.962Z"/><path fill="#30416B" d="M382.396 412.216C410.637 414.917 444.999 420.491 469.864 435.299C473.135 436.524 479.402 440.194 482.591 442.09C503.368 454.449 521.394 470.255 538.765 486.934C539.642 490.535 540.595 493.905 541.623 497.468C521.055 487.263 495.614 477.343 472.651 474.571C466.546 473.835 459.376 474.253 453.197 474.636C450.222 455.004 433.159 439.599 418.627 427.577C410.975 423.218 405.964 420.059 397.549 416.873C391.997 414.772 387.562 413.958 382.396 412.216Z"/><path fill="#8D919A" d="M382.396 412.216C410.637 414.917 444.999 420.491 469.864 435.299C470.72 436.702 471.454 437.36 471.516 438.774C470.3 438.097 469.06 437.468 467.841 436.797C460.135 432.553 428.751 428.696 418.627 427.577C410.975 423.218 405.964 420.059 397.549 416.873C391.997 414.772 387.562 413.958 382.396 412.216Z"/><path fill="#FEFEFE" d="M565.809 859.555L571.958 860.883C569.199 870.595 566.611 879.737 564.057 889.939C560.066 900.355 574.252 908.344 581.124 901.645C586.509 896.396 592.598 870.344 593.052 863.331C596.807 863.496 599.527 863.561 603.267 863.386L604.993 863.364C607.785 863.468 609.805 863.487 612.623 863.372C610.524 871.277 602.157 894.284 605.775 900.9C607.022 903.179 609.282 904.911 611.778 905.604C613.465 906.072 615.298 906.229 617.033 906.444C625.107 902.984 626.16 895.842 628.21 887.99C630.443 879.435 633.895 870.009 633.721 861.195C637.411 860.76 640.955 860.343 644.624 859.756C642.499 872.226 636.077 904.355 631.091 914.862L603.3 917.021C602.83 917.399 602.061 918.085 601.474 918.104C592.243 918.403 548.566 918.378 543.475 915.417C543.166 913.83 547.652 905.67 548.642 903.608C555.378 889.583 561.915 874.621 565.809 859.555Z"/><path fill="#FEFEFE" d="M633.721 861.195C637.411 860.76 640.955 860.343 644.624 859.756C642.499 872.226 636.077 904.355 631.091 914.862L603.3 917.021L586.746 917.166C593.082 900.995 601.435 879.967 604.993 863.364C607.785 863.468 609.805 863.487 612.623 863.372C610.524 871.277 602.157 894.284 605.775 900.9C607.022 903.179 609.282 904.911 611.778 905.604C613.465 906.072 615.298 906.229 617.033 906.444C625.107 902.984 626.16 895.842 628.21 887.99C630.443 879.435 633.895 870.009 633.721 861.195Z"/><path fill="#5B0100" d="M603.267 863.386L604.993 863.364C601.435 879.967 593.082 900.995 586.746 917.166L603.3 917.021C602.83 917.399 602.061 918.085 601.474 918.104C592.243 918.403 548.566 918.378 543.475 915.417C545.882 915.428 548.267 915.58 550.663 915.804C561.844 916.851 572.895 917.134 584.123 917.232C590.711 898.241 592.981 881.898 603.267 863.386Z"/><path fill="#FEFEFE" d="M379.576 592.999C428.445 594.222 481.975 607.574 527.009 627.777C527.336 627.923 528.28 629.864 528.449 630.209C531.11 630.313 529.122 628.788 530.479 629.361C539.507 633.171 562.038 643.985 569.101 648.153C543.902 648.67 524.413 638.078 501.556 629.202C480.031 620.844 458.352 616.303 435.216 618.415C423.125 619.519 413.291 623.691 401.388 620.588C399.195 620.016 396.691 620.145 394.439 619.298C392.463 617.094 390.453 614.734 388.297 612.725C383.396 605.441 382.057 601.484 379.576 592.999Z"/><path fill="#5B0100" d="M557.498 542.685L572.804 549.202L573.651 549.537C577.925 551.5 586.324 555.157 590.191 557.436C585.082 563.826 581.411 569.195 576.88 576.057C575.845 572.167 575.547 570.047 571.813 567.941C571.296 567.653 570.769 567.381 570.235 567.125L569.508 568.55C571.523 569.637 573.299 570.394 574.005 572.713C575.918 578.997 565.121 595.039 561.738 600.81C561.01 602.07 560.25 603.311 559.458 604.532L560.556 605.348C560.271 606.801 560.587 606.147 559.387 607.268C554.94 615.53 550.08 623.829 545.758 632.094C542.039 630.301 535.616 626.971 531.892 625.833C530.879 625.643 531.226 625.593 530.236 624.492C527.915 623.858 519.861 620.083 517.244 618.922C519.958 614.144 528.433 597.9 531.029 594.572L532.462 593.198C532.988 589.88 537.166 582.288 539.013 579.011C542.224 573.314 546.044 563.667 551.425 560.185C550.413 560.246 550.951 560.321 549.841 559.807L549.86 558.781C552.346 553.387 554.892 548.021 557.498 542.685Z"/><path fill="#313847" d="M559.458 604.532C555.67 606.768 549.232 608.607 548.911 602.509C548.426 593.268 558.184 580.216 562.986 572.36C564.478 569.92 567.104 569.001 569.508 568.55C571.523 569.637 573.299 570.394 574.005 572.713C575.918 578.997 565.121 595.039 561.738 600.81C561.01 602.07 560.25 603.311 559.458 604.532Z"/><path fill="#313847" d="M551.425 560.185C562.783 560.592 557.34 572.901 553.648 578.453C549.358 584.904 541.024 607.982 532.462 593.198C532.988 589.88 537.166 582.288 539.013 579.011C542.224 573.314 546.044 563.667 551.425 560.185Z"/><path fill="#FEFEFE" d="M546.198 598.806C547.226 607.505 551.159 609.894 559.387 607.268C554.94 615.53 550.08 623.829 545.758 632.094C542.039 630.301 535.616 626.971 531.892 625.833C536.587 617.881 541.56 607.253 546.198 598.806Z"/><path fill="#FEFEFE" d="M531.029 594.572C533.626 599.454 536.199 600.403 541.585 599.263L542.453 599.084C542.626 599.044 542.799 599.005 542.971 598.965C540.698 603.277 531.199 620.989 530.236 624.492C527.915 623.858 519.861 620.083 517.244 618.922C519.958 614.144 528.433 597.9 531.029 594.572Z"/><path fill="#FEFEFE" d="M564.083 568.274L563.86 567.682C564.056 565.224 571.735 551.967 573.651 549.537C577.925 551.5 586.324 555.157 590.191 557.436C585.082 563.826 581.411 569.195 576.88 576.057C575.845 572.167 575.547 570.047 571.813 567.941C571.296 567.653 570.769 567.381 570.235 567.125C567.368 567.315 566.805 567.388 564.083 568.274Z"/><path fill="#FEFEFE" d="M557.498 542.685L572.804 549.202L573.651 549.537C571.735 551.967 564.056 565.224 563.86 567.682L564.083 568.274C563.382 569.247 563.429 569.229 562.463 569.926C561.948 569.125 561.426 568.328 560.899 567.536C559.585 560.583 557.213 558.017 549.86 558.781C552.346 553.387 554.892 548.021 557.498 542.685Z"/><path fill="#8D0101" d="M572.804 549.202L573.651 549.537C571.735 551.967 564.056 565.224 563.86 567.682L564.083 568.274C563.382 569.247 563.429 569.229 562.463 569.926C561.948 569.125 561.426 568.328 560.899 567.536C564.894 560.562 568.191 555.652 572.804 549.202Z"/><path fill="#30416B" d="M785.415 886.901C818.35 896.649 847.263 926.77 847.978 962.302C846.524 963.293 845.027 964.219 843.49 965.076C834.436 970.069 824.927 973.308 814.985 975.828C812.912 976.353 810.008 977.865 808.395 977.387C809.088 974.048 832.099 968.207 834.62 962.289C834.452 954.738 807.104 923.64 801.642 917.017C799.304 914.069 796.888 910.554 793.797 908.552C787.801 908.023 769.533 930.798 767.394 936.782C771.766 952.152 785.522 968.479 798.01 978.065C798.877 978.731 800.784 977.782 802.743 978.709C801.826 979.88 790.352 982.717 788.12 983.331C777.194 971.54 768.028 955.207 760.583 940.928C766.216 928.571 771.914 916.245 777.679 903.949C779.847 899.224 782.967 890.804 785.415 886.901Z"/><path fill="#FE0100" d="M763.769 823.406L764.364 823.424C766.017 825.346 767.918 850.967 768.178 854.661C761.914 861.255 752.609 868.461 745.153 873.8C710.702 898.467 676.65 907.66 635.654 914.302C641.576 902.839 649.167 871.947 648.783 859.028L654.411 857.746C657.157 861.148 660.214 889.258 666.938 893.271C670.636 895.543 675.674 894.885 679.642 893.742C718.627 882.52 714.064 881.174 704.093 844.996L710.386 842.935C711.587 849.535 717.16 868.71 722.34 871.906C728.992 876.009 757.68 859.462 760.882 853.253C763.886 847.428 757.822 832.747 755.726 826.706C758.466 825.698 761.085 824.553 763.769 823.406Z"/><path fill="#8D919A" d="M607.625 485.868C617.371 465.584 686.335 460.537 674.423 483.552C670.781 493.682 652.42 508.242 652.198 511.279C650.114 512.94 646.965 514.437 644.548 515.716C635.174 512.672 603.589 498.454 607.625 485.868Z"/><path fill="#313847" d="M607.625 485.868C613.272 490.978 620.339 490.827 627.553 491.021C639.814 491.352 652.845 491.565 664.813 488.736C667.901 488.006 671.755 485.306 674.423 483.552C670.781 493.682 652.42 508.242 652.198 511.279C650.114 512.94 646.965 514.437 644.548 515.716C635.174 512.672 603.589 498.454 607.625 485.868Z"/><path fill="#4D80AF" d="M792.417 912.827C796.024 915.374 827.727 955.911 831.24 960.892C824.241 963.217 815.439 967.057 808.13 969.75C804.315 970.988 800.189 972.22 796.552 973.844C794.868 970.899 790.98 966.202 788.645 963.371C781.089 954.21 776.979 948.162 772.83 937.118C776.539 930.375 787.172 918.719 792.417 912.827Z"/><path fill="#313847" d="M702.067 845.56C704.068 847.689 708.246 868.001 709.34 872.033C709.561 872.847 709.519 876.251 709.481 877.335C705.89 884.254 697.711 886.222 690.662 888.426C683.84 890.558 674.094 895.546 667.66 891.585C662.647 886.613 658.076 864.75 656.539 857.214C667.669 855.85 691.295 848.801 702.067 845.56Z"/><path fill="#30416B" d="M286.354 537.995C298.963 552.342 318.33 558.527 331.678 569.206C329.301 584.675 329.864 594.613 340.445 607.014L333.356 604.175C305.409 591.238 289.905 575.875 276.368 548.678C278.337 544.163 282.556 541.223 286.354 537.995Z"/><path fill="#30416B" d="M350.917 731.808C353.804 732.704 360.408 736.654 363.332 738.263C409.608 763.736 459.085 774.921 511.383 779.653C508.965 783.809 508.047 786.224 507.074 790.892C506.988 792.277 507.026 794.576 504.894 794.317C452.682 787.972 401.24 770.24 359.018 738.34C356.369 736.339 353.123 734.251 350.917 731.808Z"/><path fill="#FE0100" d="M708.198 478.96C709.384 482.981 704.686 487.09 706.12 490.446C708.99 492.035 721.378 489.754 728.151 490.204C724.829 498.192 718.032 506.253 711.906 512.365C709.781 514.486 706.797 515.451 704.003 518.519C703.146 521.43 705.43 520.902 707.7 523.168C713.649 529.106 719.254 539.292 722.629 546.681L717.142 544.165C705.564 539.251 701.004 538.376 691.622 528.92C687.084 524.347 678.913 518.055 673.605 513.965C680.798 508.575 686.085 502.95 690.787 495.171C692.664 492.067 693.838 488.766 695.955 485.833C696.686 486.49 697.648 487.382 698.006 486.984C699.753 485.047 706.605 479.996 708.198 478.96Z"/><path fill="#FE807F" d="M640.439 524.883C650.434 525.254 654.894 524.153 663.971 519.856C673.408 554.365 649.922 567.814 620.13 552.349C613.383 548.847 607.856 541.12 604.353 534.386C617.898 533.754 624.835 532.71 636.416 525.196C638.997 531.447 641.979 536.161 645.536 541.854L647.286 544.827L647.622 544.665L647.191 541.039C646.088 533.826 645.225 530.745 640.439 524.883Z"/><path fill="#FACDCC" d="M647.191 541.039C650.585 538.96 651.157 535.95 653.427 534.439C660.987 529.408 663.786 535.349 660.012 542.516C653.993 553.945 628.452 557.057 621.024 545.847C620.874 544.181 620.669 544.937 621.805 543.548C626.798 541.242 638.078 542.97 645.536 541.854L647.286 544.827L647.622 544.665L647.191 541.039Z"/><path fill="#313847" d="M288.5 686.632C288.895 686.645 288.976 686.611 289.374 686.809C291.364 687.797 292.847 690.786 293.674 692.729C294.536 694.754 294.9 697.104 293.922 699.168C292.052 703.113 251.801 735.597 247.24 737.285C244.613 738.257 242.959 737.864 240.494 736.688C237.4 734.483 234.042 730.068 231.549 727.059C245.632 706.517 263.625 691.585 288.5 686.632Z"/><path fill="#313847" d="M753.57 827.518C755.477 829.245 760.002 844.949 760.737 848.203C757.557 860.045 746.56 861.19 736.935 867.337C732.601 870.105 726.368 872.527 721.738 869.373C721.528 869.103 721.318 868.832 721.123 868.552C718.724 865.095 711.696 846.681 712.723 843.019C712.952 842.199 750.425 828.809 753.57 827.518Z"/><path fill="#FE0100" d="M772.422 878.435C772.565 882.094 754.33 911.369 750.945 916.5C739.551 933.775 721.831 937.222 702.289 940.494C702.024 938.353 707.021 929.392 708.796 927.981C714.036 923.816 720.572 921.018 726.124 917.194C742.405 905.98 759.261 893.29 772.422 878.435Z"/><path fill="#FE0100" d="M705.955 643.393C710.261 646.522 724.311 665.824 727.359 671.005C729.055 673.887 731.261 678.507 732.615 681.684C727.559 685.06 722.474 688.844 717.528 692.412L707.92 699.536C708.279 680.811 704.902 668.581 695.895 652.018C699.746 648.994 702.477 646.891 705.955 643.393Z"/><path fill="#FEFEFE" d="M672.945 450.038C691.409 459.654 698.274 468.694 687.222 489.079C678.778 504.364 664.703 515.751 647.991 520.815C645.202 521.632 642.725 522.037 639.862 522.491C642.431 519.688 642.767 519.219 644.548 515.716C646.965 514.437 650.114 512.94 652.198 511.279C663.859 505.149 691.329 482.678 673.476 469.719C673.549 463.605 673.072 456.323 672.945 450.038Z"/><path fill="#FE807F" d="M317.409 433.069C317.048 436.25 291.346 468.399 288.207 473.165C281.115 483.931 273.177 494.392 267.633 506.507C266.312 500.018 268.768 487.124 270.877 480.878C278.504 458.296 296.792 443.366 317.409 433.069Z"/><path fill="#313847" d="M630.734 861.748C631.082 861.735 630.806 861.705 631.829 862.097C633.469 866.835 625.712 889.375 624.247 895.419C622.146 904.083 617.502 906.039 609.658 903.073C601.548 897.398 612.138 871.506 614.601 863.042C619.467 862.942 625.783 862.196 630.734 861.748Z"/><path fill="#313847" d="M573.945 861.277C580.192 862.08 585.285 862.737 591.597 863.104C591.092 869.263 584.334 894.575 581.106 899.909C579.323 901.4 577.804 901.931 575.695 902.883C566.704 900.801 563.43 897.705 566.106 888.053C568.342 879.989 570.598 868.687 573.945 861.277Z"/><path fill="#30416B" d="M382.388 523.051C382.661 523.299 383.056 523.576 382.686 524.073C369.755 541.452 368.318 556.423 370.255 577.9C365.24 574.179 362.096 572.32 356.712 569.287C353.494 567.688 350.441 565.779 347.595 563.585C347.72 563.233 347.85 562.883 347.987 562.535C349.849 557.843 364.929 534.071 369.407 529.074C370.609 527.733 379.917 524.105 382.388 523.051Z"/><path fill="#FE0100" d="M653.026 271.509C670.821 283.112 678.993 296.325 688.766 314.497C674.538 299.483 657.789 284.298 635.39 289.182C633.564 288.028 629.08 286.432 628.662 284.804L631.013 283.575L631.358 283.497C639.212 283.147 647.537 276.452 653.026 271.509Z"/><path fill="#FEFEFE" d="M792.892 810.03C793.853 811.103 795.206 819.489 795.596 821.559C789.903 830.282 779.84 843.189 772.452 850.282C772.742 838.84 772.755 832.054 769.55 821.088C777.452 817.662 785.237 813.974 792.892 810.03Z"/><path fill="#30416B" d="M294.703 470.801C295.684 473.626 294.189 477.5 294.036 480.461C293.197 496.636 285.934 507.139 275.7 519.475L271.817 515.577C271.15 515.003 269.091 513.61 268.284 513.035C275.328 498.293 285.151 484.031 294.703 470.801Z"/><path fill="#FE0100" d="M805.275 631.425C810.422 642.497 816.487 653.167 821.526 664.305C819.623 663.045 818.23 662.259 816.214 661.182C815.734 660.577 815.225 659.996 814.688 659.44C810.283 654.855 803.797 654.09 797.791 653.951C796.023 650.68 794.133 647.676 792.173 644.516C801.63 644.333 803.863 639.709 805.275 631.425Z"/><path fill="#30416B" d="M742.388 933.932C742.612 935.034 742.544 935.678 741.995 936.727C734.385 951.284 729.472 959.619 711.662 950.027L705.272 946.147C719.577 945.046 730.306 941.271 742.388 933.932Z"/><path fill="#313847" d="M632.58 608.527C639.133 607.467 648.531 614.214 654.389 617.651C647.121 617.15 643.742 616.858 636.626 618.284C631.117 619.553 626.39 621.764 621.29 624.091C624.778 618.039 626.634 612.332 632.58 608.527Z"/><path fill="#FEFEFE" d="M675.458 613.748C678.135 615.133 686.777 623.685 689.346 626.156C686.65 628.299 684.814 630.002 682.321 632.385L681.746 632.336C677.745 628.804 673.403 625.681 668.783 623.011C671.742 619.416 673.127 617.716 675.458 613.748Z"/><path fill="#FEFEFE" d="M691.044 628.267C693.347 629.319 701.096 637.973 703.251 640.286C699.883 642.551 698.251 644.173 695.328 646.999C694.538 647.693 695.001 647.442 693.92 647.71C692.23 646.069 686.834 638.322 684.478 635.465C687.283 632.75 688.605 631.311 691.044 628.267Z"/><path fill="#FE0100" d="M369.671 383.938C372.275 384.024 381.262 384.56 383.546 385.264L382.884 385.814C381.079 386.502 378.93 387.5 377.122 388.279C374.559 387.035 372.105 385.434 369.671 383.938Z"/><path fill="#E40201" d="M748.719 890.263L749.488 890.868C746.852 892.928 738.621 899.892 736.227 901.015L735.391 900.291C739.525 896.85 744.351 893.464 748.719 890.263Z"/><path fill="#412C43" d="M226.612 809.66C223.895 805.716 222.195 803.289 220.027 798.989C221.855 800.849 226.845 807.543 228.541 809.905L226.612 809.66Z"/><path fill="#FE0100" d="M532.576 832.313C530.898 831.666 527.396 831.411 526.788 829.588C528.773 829.471 530.581 830.269 532.493 830.904L532.576 832.313Z"/><path fill="#8D0101" d="M748.719 890.263C749.882 889.126 750.934 887.733 752.426 887.498C752.124 888.924 750.7 890.082 749.488 890.868L748.719 890.263Z"/><path fill="#313847" d="M370.666 941.927C375.346 943.707 380.342 945.509 384.94 947.428C385.878 954.6 386.617 984.839 378.012 986.971C361.08 991.167 367.243 949.24 370.666 941.927Z"/><path fill="#313847" d="M397.578 951.738C400.647 952.662 412.342 956.482 414.953 956.544C412.589 962.189 420.084 994.701 404.768 991.787C403.512 991.548 400.017 989.449 398.719 988.684C393.204 979.249 395.754 962.085 397.578 951.738Z"/><path fill="#5B0100" d="M389.111 948.605C389.811 948.859 390.962 949.214 391.547 949.584C391.238 954.084 392.548 962.166 392.548 966.993C392.55 976.552 392.882 987.736 392.273 997.209L391.336 997.948L390.392 997.655C388.094 993.483 388.914 955.403 389.111 948.605Z"/></svg>