<?xml version="1.0" encoding="utf-8" ?><svg xmlns="http://www.w3.org/2000/svg" xmlns:xlink="http://www.w3.org/1999/xlink" width="878" height="1024" viewBox="0 0 878 1024"><path transform="scale(0.412903 0.412903)" d="M856.578 65.7051C877.021 64.3342 895.521 71.7772 915.244 76.3402C975.02 90.1695 1035.43 112.422 1078.58 165.406L1080.23 165.776C1113.84 173.423 1126.66 184.749 1145.25 216.809C1166.05 160.622 1197.36 113.314 1244.17 83.6827C1253.46 84.777 1266.18 86.4282 1274.8 90.8331C1308.12 107.87 1351.69 147.914 1380.22 175.029C1439.11 230.987 1501.01 325.424 1530.09 407.48C1541.2 443.358 1548.11 484.193 1550.86 522.236C1555.29 583.31 1543.47 629.08 1510.79 675.256C1534.49 674.099 1572.48 681.2 1563.37 723.175C1559.97 738.871 1541.68 750.271 1529.46 756.942C1529.76 757.412 1530.05 757.885 1530.35 758.359C1542.69 778.501 1533.33 788.568 1518.69 799.976C1527.43 800.165 1575.77 797.378 1579.51 802.012C1580.91 803.756 1581.4 805.993 1581.48 808.298C1581.5 808.993 1581.5 809.689 1581.51 810.385C1595.92 811.624 1610.09 804.757 1625.74 807.301C1737.15 825.402 1864.4 843.535 1920.99 975.207C1926.08 987.049 1948.43 1037.9 1936.35 1047.35C1928.23 1048.32 1920.7 1042.07 1913.32 1037.44C1921.92 1082.54 1925.57 1117.95 1889.79 1148.79C1886.98 1151.21 1884.64 1150.81 1881.56 1149.82C1878.28 1147.15 1877.77 1142.84 1876.57 1138.23C1866.98 1155.3 1849.38 1174.97 1832.3 1182.86C1829.44 1184.18 1827.23 1181.9 1824.86 1180.24C1818.67 1188.82 1811.72 1208.23 1803.96 1217.59C1763.67 1266.19 1703.08 1315.38 1654.08 1350C1660.91 1350.63 1670.89 1349.37 1678.31 1349.18C1700.17 1348.61 1713.98 1358.56 1733.19 1369.42C1734.53 1368.28 1736.09 1366.96 1737.87 1365.45C1736.87 1352.04 1728.05 1338.58 1733.7 1324.78C1742.23 1303.95 1764.77 1293.97 1782.87 1304.01C1794.93 1310.71 1795.12 1320.25 1803.52 1330.28C1811.72 1340.07 1826.93 1343.41 1830.43 1358.49C1833.27 1373.66 1833.55 1397.49 1826.78 1411.2C1816.34 1432.39 1799.94 1429.23 1784.48 1418.78C1783.57 1421.95 1782.51 1425.11 1781.51 1428.24C1810.48 1489.53 1825.48 1558.46 1825.08 1628.45C1824.51 1689.58 1814.42 1733.38 1799.35 1790.56C1772.18 1893.6 1736.14 1970.16 1669.4 2046.07C1632.91 2087.8 1591.16 2122.78 1545.61 2149.81C1420.88 2224.27 1254.31 2247.84 1116.1 2245.81C877.823 2234.95 637.072 2177.65 465.126 1970.95C375.719 1863.47 292.614 1701.59 334.306 1546.68C343.138 1513.86 364.235 1487.59 384.589 1464.14L384.474 1462.51C383.049 1441.14 383.871 1427.92 396.232 1411.08C368.003 1359.92 390.755 1293.65 436.599 1268.96C409.628 1228.14 393.227 1194.06 373.224 1148.66C354.089 1105.23 346.497 1081.13 336.514 1033.36C327.434 1050.07 318.297 1066.52 311.018 1084.4C309.023 1089.3 307.029 1094.11 304.26 1098.49C300.201 1099.69 302.169 1099.79 298.153 1098C296.479 1096.12 295.972 1095.5 295.119 1092.84C280.413 1046.97 286.951 995.43 303.218 951.743C295.997 958.912 284.541 980.011 276.992 970.43C276.001 965.517 276.686 961.14 278.293 956.551C320.419 836.252 445.976 785.187 550.003 788.69C578.392 789.645 615.658 794.028 641.742 804.768C636.431 788.429 633.839 776.718 638.847 759.324C613.122 727.399 599.946 698.123 586.659 658.279C559.645 661.509 499.771 671.518 474.941 664.178C472.708 663.518 471.618 663.572 470.429 661.246C471.533 659.924 471.993 659.448 473.668 659.184C483.204 657.68 489.588 651.219 497.513 645.675C524.942 626.487 540.693 600.855 560.467 572.42C556.086 560.287 550.818 546.457 547.519 533.987C544.009 520.724 541.636 509.245 537.402 496.095C518.88 491.515 500.488 486.243 482.255 480.285C456.387 471.966 438.262 463.849 424.779 436.209L425.637 436.589C454.617 449.128 495.269 429.923 521.798 415.952C514.908 386.519 508.137 343.724 508.962 313.626C509.355 299.312 509.367 251.135 519.003 241.06C521.533 238.416 527.367 238.033 530.748 238.311C583.427 242.64 627.201 269.383 672.358 298.606C680.14 303.642 698.722 313.442 703.901 320.232C720.525 313.99 738.181 308.781 755.107 303.493C727.818 278.068 712.695 224.098 705.929 185.263C703.884 173.524 701.128 114.962 708.308 107.358C716.505 106.189 716.093 138.05 739.215 141.777C792.453 150.357 845.762 155.138 896.354 179.019C885.26 151.426 880.722 120.99 864.026 96.601C859.381 89.8162 850.288 79.6015 851.001 70.7377C852.44 67.4818 853.696 67.2496 856.578 65.7051ZM741.764 1158.93C753.073 1183.93 761.375 1215.91 753.924 1243.81C750.467 1256.75 743.526 1271.13 733.727 1278.61C743.16 1314.53 743.937 1347.47 733.886 1383.36C732.383 1388.73 729.301 1401.03 725.769 1404.77C723.862 1400.33 729.774 1356.04 730.407 1346.51C731.093 1337.25 731.22 1327.95 730.785 1318.66C727.61 1260.19 672.007 1132.37 603.924 1145.11C597.173 1146.37 590.011 1152.48 584.282 1157.03C598.688 1179.02 608.397 1212.73 606.953 1240.57C606.019 1258.57 602.784 1280.03 604.402 1297.8C607.306 1329.71 614.087 1346.46 611.425 1379.26L620.682 1382.29C622.557 1361.77 622.072 1339.22 621.986 1318.48C626.903 1337.92 636.679 1401.73 617.396 1412.87C613.392 1408.89 618.99 1408.56 611.072 1408.58C596.422 1408.62 588.765 1412.28 576.168 1415.5C562.191 1464.31 580.696 1509.02 608.381 1544.44C611.965 1549.02 622.644 1559.76 622.837 1564.59L624.51 1566.63C613.715 1564.84 591.202 1536.76 584.469 1526.3C582.754 1523.62 581.059 1520.92 579.385 1518.21C561.297 1534.99 509.135 1542.14 486.234 1537.63C444.583 1529.44 409.294 1526.49 389.422 1477.91C358.933 1517.12 343.684 1540.67 337.469 1595.11C335.264 1614.18 334.513 1633.43 335.227 1652.65C338.607 1737.38 382.665 1834.79 427.481 1901C450.114 1933.8 475.052 1964.34 502.034 1992.31C542.432 2035.1 587.059 2072.12 634.971 2102.59C668.665 2123.63 704.948 2140.2 740.853 2155.41C885.268 2216.58 1047.47 2236.52 1200.41 2228.57C1274.48 2224.72 1335.88 2213.96 1407.18 2192.22C1514.81 2160.67 1609.01 2102.89 1683.48 2005.46C1737.25 1935.11 1764.71 1867.17 1788.5 1777.89C1816.58 1672.5 1824.29 1585.08 1788.54 1479.33C1781.04 1457.43 1772.11 1434.81 1758.99 1416.61C1758.52 1433.83 1752.03 1473.1 1743.41 1486.34C1743.14 1483.2 1743.15 1483.91 1743.39 1480.88L1742.11 1481.76C1744.89 1458.09 1750.72 1428.79 1748.48 1404.75C1712.28 1368.2 1694.58 1361.9 1646.5 1366.62C1622.33 1368.99 1608.49 1383.84 1588.71 1398.65C1555.12 1423.56 1522.27 1449.81 1490.23 1477.36C1481.67 1484.76 1462.14 1504.71 1454.19 1509.14C1460.85 1532.45 1460.87 1549.02 1457.94 1573.48C1456.11 1588.74 1455.99 1603.47 1452.72 1618.76C1450.31 1629.91 1446.85 1640.71 1442.41 1650.97C1420.99 1700.91 1389.59 1748.86 1336.65 1735.78C1344 1742.14 1376.64 1768.99 1379.28 1775.62L1378.9 1777.77C1360.22 1776.16 1334.53 1747.13 1315.4 1737.73C1299.68 1730 1273.69 1733.62 1266.47 1730.03C1264.9 1727.18 1265.18 1727.17 1265.35 1723.69C1269.52 1717.32 1278.6 1718.25 1285.14 1718.52C1299.85 1705.6 1299.39 1703.56 1308.93 1686.41C1286.01 1701.15 1266.18 1712.26 1239.14 1713.15C1230.13 1713.44 1210.85 1706.8 1204.08 1714.91C1203.32 1718.85 1207.89 1731.2 1209.01 1736.81C1211.26 1748.13 1211.62 1754.1 1211.23 1765.58C1203.93 1748.22 1200.42 1730.09 1189.15 1716.87C1179.74 1705.84 1156.91 1700.84 1158.38 1688.22C1163.78 1685.4 1169.29 1689.12 1174.44 1691.69C1182.87 1682.05 1182.8 1678.37 1186.38 1665.03L1184.97 1657.33C1153.06 1685.81 1127.52 1695.12 1088.91 1680.81C1085.9 1683.97 1082.45 1687.86 1079.15 1690.47C1100.2 1698.84 1117 1703.25 1129.76 1726.25C1104.75 1716.66 1079.28 1696.49 1053.92 1702.45C1046.06 1680.31 1043.01 1655.8 1032.35 1634.34C1030.26 1630.14 1024.35 1615.44 1025.09 1610.67L1026.48 1609.82C1037.47 1617.56 1047.64 1651.88 1052.79 1665.86C1056.88 1659.8 1060.33 1654.33 1064.14 1648.03C1039.94 1567.69 1146 1538.55 1112.35 1458.57C1109.18 1456.88 1099.53 1451.62 1096.71 1451.14C1069.07 1446.41 1059.87 1462.43 1031.66 1444.39C1028.44 1460.62 1017.41 1519.4 1010.09 1531.58C1010.81 1480.36 1032.26 1428.06 1025.66 1374.16C1020.64 1333.14 1013.68 1297.69 988.837 1265.84C982.827 1257.93 959.368 1237.73 958.377 1229.72C965.404 1228.64 983.29 1243.18 988.83 1248.37C1010.92 1269.07 1021.78 1298.92 1028.68 1329.91C1032.26 1316.83 1037.67 1295.18 1042.2 1283.55C1043.29 1296.88 1043.46 1302.32 1041.56 1315.56C1067.43 1296.23 1094.41 1288.05 1124.77 1296C1140.68 1300.06 1155.15 1309.71 1166.23 1323.63C1168.94 1327.02 1176.75 1337.62 1179.52 1339.95C1206.22 1362.41 1239.82 1371.75 1269.41 1350.55C1275.05 1346.51 1281.6 1340.23 1286.69 1335.59C1289.5 1324.32 1300.22 1297.91 1304.85 1286.42C1290.31 1279.92 1281.48 1268.02 1272.44 1253.26C1246.25 1280.96 1211.86 1295.71 1176.52 1294.4C1171.99 1294.21 1169.13 1293.86 1165.48 1290.91C1161.99 1281.92 1169.14 1279.97 1173.89 1275.62C1199.07 1252.6 1200.48 1238.49 1197.61 1203.62C1185.48 1210.16 1181.25 1209.86 1167.93 1208.39C1145.91 1230.53 1122.14 1247.58 1095.07 1260.08C1081.72 1266.25 1076.75 1270.78 1067.03 1282.5C1062.63 1270.61 1056.45 1262.27 1050.69 1251.36C1042.9 1236.64 1034.55 1220.81 1028.48 1205.02C984.093 1221.42 935.309 1207.59 894.205 1184.65C861.524 1166.42 831.534 1131.66 795.39 1136.53C774.029 1138.14 758.287 1142 741.764 1158.93ZM1292.58 640.144C1275.51 647.832 1267.48 646.114 1250.63 638.193C1206.17 617.285 1168.37 575.8 1147.2 525.243C1134.82 545.517 1123.76 561.612 1107.43 577.921C1125.38 577.648 1159.97 583.065 1174.49 598.002C1178.1 601.717 1179.11 606.215 1180.17 611.476C1177.44 619.469 1165.21 613.839 1158.09 613.819C1128.06 613.738 1099.03 622.242 1073.11 640.48C1048.87 657.536 1026.49 681.567 1001.65 697.624C991.483 704.194 987.681 690.487 984.877 682.36C974.795 696.294 903.022 780.562 893.318 783.761C889.564 778.359 890.917 773.318 891.407 766.451C894.969 716.528 888.152 661.687 885.11 611.739C864.875 625.019 853.348 634.162 834.19 648.307C844.249 651.522 854.716 653.942 855.497 669.289C855.93 677.796 854.525 686.559 854.956 695.084C855.11 702.992 857.695 709.365 856.506 716.962C854.339 720.179 855.693 719.322 852.459 719.919C845.68 716.109 840.979 708.335 835.62 704.519C819.637 693.138 802.432 686.234 784.14 684.132C776.177 690.308 767.394 697.457 759.298 703.197C791.343 697.238 827.189 710.218 841.998 746.2C820.628 730.192 806.937 720.201 781.275 715.009C769.765 712.681 758.717 721.167 753.028 715.189C752.584 712.151 752.841 712.157 753.764 709.183C747.749 709.532 711.688 737.973 704.141 743.802C706.052 804.209 730.996 831.782 748.37 884.821C749.728 888.968 743.368 901.533 741.595 904.949C702.199 980.854 714.451 1029.45 771.981 1083.87C796.654 1107.21 822.675 1119.21 847.502 1138.22C925.767 1198.17 987.547 1219.34 1078.14 1173.42C1099.9 1162.43 1121.3 1151.03 1142.34 1138.27C1159.38 1127.94 1175.92 1115 1192.92 1104.85C1225.83 1085.22 1258 1066.04 1289.47 1043.37C1308.61 1029.58 1330.69 1020.41 1347.77 1002.26C1375.73 972.979 1396.79 935.165 1398.94 890.377C1400.24 863.171 1385.19 847.5 1375.73 824.684C1387.29 833.905 1397.62 843.961 1403.78 859.04C1418.67 895.473 1403.84 943.651 1385.48 974.56C1373.53 994.647 1358.67 1012.15 1341.57 1026.29C1366.33 1030.17 1380.62 1042.28 1390.64 1069.1C1422.22 1029.78 1422.38 1005.14 1405.75 956.964C1417.18 970.835 1420.76 977.493 1426.55 995.52C1485.87 990.273 1526.33 955.43 1555.24 896.447C1530.26 881.007 1498.05 881.622 1471.65 891.001C1466.31 892.964 1461 895.02 1455.71 897.169C1474.75 879.141 1489.01 873.318 1514.06 871.562C1534.55 853.914 1547.88 837.319 1563.29 813.84C1497.16 816.954 1462.48 801.945 1402.03 843.446C1421.52 805.216 1458.76 801.552 1492.92 796.967C1504.5 795.412 1526.55 783.292 1526.72 767.134C1523.07 758.723 1512.68 763.288 1506.15 765.485C1486.27 772.186 1468.74 771.269 1448.56 770.89C1479.79 754.348 1542.35 753.763 1554.47 708.693L1553.83 707.467C1542.47 686.093 1522.18 688.952 1503.74 691.009C1494.92 691.993 1483.59 702.581 1476.45 700.776L1475.2 698.757C1477.39 691.522 1506.32 659.607 1513.72 647.479C1543.46 598.769 1545.02 540.373 1536.41 483.297C1531.48 449.718 1526.51 420.832 1512.82 389.107C1483.97 323.405 1442.69 260.189 1397.71 208.348C1377.72 185.312 1349.37 162.105 1326.92 142.192C1309.07 126.367 1274.87 95.5904 1251.62 98.2632C1234.62 99.945 1202.65 137.942 1191.77 153.258C1139.43 226.92 1126.85 330.654 1134.9 423.568C1140.87 492.449 1161.04 549.507 1207.51 594.807C1221.24 608.199 1249.68 625.697 1266.96 633.227C1274.97 636.716 1281.57 634.968 1292.58 640.144ZM1545.45 939.053C1554.55 935.187 1597.45 920.279 1604.7 924.668C1600.55 930.575 1538.42 952.39 1528.01 961.879C1516.85 972.058 1498.47 984.157 1485.85 991.604C1474.72 1012.31 1459.06 1026.15 1445.49 1044.4C1427.62 1068.41 1410.18 1095.27 1395.54 1122.08C1375.31 1159.11 1356.52 1193.98 1340.12 1233.5C1331.7 1253.83 1323.42 1274.25 1315.3 1294.75C1303.29 1324.99 1295.87 1350.6 1270.01 1367.41C1268.28 1368.54 1264.38 1371.11 1263.82 1373.18C1274.01 1378.69 1283.19 1384.55 1290.5 1394.89L1290.7 1396.87C1283.93 1397.71 1266.49 1388.34 1259.07 1385.87C1250.4 1382.98 1240.01 1382.2 1232.1 1379.64C1200.98 1369.55 1176.85 1361.03 1156.73 1330.57C1145.83 1314.08 1113.38 1304.49 1096.62 1307.19C1070.15 1310.15 1052.25 1324.89 1031.29 1341.65C1038.04 1373.44 1038.39 1400.57 1033.64 1432.61C1054.05 1447.27 1087.97 1435.9 1111.43 1430.33C1115.27 1432.27 1118.98 1434.12 1122.74 1436.3C1149.34 1481.87 1131.35 1516.96 1105.78 1556.6C1086.61 1586.3 1056.92 1617.5 1080.04 1657.23C1086.75 1669.04 1093.99 1666.13 1103.65 1671.39C1115.13 1677.64 1143.49 1669.5 1154.41 1662.84C1189.08 1641.15 1219.21 1602.38 1231.77 1558.59C1237.81 1537.51 1245.94 1499.94 1238.72 1479.06C1231.74 1458.9 1190.41 1462.89 1178.07 1457.31C1179.21 1454.5 1182.21 1451.17 1184.84 1450.77C1258.52 1439.53 1260.03 1488.59 1246.43 1556.24C1245.44 1561.13 1246.46 1572.04 1245.1 1577.53C1242.69 1588.43 1234.32 1601.72 1227.25 1609.29C1217.04 1620.2 1208.23 1633.8 1198.1 1644.33L1194.48 1659.87C1211.85 1710.72 1238.48 1704.55 1278.11 1689.37C1295.05 1682.88 1317.84 1661.31 1330.2 1646.55C1362.46 1607.02 1384.41 1548.3 1342.47 1507.23C1328.39 1493.44 1296.98 1486.46 1279.82 1492.87L1277.97 1492.4C1283.17 1471.55 1316.23 1476.54 1329.57 1482.37C1343.93 1488.65 1351.65 1496.88 1361 1510.49C1402.55 1571 1357.58 1644.5 1313.4 1682.21C1317.56 1709.97 1340.49 1731.14 1364.45 1723.07C1410.43 1707.6 1449.91 1625.56 1442.54 1571.03C1438.42 1540.57 1392.95 1521.76 1394.17 1507.44C1398.26 1505.46 1402.49 1506.39 1406.42 1508.77C1425.88 1520.54 1438.1 1531.83 1449.19 1553.25C1449.45 1523.6 1445.38 1510.23 1438.66 1481.85C1443.25 1486.73 1445.85 1489.62 1450.01 1495.11C1540.8 1407.88 1644.26 1346.69 1738.24 1265.14C1758.89 1247.23 1779.06 1229.04 1796.2 1206.56C1810.64 1187.91 1814.26 1170.77 1824.17 1153.22C1823.42 1138.7 1821.85 1121.2 1821.73 1106.99C1830.48 1125.88 1834.65 1143.12 1835.64 1164.72C1853.94 1149.68 1866.87 1139.93 1873.37 1114.57C1869.32 1096.69 1864.38 1076.01 1861.99 1057.75C1875.66 1080.59 1882.28 1104.46 1887.85 1131.29C1916.16 1098.79 1910.33 1072.46 1903.33 1031C1899.21 1028.06 1889.63 1022.21 1888.51 1016.76C1894.66 1011.54 1920.65 1025.61 1927.02 1029.16C1914.41 971.102 1875.78 913.795 1831.49 883.945C1780.41 849.515 1711.61 836.566 1654.17 825.983C1646.44 824.558 1621.68 819.736 1615.06 820.35C1599.93 821.658 1586.43 822.773 1571.46 825.655C1558.93 842.933 1548.03 858.194 1532.7 872.477C1542.85 875.519 1572.41 883.941 1566.58 901.313C1563.26 911.191 1551.62 930.78 1545.45 939.053ZM335.406 1021.66C332.946 1001.36 335.257 979.402 348.127 963.975C347.865 979.734 344.739 1003.65 346.011 1017.39C352.436 1086.8 396.416 1181.99 429.924 1239.1C435.094 1248.27 440.13 1257.54 445.031 1266.91C450.894 1267.19 454.037 1267.33 459.934 1268.6C461.136 1188.05 494.472 1139.54 566.398 1140.03C571.323 1143.29 573.077 1144.54 577.429 1148.72C598.002 1130.25 609.203 1125.42 635.052 1135.87C646.775 1125.68 653.276 1125.65 667.695 1123.47C665.244 1108.22 659.191 1047.07 656.262 1039.96C644.885 1033.47 622.201 1053.13 613.687 1048.53C609.686 1043.64 607.494 1021.5 607.68 1014.03C608.475 982.214 622.28 965.644 645.154 951.868C627.248 936.079 619.859 919.14 610.908 895.622C608.612 889.59 606.68 884.601 608.251 878.086C613.128 872.041 619.68 876.277 626.038 875.187C637.386 873.24 648.857 867.675 659.434 862.701C641.634 851.253 636.757 839.77 641.892 818.75C642.01 818.267 639.417 816.875 640.081 817.096C619.808 810.335 598.571 808.596 577.73 805.445C569.436 804.192 560.192 803.124 551.818 803.406C460.353 805.896 388.062 824.951 321.314 905.311C313.582 914.62 309.239 921.864 303.252 932.788C309.447 928.701 325.091 916.791 329.938 926.068C329.362 929.884 330.22 927.36 328.28 929.794C302.453 962.193 293.117 1032.76 300.93 1074.51C311.002 1052.41 317.609 1036.48 335.406 1021.66ZM568.158 1510.23C570.839 1507 571.895 1507 571.904 1503.73C559.763 1506.92 538.987 1521.09 533.8 1495.43C532.949 1491.22 536.356 1486.27 538.37 1482.64C530.788 1481.21 521.595 1481.98 513.219 1480.58C478.892 1474.84 455.398 1469.85 426.85 1445.12C415.997 1435.72 411.015 1432.75 401.924 1420.01C386.983 1451.66 396.079 1488.66 423.763 1505.31C449 1520.49 485.161 1525.88 513.301 1525.41C523.309 1524.94 547.8 1518.2 557.645 1514.7C561.213 1513.42 564.722 1511.93 568.158 1510.23ZM726.367 1255.14L728.434 1260.68C730.254 1260.93 730.999 1261.16 732.436 1259.12C752.984 1229.93 747.067 1184.03 725.986 1157.59C714.907 1143.69 691.285 1132.13 675.406 1136.37C665.185 1137.61 656.403 1138.81 646.275 1141.09C686.322 1166.33 708.926 1206.62 726.367 1255.14ZM674.788 710.68C677.787 701.775 703.375 630.729 703.676 627.627C680.063 640.217 650.609 641.887 625.968 649.933C612.195 654.43 634.834 685.217 640.392 690.315C655.265 701.427 657.978 704.094 674.788 710.68ZM1820.74 1380.5C1818.36 1386.25 1815.09 1391.85 1817.56 1398.17L1819.06 1397.88C1820.71 1393.92 1822.16 1366.45 1821.37 1362.33C1820.17 1356.11 1803.92 1347.55 1799.98 1343.68C1786.66 1329.17 1787.97 1313.99 1765.37 1312.73C1745.15 1322.83 1737.74 1334.34 1747.64 1359.38C1748.14 1360.66 1748.65 1361.92 1749.17 1363.18C1748.29 1356.14 1744.77 1334.66 1748.69 1329.2C1754.48 1321.15 1777.49 1323.59 1784.02 1330.12C1788.19 1334.29 1791.21 1344.88 1793.18 1350.81C1798.85 1352.7 1803.85 1354.06 1809 1357.51C1817.52 1366.4 1816.95 1368.29 1820.74 1380.5ZM670.204 756.119C723.577 710.414 784.277 673.682 837.741 627.22C853.879 613.196 870.389 605.11 884.965 587.993C885.798 513.791 911.168 439.545 973.77 410.032C980.079 407.058 987.599 404.752 994.166 402.497C943.613 440.901 912.45 471.247 899.164 543.832C888.474 602.24 900.452 656.952 900.725 715.697C900.801 732.112 902.376 745.907 900.648 762.589C909.77 750.169 926.225 732.522 937.043 721.551C965.2 693.267 988.184 662.213 1005.6 623.506C1016.02 600.353 1020.1 598.352 1018.79 570.897C1016.96 532.275 1016.78 483.835 1040.76 453.706C1056.5 433.934 1075.93 421.71 1098.14 420.05L1100.11 419.909C1090.42 427.263 1080.1 433.122 1070.86 439.916C1052.98 453.067 1034.86 478.394 1031.25 503.472C1026.11 539.168 1028.59 582.43 1030.64 618.443C1065.6 596.76 1120.47 563.394 1133.23 515.918C1141.32 485.86 1128.99 466.101 1126.28 438.58C1119.67 371.585 1120.06 294.7 1140.68 230.9C1123.11 200.017 1118.98 193.624 1088.73 180.783C1098.34 203.711 1102.86 226.137 1096.25 251.382C1092.12 228.07 1089.13 198.867 1075.49 180.29C1027.36 114.725 950.485 98.0007 881.673 81.4288C876.244 80.1203 870.256 79.3471 864.827 78.5567C890.97 116.347 892.04 142.1 907.577 185.392C950.92 214.193 977.443 248.189 968.649 310.11C958.555 260.529 955.243 233.763 914.715 204.633C879.891 179.603 841.215 172.947 801.567 164.125C771.933 157.531 738.333 163.411 714.161 139.709C713.719 196.65 723.144 236.754 756.935 281.241C762.243 288.228 769.078 292.32 774.546 298.398C825 286.37 879.511 286.587 911.041 341.356C900.8 334.161 884.76 321.589 874.449 316.604C836.386 298.202 795.645 305.796 757.427 316.847C720.108 327.351 683.654 341.672 648.491 359.644C626.424 371.253 604.548 383.349 582.874 395.926C544.364 418.391 495.689 450.584 452.569 453.448C496.929 480.514 576.459 491.359 625.905 491.649C640.185 478.884 652.578 468.042 668.564 457.864C709.977 431.5 767.485 417.54 814.532 417.832C799.351 421.057 774.328 425.442 760.299 429.989C683.848 454.766 627.935 497.34 578.585 570.188C556.095 603.386 538.053 631.206 507.803 654.867C527.175 650.867 550.431 649.649 570.408 646.719C625.86 638.587 666.81 627.969 716.975 598.93C748.861 535.749 796.478 492.345 857.417 472.547C848.789 478.792 841.085 484.315 832.116 489.973C809.886 506.675 785.187 525.367 765.857 546.456C716.729 600.057 696.685 684.85 670.204 756.119ZM673.545 1092.09C674.275 1102.15 675.124 1112.2 676.09 1122.23C700.92 1121.63 714.193 1128.04 733.347 1146.76C745.895 1133.3 762.124 1125.7 778.962 1123.16C784.941 1122.75 791.274 1122.2 797.225 1121.96C774.62 1107.08 741.399 1114.3 715.406 1108.08C698.826 1104.12 688.562 1097.28 673.545 1092.09ZM693.475 1066.51C697.878 1060.84 702.806 1054.19 707.343 1048.8C692.925 1043.46 682.647 1041.67 667.641 1039.3C670.997 1053.44 671.355 1066.35 671.969 1080.96C681.7 1076.34 685.733 1075.01 693.475 1066.51ZM615.157 502.717C588.423 503.54 573.842 501.488 547.32 497.41C551.003 508.88 552.814 519.9 555.785 531.512C558.72 542.979 562.031 554.471 565.086 565.934C572.431 555.268 579.978 544.794 587.723 534.52C596.952 523.069 605.361 513.535 615.157 502.717ZM1758.16 1363.54L1764.04 1367.58C1769.48 1362.07 1774.83 1354.43 1782.41 1358.66C1784.81 1364.71 1778.01 1369.02 1774.31 1374.12C1781.69 1376.73 1792.93 1375.27 1796.6 1381.54L1796.49 1384.52C1793.87 1386.75 1791.51 1386.47 1788.19 1386.74L1788.02 1388.46C1788.73 1393.14 1789.31 1397.08 1790.33 1401.67C1794.73 1404.09 1803.01 1402.8 1806.59 1399.03C1809.31 1365.68 1815 1375.07 1789.65 1361C1779.75 1355.51 1788.23 1335.8 1763.1 1335.81C1761.88 1335.82 1760.66 1335.86 1759.44 1335.93L1754.23 1337.04C1752.16 1342.75 1756.9 1354.64 1758.16 1363.54ZM1064.28 1680.06C1069.22 1678.71 1074.52 1677.1 1079.5 1676.15C1072.02 1668.17 1073.22 1666.68 1067.63 1658.65C1065.12 1666.29 1056.82 1676.37 1056.93 1680.81C1060.37 1682.3 1059.87 1681.54 1064.28 1680.06ZM670.474 723.118C638.991 710.209 618.416 693.326 612.766 653.409L611.633 653.136L596.794 656.321C607.113 686.793 616.574 709.704 634.519 735.936C640.588 744.808 649.429 754.313 654.667 762.588L655.442 762.218C661.178 749.581 666.2 736.52 670.474 723.118ZM1191.44 1679.63L1191.18 1681.08C1189.72 1688.74 1186.34 1693.67 1186.56 1698.55C1190.27 1703.34 1194.67 1703.47 1200.38 1704.75L1204.98 1702.34C1203.08 1698.76 1200.9 1697.61 1199.05 1694.67C1196.36 1690.41 1193.6 1684.35 1191.44 1679.63ZM558.828 1445.36C560.856 1443.31 560.641 1443.09 561.513 1440.03C558.911 1433.08 550.675 1433.53 544.656 1430.98C542.73 1435.55 542.477 1435.8 542.534 1440.74C546.073 1447.84 552.478 1446.05 558.828 1445.36ZM1433.95 1007.28C1433.58 1024.12 1426.48 1042.19 1418.28 1055.83L1419.08 1056.66C1433.82 1035.39 1443.98 1021.44 1462.12 1003.19L1461.59 1001.9C1451.49 1004.32 1444.3 1005.91 1433.95 1007.28ZM1310.45 1704.74C1307.25 1711.5 1306.03 1713.53 1302.04 1719.57C1308.44 1720.46 1310.54 1720.81 1316.88 1723.02L1320.02 1722.99C1319.71 1719.56 1312.72 1710.17 1310.45 1704.74ZM690.751 325.603C651.676 301.763 611.495 272.807 568.778 259.734C556.294 255.913 539.347 254.046 526.23 252.351C514.481 310.669 520.729 354.605 529.57 411.757C561.421 393.527 592.471 375.113 624.57 357.359C617.334 345.394 614.626 342.605 607.401 332.998C600.242 323.479 561.495 290.264 561.01 282.905C563.906 282.784 562.464 282.612 565.351 284.52C592.393 303.62 615.441 320.905 630.067 354.39C649.9 343.699 670.15 334.093 690.751 325.603ZM565.47 1490.15C558.803 1490.9 551.751 1491.33 545.351 1493.39L544.304 1495.1C546.832 1497.79 545.367 1496.69 549.319 1497.6C556.972 1501.18 560.992 1497.75 566.9 1491.74L566.959 1489.99L565.47 1490.15ZM1068.31 1260.48L1069.58 1259.47C1080.86 1250.57 1093.32 1246.62 1105.26 1239.85C1141.72 1219.15 1175.43 1189.68 1193.84 1146.48C1196.35 1140.58 1208.86 1115.39 1208.9 1110.58C1163.57 1138.05 1121.91 1169.71 1073.43 1190.55C1067.6 1193.06 1048.64 1197.66 1045.37 1203.79C1043.08 1213.72 1050.87 1230.06 1055.17 1238.44C1056.52 1241.07 1057.9 1243.67 1059.31 1246.26C1062.19 1250.77 1065.64 1255.89 1068.31 1260.48ZM601.967 1399.27L615.329 1396.35L618.518 1396.75L619.302 1395.29C617.111 1391.27 612.707 1390 608.795 1388.45C606.639 1391.94 604.28 1395.97 601.967 1399.27ZM771.799 1100.07C746.082 1075.96 718.704 1045.57 710.6 1006.67C700.993 960.55 719.86 923.424 738.391 883.878C723.835 847.91 695.494 796.202 695.096 757.425L695.015 752.749L693.778 751.857C683.61 760.671 673.553 769.659 663.61 778.818C658.051 784.011 654.168 791.523 647.334 790.153C641.187 807.867 680.499 814.828 686.67 824.637L685.984 826.275C675.702 829.132 654.014 821.938 649.516 830.072C643.472 841.004 662.987 853.03 670.092 857.43C676.138 854.239 690.291 845.886 695.752 844.453C693.177 854.976 675.789 866.652 667.742 871.877C651.119 882.672 637.738 887.459 618.996 889.144C629.57 918.274 633.728 929.037 655.716 947.145C664.536 944.149 686.2 935.821 694.399 936.507L695.24 937.832C688.238 955.88 613.002 950.461 619.331 1034.02L626.229 1031.2C655.383 1019.78 684.985 1025.63 712.499 1040.9C716.26 1042.99 715.205 1041.77 716.695 1045.78C715.113 1058.59 700.68 1078.72 691.692 1086.15C720.172 1098.4 741.551 1099.17 771.799 1100.07ZM1763.4 1388.38L1762.47 1390.2L1761.54 1390.12C1758.23 1389.88 1758.9 1389.52 1755.97 1390.89C1756.91 1393.19 1769.92 1408.41 1773.53 1413.62L1774.63 1414.69C1777.2 1406.69 1780.8 1399.14 1778.68 1391.2C1774.79 1386.29 1768.62 1387.47 1763.4 1388.38ZM452.034 1280.35C435.941 1282.25 423.969 1291.32 414.296 1305.73C388.949 1343.5 387.565 1394.55 422.565 1425.03C447.791 1447 467.589 1459.06 498.834 1463.37C516.387 1466.18 524.173 1468.47 543.165 1467.15C551.61 1465.4 553.961 1465.89 559.74 1458.32L559.736 1456.59C548.765 1455.84 533.315 1452.7 533.755 1435.42C533.934 1428.42 538.656 1416.8 545.797 1419.71C551.353 1421.49 556.959 1426.73 562.304 1423.65L564.027 1416.06C556.51 1412.44 551.34 1412.75 541.881 1407.79C512.047 1392.14 483.711 1364.7 470.889 1328.99C467.257 1318.82 464.476 1308.27 462.584 1297.49C461.645 1292.35 461.246 1282.12 457.865 1279.88L452.034 1280.35ZM552.613 1150.7C538.047 1153.34 526.198 1159.36 513.053 1167.3C471.665 1192.29 466.376 1253.03 473.348 1301.2C477.977 1333.19 498.478 1360.52 520.977 1378.93C525.86 1382.98 530.899 1386.77 536.078 1390.29C558.759 1402.58 583.957 1412.28 598.526 1379.3C603.726 1367.53 601.367 1341.87 598.286 1329.66C588.782 1291.96 594.553 1260.67 595.544 1223.03C595.773 1214.35 590.04 1197.6 587.462 1189.33C581.313 1173.04 569.9 1149.48 552.613 1150.7ZM1326.73 1036.96C1289.26 1059.64 1250.24 1088.19 1212.98 1108.04C1213.56 1138.13 1192.87 1177.09 1176.67 1199.48C1208.95 1188.06 1220.98 1154.12 1244.43 1128.04C1244.54 1130.76 1244.91 1136.63 1244.04 1138.84C1237.4 1155.78 1227.56 1170.97 1217.03 1184.42C1215.47 1186.43 1213.88 1188.39 1212.24 1190.32C1218.73 1206.84 1217.09 1223.71 1211.78 1240.28C1207.01 1254.77 1199.62 1267.88 1190.1 1278.72C1214.5 1275.09 1237.25 1268.64 1256.41 1249.42C1279.55 1226.73 1291.98 1200.79 1308.28 1171.59L1308.92 1171.74C1306.17 1185.12 1309.58 1185.73 1302.8 1199.75C1296.24 1213.31 1291.19 1228.79 1287.75 1243.83C1295.14 1255.43 1301.28 1261.93 1310.58 1271.58C1336.68 1206.65 1362.59 1146.23 1399.17 1088.13C1401.09 1085.08 1416.39 1060.65 1416.53 1059.09C1412.42 1063.17 1407.52 1069.18 1403.58 1072.54C1397.12 1078.03 1395.81 1087.58 1387.92 1087.75C1386.26 1086.7 1383.85 1085.22 1383.58 1082.64C1380.21 1050.72 1352.36 1035.47 1326.73 1036.96Z"/><path transform="scale(0.412903 0.412903)" d="M436.658 1563.78C441.34 1562.96 448.228 1565.95 446.615 1571.23C432.986 1615.9 428.922 1662.68 440.277 1708.73C441.922 1715.4 450.663 1736.79 448.054 1741.9L445.782 1742.22C437.97 1739.19 428.736 1727.58 422.427 1720.55C395.099 1687.25 363.231 1624.48 382.33 1577.25C385.302 1569.9 427.933 1565.3 436.658 1563.78ZM389.499 1588.97C386.475 1626.08 394.406 1649.68 411.347 1681.33C416.46 1690.31 419.74 1695.77 425.639 1703.99C419.766 1670 418.789 1643.69 423.328 1608.99C424.11 1603.01 429.492 1582.61 429.334 1579.48C414.66 1582.97 404.546 1583.94 389.499 1588.97Z"/><path transform="scale(0.412903 0.412903)" d="M939.137 1327.49C947.821 1324.19 954.759 1337.28 958.96 1344.29L959.03 1345.29C961.724 1388.29 942.391 1430.3 924.766 1466.94C923.613 1469.34 920.75 1468.99 918.881 1468.9C915.539 1466.19 916.966 1467.88 914.966 1463.08C919.616 1438.54 918.892 1397.28 908.091 1374.32C903.497 1364.55 889.916 1353.83 889.516 1344.08C894.348 1339.28 930.774 1329.84 939.137 1327.49ZM902.632 1348.04C917.889 1366.71 924.91 1377.72 928.025 1404.75C928.723 1412.4 929.31 1418.92 929.525 1426.62C936.187 1408.98 956.561 1354.94 942.556 1339.12L940.044 1338.58C925.805 1344.78 917.877 1347.23 902.632 1348.04Z"/><path transform="scale(0.412903 0.412903)" d="M1619.41 1434.68C1628.35 1434.25 1672.61 1448.77 1665.92 1465.53C1655.33 1492.03 1626.72 1520.53 1606.06 1536.06C1599.22 1540.87 1580.73 1556.74 1573.41 1551.34C1572.97 1544.96 1586.36 1527.57 1590.16 1521.57C1602.68 1501.83 1607.21 1478.23 1613.25 1455.19C1614.95 1448.72 1616.59 1440.27 1619.41 1434.68ZM1599.02 1527.58C1605.01 1522.82 1610.98 1518.31 1616.49 1512.81C1631.22 1497.77 1647.97 1480.48 1655.62 1459.44C1647.13 1452.59 1634.99 1448.53 1625.09 1444.51C1620.22 1455.63 1618.96 1468.74 1616.16 1480.94C1612.23 1498.02 1606.81 1512.46 1599.02 1527.58Z"/><path transform="scale(0.412903 0.412903)" d="M889.146 1245.35C908.64 1241.01 922.357 1261.06 933.07 1276.7C936.846 1282.21 941.398 1288.01 941.356 1295.38C937.632 1302.03 923.939 1301.71 917.103 1304.31C912.568 1306.03 908.933 1307.95 904.628 1310.21C904.227 1310.43 903.825 1310.66 903.424 1310.88L901.684 1311.8C887.027 1319.61 880.85 1288.68 871.758 1279.32C866.371 1273.77 860.449 1267.78 855.573 1261.69C854.593 1257.55 854.549 1259.6 856.002 1255.37C863.334 1247.76 879.328 1246.74 889.146 1245.35ZM869.542 1261.98C883.714 1275.13 887.278 1284.27 897.682 1301.69L904.605 1298.02C913.246 1293.38 917.101 1291.5 926.826 1289.54C918.549 1277.18 912.787 1266.72 901.578 1257.82C898.343 1257.58 893.175 1256.85 890.19 1257.5C881.104 1258.62 878.148 1259.04 869.542 1261.98Z"/><path transform="scale(0.412903 0.412903)" d="M1646.44 1376.83C1656.68 1376.13 1696.54 1389.99 1699.75 1403.02C1701.62 1410.65 1687.01 1438.5 1681.98 1443.82C1679.64 1446.3 1678.79 1445.79 1675.86 1445.31C1658.54 1427.64 1640.57 1422.19 1618.32 1419.34C1625.79 1399.99 1631.36 1389.21 1646.44 1376.83ZM1634.89 1411.41C1646.21 1412.93 1665.44 1421.31 1675.13 1428.66L1676.89 1429.05C1681.81 1423.02 1684.68 1414.05 1687.34 1406.36C1672.47 1396.43 1667.79 1391.59 1650.26 1389.75C1643.39 1397.19 1639.75 1401.75 1634.89 1411.41Z"/><path transform="scale(0.412903 0.412903)" d="M1237.37 160.913C1242.01 166.738 1223.77 201.802 1224.22 213.123C1224.47 219.647 1217.84 258.04 1220.72 263.034C1221.69 263.141 1224.54 263.456 1225.32 262.635C1236.48 250.08 1244.67 230.29 1248.72 212.981C1250.97 203.351 1246.67 186.931 1255.4 181.599C1263.44 181.899 1280.26 200.002 1285.87 207.009C1307.74 234.303 1313.69 255.455 1312.99 291.6C1319.25 283.415 1338.84 255.713 1337.76 245.894C1337.36 242.29 1338.66 240.867 1340.17 239.11C1350.49 235.354 1364.3 255.165 1369.91 264.071C1391.99 299.148 1403.72 326.026 1399.16 369.91C1417.09 385.65 1421.62 405.541 1421.3 430.602C1421.05 450.419 1417.72 459.778 1408.31 476.021C1413.12 472.582 1415.73 470.432 1420.18 466.522C1424.69 462.55 1433.28 449.621 1437.55 448.482C1452.42 453.237 1454.1 510.18 1452.65 525.941C1466.49 507.277 1472.71 502.878 1483.42 480.801C1469.67 546.446 1443.26 574.615 1404.36 619.205C1374.63 653.284 1365.19 689.25 1370.79 736.9C1371.47 742.657 1374.78 754.262 1372.32 758.831C1359.69 759.598 1359.27 716.161 1358.89 706.092C1356.62 646.337 1393.45 610.619 1426.52 571.573C1417.82 576.583 1396.84 589.802 1388.16 581.927L1390.96 580.606C1388.59 579.398 1389.02 579.805 1387.01 578.015C1403.69 573.507 1426.12 554.199 1434.89 536.786C1445.57 515.587 1442.42 491.518 1437.13 469.17C1423.6 484.287 1413.99 489.281 1396.19 494.71C1387.08 497.486 1379.78 503.184 1369.32 501.163C1371.15 499.147 1370.24 500.2 1372.05 497.996L1368.15 497.087C1381.7 485.145 1388.39 475.715 1397.68 459.15C1410.45 432.275 1417.74 406.549 1397.28 381.24C1392.59 399.001 1376.78 441.435 1359.77 446.465L1359.28 445.183L1361.74 441.579C1358.93 438.341 1370.77 419.805 1373.14 414.73C1400.76 355.702 1390.98 303.914 1349.37 257.626C1348.61 261.665 1347.58 265.629 1346.3 269.485C1339.15 290.671 1325.98 310.446 1307.68 319.502C1303.49 333.892 1298.59 347.775 1291.41 360.565L1289.89 360.692C1287.81 354.79 1292.72 342.436 1294.4 336.063C1310.87 273.535 1308.47 238.357 1260.86 196.332C1259.99 235.549 1242.22 270.026 1212.62 288.616C1233.43 393.926 1291.89 463.083 1336.65 554.185C1341.46 563.971 1356.41 601.349 1351.63 611.404C1348.81 612.218 1350.12 612.419 1347.56 610.721C1338.41 586.273 1330.19 561.905 1317.6 539.374C1276.34 465.53 1225.51 394.205 1205.71 307.437C1202.48 293.312 1198.42 274.133 1199.38 259.361C1201.77 222.606 1213.78 186.226 1237.37 160.913Z"/><path transform="scale(0.412903 0.412903)" d="M778.057 732.969C836.176 728.479 868.635 792.096 873.471 852.267C927.426 840.999 981.755 837.212 1025.84 882.474C1026.41 884.396 1027.07 886.236 1027.79 888.089C999.208 874.422 988.083 867.899 956.599 860.744C926.457 855.845 891.883 861.288 862.333 869.194C838.371 875.605 813.371 889.409 790.173 899.827C792.059 896.574 796.234 889.347 798.598 886.852C799.94 885.435 801.994 887.257 804.24 882.87C800.652 881.07 795.805 880.056 791.944 878.587C767.253 869.066 753.674 844.685 739.887 820.866C727.244 799.024 717.711 787.957 719.075 760.511C733.747 743.15 757.949 736.799 778.057 732.969ZM762.033 834.306C761.418 828.88 760.707 824.211 760.853 818.726C765.842 783.801 782.953 757.988 814.924 753.715C802.772 749.578 793.535 746.364 780.72 747.473C767.417 752.54 751.937 757.275 745.028 773.011C735.896 793.81 752.109 817.984 762.033 834.306ZM814.557 801.376C834.258 797.262 835.165 770.434 817.368 774.296C793.841 777.225 794.325 796.845 814.557 801.376ZM791.029 799.075C786.11 802.479 784.165 803.466 780.174 808.378L779.812 810.415L780.412 810.839C783.385 808.513 790.775 803.492 792.032 800.268L791.029 799.075ZM792.033 816.413C786.786 821.391 776.884 829.117 773.118 833.764C773.158 836.358 772.761 835.281 774.154 837.066C779.316 830.743 790.968 821.756 792.49 817.966L792.033 816.413ZM855.393 843.143C854.356 848.432 853.448 853.594 852.008 858.754L864.483 854.751L867.925 853.582L868.366 851.776C863.877 849.058 859.417 846.679 855.393 843.143ZM853.136 823.842L854.935 824.843C856.804 822.821 856.282 823.618 857.425 821.085C860.109 821.289 859.41 821.152 861.9 821.99C862.821 816.125 857.109 803.829 851.905 801.86C852.889 808.148 853.705 807.477 851.802 812.101C847.77 816.085 843.628 816.359 838.485 819.166C843.481 821.193 847.892 823.407 853.136 823.842ZM792.618 861.63C795.831 862.814 799.152 864.479 802.345 864.313C796.274 854.249 795.299 845.413 791.656 834.16C786.426 840.545 784.302 842.091 778.097 847.051C782.856 853.224 786.032 858.378 792.618 861.63Z"/><path transform="scale(0.412903 0.412903)" d="M792.033 816.413L792.49 817.966C790.968 821.756 779.316 830.743 774.154 837.066C772.761 835.281 773.158 836.358 773.118 833.764C776.884 829.117 786.786 821.391 792.033 816.413Z"/><path transform="scale(0.412903 0.412903)" d="M791.029 799.075L792.032 800.268C790.775 803.492 783.385 808.513 780.412 810.839L779.812 810.415L780.174 808.378C784.165 803.466 786.11 802.479 791.029 799.075Z"/><path transform="scale(0.412903 0.412903)" d="M1133.17 671.302C1163.83 668.006 1219.1 679.427 1227.99 722.233C1233.46 748.541 1228.71 771.332 1213.27 791.09C1211.94 792.79 1212.78 793.084 1210.64 795.145L1210.17 793.017L1208.57 794.52L1207.9 793.878C1207.59 782.275 1211.5 769.32 1212.13 758.451C1212.19 742.97 1203.3 725.344 1194.83 714.301C1155.26 662.701 1101.04 687.24 1063.02 726.811C1092.06 725.602 1117.35 742.525 1132.91 770.616C1143.02 790.125 1147.84 807.815 1147.12 830.568C1155.9 825.354 1184.71 802.553 1189.62 803.45C1191.14 807.159 1190.08 811.58 1187.86 814.617C1167.39 842.76 1131.22 850.225 1101.75 857.725C1087.48 861.067 1049.63 858.57 1039.02 846.803C1010.53 815.186 1019.83 759.941 1043.3 729.612C1069.88 695.269 1095.85 675.782 1133.17 671.302ZM1071.03 776.988C1095.99 760.732 1085.15 743.476 1062.39 746.093C1056.52 750.077 1042.86 759.213 1048.51 769.907C1052.15 776.787 1064.71 776.579 1071.03 776.988ZM1090.6 798.114C1099.39 799.114 1116.56 798.409 1122.36 801.663C1126.81 803.929 1132.61 806.652 1136.8 809.224C1135.67 804.368 1134.48 798.692 1133.12 793.989C1125.5 792.289 1116.73 786.403 1113.45 785.768C1112.59 789.73 1113.4 789.467 1111.12 790.949C1105.46 794.628 1096.96 796.416 1090.6 798.114ZM1032.88 793.833C1032.75 797.983 1032.18 802.393 1033.74 805.965L1034.74 806.88C1035.25 801.704 1035.87 799.734 1034.26 795.111L1032.88 793.833ZM1051.68 843.181C1051.34 841.921 1037.27 817.398 1036.44 816.749C1032.64 828.717 1042.53 839.511 1051.68 843.181ZM1112.09 808.3C1112.04 810.783 1111.44 814.26 1112.72 815.254C1120.92 821.654 1127.6 823.145 1136.26 829.994C1137.15 823.61 1138.09 823.997 1135.89 819.885C1130.04 815.831 1120.44 813.185 1112.09 808.3ZM1109.67 824.396C1106.08 834.277 1104.05 838.933 1098.34 847.619C1104.34 846.129 1110.44 844.724 1116.33 842.787L1130.28 838.002C1123.3 833.092 1116.85 828.905 1109.67 824.396Z"/><path transform="scale(0.412903 0.412903)" d="M1036.44 816.749C1037.27 817.398 1051.34 841.921 1051.68 843.181C1042.53 839.511 1032.64 828.717 1036.44 816.749Z"/><path transform="scale(0.412903 0.412903)" d="M1032.88 793.833L1034.26 795.111C1035.87 799.734 1035.25 801.704 1034.74 806.88L1033.74 805.965C1032.18 802.393 1032.75 797.983 1032.88 793.833Z"/><path transform="scale(0.412903 0.412903)" d="M1143.05 887.34C1158.84 888.511 1170.6 935.749 1165.51 941.191C1162.41 939.156 1160.73 934.457 1158.91 930.621C1147.61 953.097 1150.24 956.051 1143.54 979.894C1138.33 990.941 1135.73 1011.44 1130.12 1021.63C1114.85 1049.39 1098.52 1083.61 1079.79 1107.8C1069.41 1121.21 1060.31 1111.91 1052.59 1101.63C1002.72 1118.29 924.646 1112.6 871.641 1113.13C865.79 1120.95 861.824 1123.06 852.705 1119.26C839.703 1113.85 821.954 1099.86 815.731 1085.35C787.81 1073.43 769.68 1060.95 756.432 1029.45C748.272 1003.77 743.249 976.562 759.488 953.121C759.079 957.792 760.243 960.219 759.82 964.13C756.89 991.241 757.106 1012.77 770.642 1036.31C781.27 1054.8 806.391 1072.73 825.118 1075.67C840.482 1078.08 871.322 1075.13 886.836 1071.8C897.682 1069.46 906.879 1065.13 919.312 1063.71C937.818 1061.59 962.359 1064.48 979.998 1063.09C1012.38 1060.55 1074.9 1055.63 1100.32 1032.47C1127.58 1007.64 1138.72 963.59 1140.66 925.409C1141.12 918.844 1143.29 911.986 1143.84 905.552C1144.1 902.433 1139.49 898.329 1138.06 894.223C1139.5 889.495 1139.09 890.942 1143.05 887.34ZM861.058 1109.19C864.199 1099.66 864.73 1095.55 871.321 1088.96C878.22 1086.77 880.925 1085.61 887.441 1088.74L889.293 1091.19C888.193 1100.27 880.601 1100.62 874.081 1102.34C904.384 1101.68 1024.25 1103.32 1044.31 1088.95C1043.03 1084.68 1040.82 1079.5 1041.86 1075.7C1049.98 1073.75 1060.26 1095.5 1067.54 1102.83C1077.73 1092.3 1091.95 1069.57 1096.59 1054.62C1096.22 1052.62 1096.66 1053.17 1095.99 1052.49C1062.56 1070.27 1015.52 1073.13 978.911 1076.33C960.065 1077.98 934.453 1073.52 916.441 1076.76C885.219 1082.39 862.379 1088.59 829.959 1087.95C841.418 1099.97 846.63 1102.84 861.058 1109.19Z"/><path transform="scale(0.412903 0.412903)" d="M840.59 902.638C856.889 899.522 912.759 902.576 930.146 908.166C937.067 910.229 946.949 916.717 949.782 924.97C965.287 970.142 900.465 1003.99 875.998 1017.83C846.57 1029.22 820.498 1014.12 796.493 994.119C729.45 938.272 787.904 908.468 840.59 902.638ZM775.726 946.153C804.82 951.821 826.917 950.195 855.623 946.762C882.108 943.427 915.479 939.908 939.138 925.96C917.858 912.411 881.64 914.884 857.03 914.842C828.804 915.49 798.216 918.8 777.468 943.995C776.881 944.708 776.301 945.427 775.726 946.153Z"/><path transform="scale(0.412903 0.412903)" d="M1108.59 638.378C1122.01 637.554 1138.26 634.787 1142.92 653.125C1141.32 655.416 1142.35 654.604 1139.44 654.977C1106.62 636.372 1075.65 674.817 1055.53 699.826C1050.29 707.07 1045.22 714.215 1039.57 721.048C1039.61 720.8 1039.97 718.75 1039.89 718.453C1038.32 712.384 1042.92 704.612 1046.3 698.576C1060.85 672.598 1081.59 645.279 1108.59 638.378Z"/><defs><linearGradient id="gradient_0" gradientUnits="userSpaceOnUse" x1="1432.3574" y1="1012.3243" x2="1443.5133" y2="1030.6143"><stop offset="0" stop-color="black" stop-opacity="0"/><stop offset="1" stop-color="black" stop-opacity="0.035294119"/></linearGradient></defs><path fill="url(#gradient_0)" transform="scale(0.412903 0.412903)" d="M1461.59 1001.9L1462.12 1003.19C1443.98 1021.44 1433.82 1035.39 1419.08 1056.66L1418.28 1055.83C1426.48 1042.19 1433.58 1024.12 1433.95 1007.28C1444.3 1005.91 1451.49 1004.32 1461.59 1001.9Z"/><path transform="scale(0.412903 0.412903)" d="M565.47 1490.15L566.959 1489.99L566.9 1491.74C560.992 1497.75 556.972 1501.18 549.319 1497.6C545.367 1496.69 546.832 1497.79 544.304 1495.1L545.351 1493.39C551.751 1491.33 558.803 1490.9 565.47 1490.15Z"/><path transform="scale(0.412903 0.412903)" d="M998.58 2245.95C1007.52 2245.44 1008.4 2252.83 1010.85 2261.01C1016.86 2262.67 1026.23 2263.85 1029 2270.66L1027.6 2273.42C1023.54 2276.73 1018.51 2277.56 1013.57 2278.93C1015.68 2284.3 1017.6 2287.18 1015.58 2292.77L1013.03 2293.63C1007.71 2292.64 1003.83 2289.4 999.092 2286.22C992.954 2281.1 982.641 2290.94 973.972 2288.2L973.158 2286.24C974.559 2281.24 977.84 2278.03 981.015 2274.07C976.687 2270.75 970.264 2267.49 970.388 2261.04C974.611 2256.45 982.628 2258.7 988.075 2259.39C992.295 2252.82 993.243 2251.46 998.58 2245.95Z"/><path transform="scale(0.412903 0.412903)" d="M1458.11 2198.01C1472.24 2197.33 1483.47 2212.21 1471.67 2225.94L1486.37 2229.19C1478.86 2249.35 1471.55 2230.85 1458.87 2235.73L1459.41 2237.65L1464.86 2245.88L1453.34 2254.45C1445.27 2227.34 1424.03 2211.79 1458.11 2198.01ZM1457.15 2226.46C1462.08 2222.28 1466.01 2219.17 1462.51 2211.91C1460.08 2210.25 1460.07 2209.91 1457.33 2209.67C1452.84 2212.49 1447.44 2215.27 1452.22 2223.5C1453.27 2225.32 1455.4 2226.02 1457.15 2226.46Z"/><path transform="scale(0.412903 0.412903)" d="M1404.24 2216.6C1411.34 2218.02 1413.35 2222.61 1417.92 2229.14C1423.79 2227.93 1431.69 2225.35 1436.82 2228.67L1437.26 2231.02C1435.43 2235.6 1432.05 2237.73 1428.46 2240.83C1431.93 2243.64 1434.15 2244.84 1434.67 2249.89C1430.13 2254.27 1421.77 2252.43 1415.68 2251.89C1412 2255.87 1404.33 2265.27 1399.46 2263.83C1398.42 2258.93 1399.56 2257.43 1400.82 2252.1C1395.78 2251.82 1389.89 2252.37 1386.27 2248.42L1386.45 2245.89C1390.03 2241.39 1394.14 2240.07 1399.08 2237.66C1399.59 2228.5 1399.87 2224.22 1404.24 2216.6Z"/><path transform="scale(0.412903 0.412903)" d="M1076.61 2259.37C1091.19 2258.84 1092.3 2273.7 1096.22 2287.46C1097.48 2280.13 1097.92 2275.47 1098.53 2268.09L1109.3 2270.64C1107.89 2285.78 1107.57 2304.06 1090.56 2302.59C1083.57 2293.44 1085.61 2287.02 1079.79 2278.33L1078.61 2278.81C1076.84 2287.49 1078.05 2289.74 1080.38 2298.12L1067.11 2300.62C1065.16 2282.59 1064.1 2271.88 1076.61 2259.37Z"/><path transform="scale(0.412903 0.412903)" d="M1319.84 2241.95C1326.92 2245.24 1328.49 2251.09 1332.27 2259.01C1337.3 2258.23 1350.05 2255.3 1353.02 2260.22C1350.79 2265.6 1346.61 2265.52 1343.36 2270.34C1346.85 2273.54 1347.83 2273.23 1348.74 2277.16C1342.61 2283.17 1335.35 2277.65 1327.37 2279.14C1319.63 2284.73 1314.48 2287.19 1306.06 2290.89L1313.06 2277.6C1308.16 2277.1 1302.37 2277.24 1298.65 2273.73L1298.99 2271.57C1303.36 2267.91 1307.44 2267.43 1312.74 2266.01C1314.33 2256.04 1315.29 2250.56 1319.84 2241.95Z"/><path transform="scale(0.412903 0.412903)" d="M1218.75 2262.24C1224.56 2261.75 1232.6 2262.21 1236.74 2267.41C1235.02 2282.08 1226.06 2273.66 1217.75 2277.78C1214.79 2281.44 1215.4 2279.43 1214.83 2283.53C1218.45 2284.87 1223.74 2281.89 1229.81 2282.73C1232.54 2285.81 1231.98 2284.05 1232.17 2287.85C1229.34 2290.84 1223.07 2291.17 1219.03 2291.82L1218.2 2293.14C1220.95 2295.82 1221.59 2295.44 1225.19 2295.81C1228.58 2295.1 1229.23 2294.69 1232.65 2295.38C1235.86 2298.38 1235.03 2296.56 1235.92 2300.54L1234.57 2302.69C1205.84 2318.77 1181.59 2278.79 1218.75 2262.24Z"/><path transform="scale(0.412903 0.412903)" d="M885.122 2232.06C890.8 2231.58 907.894 2231.64 909.651 2239.25L908.141 2241.43C899.418 2244.52 889.179 2237.33 882.5 2244.66C886.223 2248.06 895.66 2243.49 897.655 2250.94C891.894 2264.62 889.577 2252.42 879.487 2256.71L880.096 2260.12C886.428 2263.19 889.367 2261.42 894.032 2264.96C895.882 2267.98 896.186 2267.85 896.276 2271.46L894.265 2272.83C884.493 2273.42 864.968 2266.02 861.614 2255.02C858.492 2244.78 878.813 2234.22 885.122 2232.06Z"/><path transform="scale(0.412903 0.412903)" d="M813.744 2214.14C818.621 2213.96 819.502 2213.16 822.859 2215.7L822.628 2218.29C815.508 2228.98 808.411 2218.6 800.787 2224.9C800.727 2230.04 811.994 2231.47 815.625 2243.01C814.081 2254.19 799.396 2253.14 792.146 2252.75C787.204 2252.29 783.514 2252.81 779.934 2249.59C778.688 2245.99 778.608 2246.25 779.014 2242.43C785.262 2241.04 792.738 2246.95 798.17 2243.07C795.067 2237.24 788.425 2237.52 784.379 2230.2C783.496 2217.16 805.856 2214.72 813.744 2214.14Z"/><path transform="scale(0.412903 0.412903)" d="M1115.57 2270.67L1126.46 2275.3C1123.46 2286.62 1121.38 2292.18 1129.63 2300.23C1137.39 2302.41 1138.39 2286.97 1139.26 2280.56C1144.27 2278.82 1145.4 2278.52 1150.6 2278.17C1151.71 2281.55 1151.19 2286.88 1151.13 2290.81C1146.67 2306.84 1140.48 2308.95 1127.17 2311.28C1108.42 2303.3 1110.35 2290.15 1115.57 2270.67Z"/><path transform="scale(0.412903 0.412903)" d="M1168.12 2264.92C1177.78 2264.13 1182.39 2265.01 1191.66 2267.11C1186.16 2288.76 1187.92 2273.69 1179.46 2279.26C1178.61 2286.12 1182.08 2295.31 1181.89 2304.85L1180.02 2306.45L1167.39 2310.4C1169.24 2297.8 1168.56 2292.12 1167.62 2279.52C1163.98 2280.22 1160.89 2281.3 1157.45 2280.1C1154.97 2277.24 1154.84 2272.19 1154.25 2267.9C1158.67 2266.66 1163.6 2265.81 1168.12 2264.92Z"/><path transform="scale(0.412903 0.412903)" d="M1505.68 2184.64C1508.24 2184.02 1508.43 2184.41 1511.02 2185.26C1513.97 2190.72 1509.14 2193.57 1505.55 2196.6L1504.29 2197.66C1503.95 2204.14 1513.65 2220.33 1516.98 2226.54L1505.24 2235.19L1501.52 2223.56L1493.41 2202.77L1483.86 2209.97L1477.6 2199.92C1488.64 2191.72 1493.21 2189.17 1505.68 2184.64Z"/><path transform="scale(0.412903 0.412903)" d="M948.218 2240.22L962.273 2244.61C956.362 2254.45 953.109 2261.34 949.316 2272.38C953.121 2272.27 956.93 2271.84 960.539 2273.1C962.625 2277.19 961.677 2277.71 961.248 2283.66C957.504 2284.58 944.969 2284.64 941.766 2281.65C930.616 2271.21 942.457 2250.71 948.218 2240.22Z"/><path transform="scale(0.412903 0.412903)" d="M830.352 2222.04C844.552 2221.84 853.574 2223.82 866.894 2228.85C856.673 2237.68 858.507 2232.03 848.666 2236.92C845.543 2240.36 844.699 2244.42 843.121 2249.19L842.634 2260.4L827.532 2260.6C830.441 2247.84 832.331 2243.16 838.471 2232.11C834.971 2232.16 830.515 2232.71 827.577 2230.96C827.389 2226.86 828.413 2226.36 830.352 2222.04Z"/><path transform="scale(0.412903 0.412903)" d="M920.068 2236.23L933.936 2240.22C927.116 2249.2 923.631 2256.19 918.959 2266.68C922.846 2266.58 927.284 2266.01 930.81 2267.6C932.567 2271.8 931.646 2272 930.807 2277.77C925.075 2277.54 915.841 2277.8 911.226 2273.74C900.071 2263.91 913.816 2244.9 920.068 2236.23Z"/><path transform="scale(0.412903 0.412903)" d="M1244.4 2259.74L1258.63 2261.96C1251.43 2300.14 1261.57 2282.81 1268.35 2289.6L1268.64 2295.02C1264.87 2296.24 1258.38 2298.67 1254.67 2298.87C1237 2299.85 1242.89 2270.83 1244.4 2259.74Z"/><path transform="scale(0.412903 0.412903)" d="M1271.46 2256.13L1285.34 2257.47C1284.13 2266.49 1282.03 2275.58 1286.16 2283.06C1290.33 2285.15 1290.78 2283.88 1296.06 2283.15C1297.91 2286.71 1297.26 2284.69 1296.66 2290.05C1268.06 2300.12 1268.44 2285.94 1271.46 2256.13Z"/></svg>