<?xml version="1.0" encoding="utf-8" ?><svg xmlns="http://www.w3.org/2000/svg" xmlns:xlink="http://www.w3.org/1999/xlink" width="878" height="800" viewBox="0 0 878 1024"><path fill="#ffffff" transform="scale(0.412903 0.412903)" d="M856.433 65.2768C879.597 64.4649 930.656 80.0551 955.492 86.8455C988.234 97.3962 1021.47 112.823 1049.42 135.464C1067.79 150.34 1074.18 167.004 1097.13 170.829C1114.34 173.697 1136.21 196.499 1144.46 214.156C1146.78 215.059 1158.37 183.735 1161.53 177.801C1178.4 144.63 1210.37 103.307 1240.32 86.5308C1264.35 73.0731 1313.37 115.075 1332.11 131.772C1353.8 151.09 1380.89 172.223 1400.44 194.517C1451.54 252.814 1498.72 324.43 1528.2 400.701C1549.3 473.058 1563.38 554.232 1538.02 627.728C1531.37 647.015 1518.23 660.189 1512.79 674.813C1531.05 675.128 1553.06 676.134 1562.46 698.267C1565.73 705.905 1566.16 714.783 1563.64 722.801C1558.22 740.34 1544 749.323 1530.37 756.438C1540.56 778.32 1536.59 786.485 1519.69 799.174C1535.94 799.172 1562.55 798.351 1578.08 799.782C1580.86 802.425 1580.84 805.115 1582.7 809.79C1593.62 810.313 1609.25 805.198 1618.65 806.63C1727.54 823.219 1854.47 839.209 1915.27 962.52C1921.74 975.64 1944.07 1029.97 1941.21 1042.69C1933.45 1054.28 1922.46 1043.5 1913.67 1037.79C1920.64 1076.29 1926.41 1112.01 1897.48 1141.49C1890.07 1149.04 1882.54 1159.37 1876.83 1140.99L1876.4 1139.55C1876.13 1140.01 1875.87 1140.47 1875.6 1140.93L1874.41 1142.9C1868.99 1152.03 1834.77 1193.4 1825.09 1180.51C1822.86 1183.03 1813.45 1202.42 1810.59 1207.31C1801.5 1222.87 1787.94 1237.84 1775.41 1249.84C1749.63 1274.52 1721.76 1298.23 1694.4 1320.5C1683.69 1329.22 1665.67 1339.82 1656.45 1349.79C1659.43 1350.85 1668.29 1348.76 1673.34 1348.75C1683.81 1348.74 1688.19 1349.01 1698.13 1351.34C1708.82 1353.84 1727.86 1369.53 1736.47 1367.14C1740.99 1359.22 1723.67 1336.56 1736.52 1319.13C1749.02 1296.72 1782.25 1291.52 1794.87 1315.57C1805.87 1336.51 1811.29 1335.34 1826.66 1349.3C1834.42 1356.35 1831.6 1387.6 1831.97 1400.84C1817.06 1430.9 1813.69 1431.4 1784.76 1420.86C1779.03 1427.6 1787.24 1440.47 1790.17 1447.63C1842.61 1575.67 1830 1678.37 1794.94 1806.8C1697.05 2165.29 1397.98 2247 1110.23 2245.92C1084.01 2246.34 1046.42 2242.02 1019.98 2239.45C874.161 2225.28 708.303 2177.73 584.163 2084.66C520.865 2037.2 450.886 1963 406.578 1892.05C391.005 1867.41 379.2 1840.15 366.303 1813.71C323.75 1726.46 299.84 1591.13 353.473 1503.74C357.819 1496.79 362.511 1490.13 367.523 1483.82C370.262 1480.43 383.204 1466.09 383.638 1464.11C386.361 1451.66 380.102 1435.18 389 1422.41C389.398 1421.75 394.895 1412.05 394.899 1412.06C383.428 1381.91 378.842 1359.96 389.642 1326.98C398.37 1300.32 412.07 1281.76 435.839 1269.3C430.573 1259.31 424.013 1248.94 418.11 1239.47C400.08 1210.55 385.919 1178.99 372.252 1147.06C366.271 1133.09 358.451 1117.34 353.705 1102.82C346.976 1082.23 342.583 1058.9 337.35 1037.7C337.299 1036.9 337.248 1036.11 337.197 1035.31C330.93 1037.87 313.324 1080.2 309.053 1089.56C306.67 1094.79 304.272 1100.28 298.59 1098.84C296.566 1096.35 295.03 1093.41 294.085 1090.16C280.611 1043.92 287.628 995.789 302.296 952.557C296.334 958.684 284.598 978.575 277.189 972.243C273.507 962.194 279.47 950.951 283.659 941.701C345.842 804.415 501.494 769.401 622.295 797.618C628.652 799.103 634.246 801.905 640.522 803.72L640.943 802.892C634.233 780.417 636.868 779.087 636.822 758.184C636.814 754.763 618.849 733.73 615.944 727.4C608.82 711.88 599.416 695.368 592.898 679.121C591.526 677.723 587.997 659.857 586.434 659.741C578.135 658.787 567.662 661.838 559.576 661.833C545.95 661.825 475.409 674.433 469.93 660.844C473.298 657.574 483.457 656.174 489.522 651.697C517.54 631.123 541.616 604.026 560.244 572.1C557.196 564.673 536.646 497.269 536.474 497.202C503.949 484.648 466.909 481.592 437.944 457.696C434.3 454.69 425.659 442.729 426.558 437.886C453.112 441.257 459.967 441.926 486.754 431.817C491.33 430.09 520.681 418.285 520.51 414.752C519.983 403.855 514.115 381.747 512.527 368.734C508.105 332.493 505.983 279.412 516.074 244.629C518.967 234.656 535.268 238.958 543.595 240.037C577.624 244.446 601.623 256.582 632.55 273.454C652.424 284.296 684.949 308.21 705.035 318.464C706.652 319.289 747.915 305.453 754.108 303.377C751.988 301.334 749.934 299.201 747.949 296.982C712.298 257.568 697.885 165.743 705.227 110.211C706.129 109.102 707.031 107.992 707.933 106.883C715.896 104.776 716.857 119.617 718.176 126.64C733.828 144.87 752.096 144.423 772.964 146.922C814.171 151.855 856.283 161.181 895.168 178.127C887.837 154.47 880.899 129.944 870.939 107.63C867.039 98.893 848.897 80.5475 850.229 70.8464C852.423 67.0197 852.895 67.1862 856.433 65.2768ZM742.153 1159.1C761.719 1204.55 764.734 1242.76 735.112 1279.27C734.011 1280.63 738.572 1295.76 738.919 1298.24C745.544 1334.96 738.811 1378.2 725.16 1411.8C721.852 1408.21 725.87 1389.13 726.571 1383.39C728.278 1368.96 729.599 1354.46 730.53 1339.93C734.652 1267.85 680.777 1149.26 612.318 1143.32C604.978 1142.68 589.247 1151.01 585.629 1157.46C600.208 1186.32 612.382 1221.57 606.315 1254.58C598.384 1297.72 613.719 1332.19 612.054 1374.12C611.765 1381.37 615.653 1380.98 621.046 1381.76C621.074 1376.23 621.265 1319.96 621.551 1319.47C622.225 1319.54 623.091 1320.58 623.817 1321.24C624.937 1329.55 627.024 1338.46 628.049 1346.22C629.768 1359.22 631.097 1409.07 617.097 1413.73L614.919 1409C609.058 1408.84 579.001 1410.99 577.055 1416.62C558.328 1470.81 591.532 1533.08 628.286 1564.95C627.613 1564.37 627.665 1567.33 627.661 1567.64L629.923 1569.27C628.665 1570.01 627.636 1571.04 625.692 1569.77C608.705 1558.66 594.424 1541.59 582.503 1523.76C581.239 1521.87 579.36 1517.78 577.735 1519.56C571.388 1526.61 563.465 1527.53 555.539 1530.14C530.903 1538.24 509.88 1542.4 484.288 1537.64C447.527 1530.82 405.169 1524.31 389.828 1478.3C349.077 1526.76 333.57 1572.27 334.94 1640.69C337.38 1762.44 407.165 1884.33 479.03 1967.01C557.73 2057.55 639.159 2113.31 742.147 2155.74C876.61 2211.13 1016.61 2232.16 1158.85 2230.29C1277.97 2228.91 1428.76 2200.92 1536.44 2136.93C1585.61 2107.96 1630.3 2069.64 1668.69 2023.55C1692.53 1995.24 1713.67 1963.99 1731.74 1930.37C1783.25 1833.06 1824.69 1676.22 1808.37 1560.02C1804.82 1534.74 1792.54 1486.17 1782.45 1462.86C1776.66 1448.68 1768.3 1428.24 1758.76 1417.21C1758.8 1430.54 1752.66 1469.22 1746.94 1479.59C1745.24 1482.66 1743.61 1485.79 1742.08 1488.98C1740.53 1484.04 1743.79 1466.82 1744.62 1460.84C1747.36 1441.07 1748.37 1424.31 1748.11 1404.31C1728.51 1384.86 1708.53 1367.36 1681.81 1365.79C1676.01 1365.45 1670.26 1366.38 1664.48 1366.55C1659.32 1366.7 1654.04 1365.6 1648.93 1366.1C1642 1366.77 1631.5 1368.84 1625.35 1372.35C1602.01 1385.65 1470.71 1488.76 1455.53 1510.27C1456.26 1518.93 1460.03 1530.09 1459.99 1537.55C1459.86 1561.07 1456.58 1589.49 1453.95 1612.75C1450.3 1645.05 1429.94 1677.49 1413.6 1702.4C1398.82 1724.21 1381.26 1735.94 1357.54 1738.85C1349.21 1739.87 1342.07 1736.37 1338.65 1736.82C1348.85 1746.17 1379.29 1768.74 1381 1779.58C1369.39 1774.52 1367.64 1774.98 1356.34 1767.59C1334.96 1753.6 1322.82 1735.47 1297.32 1733.06C1286.65 1732.05 1269.75 1735.25 1264.48 1726L1264.58 1723.28C1283.86 1705.82 1284.79 1735.6 1306.52 1688.24C1283.83 1702.75 1264.36 1712.75 1237.7 1713.04C1228.81 1713.14 1211.08 1707.32 1204.39 1714.92C1203.75 1719.29 1209.8 1737.42 1210.56 1744.78C1211.56 1754.37 1212.06 1757.09 1211.76 1767.65C1197.84 1734.39 1200.94 1720.63 1169.33 1702.69C1163.68 1699.49 1157.04 1696.16 1157.52 1688.06C1162.97 1684.58 1169.64 1688.87 1174.96 1691.56C1182.83 1680.56 1186.21 1673.87 1185.41 1659.37C1180.88 1658.13 1168.53 1673.14 1163.77 1675.14C1148.02 1681.76 1126.44 1691.48 1109.71 1687.99C1094.45 1684.8 1095.25 1675.91 1081.16 1689.68C1087.76 1698.31 1122.57 1699.97 1128.02 1726.12C1114.44 1723.55 1080.91 1698.08 1064.72 1701.02C1043.47 1704.89 1051.69 1679.73 1042.02 1660.01C1037.93 1651.68 1025.28 1619.64 1024.58 1611.84L1025.74 1610.53C1036.9 1612.96 1048.81 1653.71 1052.81 1665.86C1070.59 1637.23 1059.57 1653.89 1059.16 1619.33C1059.12 1615.88 1065.97 1596.25 1067.8 1591.92C1082.57 1557.1 1115.72 1533.34 1118.84 1491.9C1119.78 1479.41 1115.89 1470.88 1112.21 1459.64C1096.28 1451.14 1086.41 1447.62 1069.11 1452.82C1051.35 1458.16 1045.39 1447.35 1032.19 1446.01C1028.69 1454.95 1029.07 1460.33 1027.03 1468.91C1023.08 1485.55 1016.73 1523.59 1008.36 1536.28C1006.25 1526.12 1025.29 1435.27 1025.82 1413.07C1027.14 1357.48 1020.92 1307.73 987.13 1264.55C981.433 1257.54 956.258 1234.13 956.745 1229.63L954.092 1227.34L955.273 1226.49C961.286 1228.27 964.517 1231.37 969.506 1233.97C1001.67 1250.73 1018.51 1286.87 1027.86 1324.58C1028.09 1325.25 1028.33 1325.92 1028.56 1326.59C1033.49 1320.52 1037.39 1285.91 1041.95 1285.56C1043.61 1296.87 1045.18 1301.67 1041.67 1312.38L1042.52 1313.77C1049.61 1311.24 1055.38 1305.66 1062.53 1302.21C1089.8 1288.89 1118.49 1289.38 1144.92 1304.33C1160.7 1313.26 1169.22 1329.57 1180.14 1339.88C1217.36 1375.04 1281.65 1369.52 1296.04 1308.99C1297.51 1302.8 1302.46 1294.55 1303.34 1287.96C1288.46 1278.62 1282.09 1269.99 1271.81 1254.33C1248.83 1277.77 1226.71 1288.88 1196 1292.96C1184.05 1294.56 1166.61 1301.25 1164.23 1283.31C1166.3 1279.72 1166.52 1280.39 1169.53 1278.61C1180.73 1271.99 1192.29 1255.55 1196.5 1241.8C1198.81 1234.24 1200.77 1219.81 1197.13 1212.67C1196.07 1210.58 1196.41 1207.99 1196.49 1205.72C1194.72 1205.23 1194.89 1205.03 1193.48 1206.13C1185.95 1212.49 1172.95 1206.78 1166.63 1210.09C1160.07 1214.33 1153.65 1223.55 1147.52 1228.1C1129.48 1241.48 1109.34 1254.37 1089.35 1263.24C1077.27 1268.59 1075.43 1276.46 1068.62 1280.51C1062 1277.51 1032.02 1216.4 1027.52 1205.27C990.878 1220.48 936.693 1208.92 902.69 1189.86C890.716 1183.01 878.995 1175.58 867.561 1167.57C843.449 1150.71 818.521 1129.57 787.999 1137.6C770.168 1138.65 755.399 1144.96 742.153 1159.1ZM1147.37 526.324C1133.28 547.114 1124.57 561.3 1107.15 578.173C1130.06 577.737 1159.29 581.688 1176.79 600.872C1179.82 604.187 1181.12 605.985 1181.8 610.755C1177.69 621.663 1167.74 613.611 1159.58 613.814C1128.06 614.597 1101.77 621.077 1074.09 640.159C1048.77 657.621 1025.75 683.047 999.668 699.03C997.89 700.114 995.99 699.728 994.166 699.343C988.577 695.472 987.209 689.838 984.627 682.891C966.698 709.581 941.683 733.802 920.498 757.194C914.958 763.311 899.513 780.362 893.984 784.635L892.806 784.466C887.448 767.648 894.167 750.007 892.165 731.714C890.633 717.723 888.077 619.463 884.408 613.326L883.377 614.078C870.236 623.506 848.094 634.464 837.211 648.597L837.801 650.417L838.931 650.452C861.481 651.406 854.34 677.58 855.288 695.855C855.679 703.402 858.864 715.854 854.306 720.584C846.197 719.668 844.513 711.218 835.851 704.946C821.952 695.003 806.555 688.244 790.485 685.029C788.606 684.624 786.724 684.231 784.841 683.851C781.037 686.747 766.349 697.213 764.45 700.947C786.828 699.247 810.134 704.856 827.592 722.121C833.148 727.617 843.053 741.474 842.433 750.152C832.068 732.141 787.043 713.014 767.841 715.592C758.256 716.878 754.655 727.494 751.655 710.514C744.521 712.61 711.179 738.032 704.886 744.35C704.159 804.223 734 834.798 749.483 887.575C749.62 888.043 726.21 939.796 724.326 946.127C718.009 967.357 717.008 991.291 721.959 1013.26C728.9 1028.45 738.324 1046.91 749.042 1058.73C757.901 1068.49 768.884 1082.81 778.982 1089.97C823.008 1121.19 868.859 1155.5 915.055 1181.74C931.241 1190.93 963.634 1196.39 981.738 1198.36C1021.31 1199.69 1054.41 1184.66 1089.97 1167.32C1151.93 1134.86 1211.12 1092.25 1271.49 1055.62C1282.35 1049.03 1293.66 1039.16 1304.39 1033.7C1356.27 1007.31 1411.11 936.273 1395.41 866.007C1393.51 857.535 1369.85 819.175 1370.23 816.326C1373.97 818.036 1376.33 824.466 1379.26 826.81C1415.93 856.145 1415.7 899.783 1400.11 944.288C1388.54 977.334 1368.27 1001.47 1343.96 1025.06C1348.56 1028.33 1355.47 1028.09 1358.87 1030.02C1374.39 1038.85 1384.22 1050.9 1390.72 1068.67C1393.52 1064.94 1402.39 1054.04 1404.16 1050.62C1412.31 1034.96 1417.45 1016.56 1416.79 998.184C1416.26 983.075 1407.88 970.663 1406.59 959.21L1407.57 958.295C1412.98 963.735 1415.66 970.699 1419.92 976.846C1423.95 982.661 1423.66 991.124 1427.27 995.064C1454.09 996.727 1499.08 972.717 1518.66 951.117C1537.01 930.865 1542.72 921.376 1554.87 896.675C1523.82 875.696 1488.12 885.434 1456.18 897.264C1470.49 880.086 1493.73 871.055 1513.99 871.058C1534.92 853.889 1546.45 838.173 1562.27 814.967C1535.7 815.029 1509.33 814.384 1482.84 813.933C1460.36 813.55 1437.75 824.339 1417.08 833.189C1412.52 835.214 1410.1 839.685 1405 840.847L1404.31 839.447C1409.98 820.071 1445.4 804.364 1461.59 800.747C1479.83 796.673 1496.43 800.071 1513.94 787.435C1520.02 783.055 1533.57 770.066 1522.95 762.292C1515.04 760.992 1496.71 769.297 1487.11 770.707C1473.05 772.773 1460.9 770.596 1447.33 771.333C1479.58 751.841 1534.9 758.685 1554.47 709.703L1553.78 708.289C1542.09 685.071 1514.91 687.205 1495.15 693.977C1487.46 696.616 1485.52 705.308 1473.94 699.591C1474.46 694.213 1497.09 670.187 1501.83 664.146C1507.2 657.309 1512.13 650.028 1516.6 642.361C1556.28 572.877 1540.95 464.088 1513.47 391.112C1495.98 346.972 1470.78 309.463 1445.85 271.177C1409.85 215.882 1366.02 174.465 1317.62 134.683C1304.6 123.983 1270.9 94.2397 1254.04 98.5026C1234.39 100.221 1205.33 134.65 1192.99 151.969C1124.64 247.945 1116.68 409.789 1157.57 522.304C1174.88 569.931 1232.86 626.736 1278.35 635.223C1282.54 636.007 1289.62 636.886 1290.51 642.146C1283.87 645.192 1270.41 646.576 1263.7 644.01C1214.36 625.141 1170.16 581.771 1147.37 526.324ZM1533.47 871.913C1581.25 889.459 1570.93 894.81 1548.33 936.309C1555.21 937.373 1592.75 918.475 1605.91 924.781C1604.08 926.73 1577.36 939.035 1571.55 940.896C1540.03 950.982 1515.64 972.764 1487.83 991.283C1481.47 995.52 1473.52 1014.53 1466.13 1019.88C1416.45 1076.62 1368.32 1165.9 1338.11 1239.03C1329.93 1258.71 1321.89 1278.47 1313.99 1298.3C1303.56 1324.59 1296.78 1347.8 1275.11 1364.06C1272.52 1366 1263.89 1370.84 1263.26 1372.32C1278.41 1382.35 1282.84 1378.29 1293.21 1399.52C1280.76 1395.74 1266.42 1388.84 1255.08 1385.76C1219.47 1376.09 1182.32 1368.27 1158.26 1333.44C1138.5 1304.83 1097.63 1301.45 1070.56 1314.69C1061.03 1319.02 1039.66 1332.96 1033.07 1341.8C1032.52 1352.08 1036.71 1372.24 1037.12 1384.34C1037.67 1400.94 1035.99 1415.67 1034.76 1432.23C1058.07 1455.89 1099.79 1419.26 1122.32 1436.52C1129.04 1441.67 1137.03 1475.1 1136.78 1485.23C1136.95 1500.2 1132.65 1503.91 1126.72 1516.21C1124.65 1520.51 1121.72 1533.09 1119.71 1536.37C1102.66 1564.09 1068.33 1598.83 1072.03 1635.2C1072.74 1642.19 1079.27 1655.38 1082.52 1661.86C1104.39 1674.86 1120.01 1676.31 1143.47 1667.56C1173.49 1656.36 1208.27 1616.29 1222.04 1584.16C1235.77 1552.09 1242.83 1519.36 1241.1 1483.49L1240.35 1482.01C1227.71 1457.68 1202.19 1464.18 1181.47 1458.93C1178.65 1458.22 1176.49 1459.02 1173.73 1459.79C1174 1457.82 1175.38 1455.44 1176.82 1454.63C1195.62 1444.03 1238.01 1447.48 1248.57 1471.3C1253.91 1483.36 1253.61 1511.62 1252.22 1525.25C1251.45 1531.77 1247.61 1544.27 1246.77 1551.42C1245.94 1558.48 1247.76 1568.35 1246.27 1574.91C1238.58 1608.72 1205.48 1623.35 1196.68 1653.15C1194.82 1659.46 1198.42 1669.77 1200.66 1675.39C1204.47 1684.97 1211.18 1694.08 1220.38 1697.05C1239.61 1703.28 1269.49 1695.05 1286.79 1684.46C1306.88 1672.16 1321.89 1656.38 1337.14 1637.65C1364.14 1596.34 1382.81 1544.63 1339.98 1505.22C1327.75 1493.96 1305 1490.16 1289.7 1491.18C1285.98 1491.54 1282.33 1493.87 1278.91 1492.22C1278.51 1488.43 1278.79 1489.36 1280.58 1485.26C1291.98 1475.86 1303.47 1476.23 1316.82 1478.32C1354.82 1484.28 1383.24 1533.7 1376.76 1577.01C1371.9 1608.4 1355.89 1636.71 1337.19 1659.14C1332.37 1664.92 1314.76 1678.84 1314.53 1683.54C1313.75 1699.08 1333.63 1722.8 1346.36 1723.99C1364.64 1725.68 1373.57 1721.04 1387.85 1710.13C1412.31 1687.29 1438.48 1638.33 1442.56 1602.03C1444.85 1581.66 1444.41 1570.48 1434.91 1553C1426.21 1536.99 1393.09 1519.57 1392.88 1506.64C1402.19 1498.42 1438.15 1532.05 1443.59 1542.57C1445.3 1545.87 1447.42 1549.84 1449.03 1553.26C1449.7 1521.47 1444.21 1511.2 1437.54 1480.71C1442.76 1485.52 1446.02 1488.37 1450.56 1494.04C1483.06 1463.61 1516.79 1435 1551.63 1408.32C1612.78 1361.53 1674.99 1320.12 1734.65 1268.01C1764.52 1241.92 1812.67 1199.48 1823.23 1151.04C1824.2 1146.55 1821.26 1111.3 1820 1107.52L1820.95 1106C1828.95 1113.81 1834.45 1146.88 1835.4 1159.11L1835.65 1162.4C1838 1162.95 1839.49 1162.75 1841.73 1160.43C1858.18 1143.35 1866.91 1138.13 1873.51 1114.04C1870.78 1103.3 1860.3 1059.22 1861.55 1050.85C1862.96 1052.27 1867.09 1066.5 1869.91 1072.15C1877.78 1087.86 1883.56 1111.19 1887.84 1128.84C1891.93 1128.04 1902.24 1113.32 1903.62 1108.85C1910.61 1086.31 1908.7 1053.87 1902.55 1031.27C1897.53 1027.43 1891.13 1023.33 1888.22 1017.42L1888.42 1015.3C1896.28 1012.66 1918.64 1024.52 1926.77 1028.47C1918.47 978.456 1876.08 917.046 1839.73 890.315C1784.96 850.039 1716.52 837.556 1653.62 826.238C1640.16 823.763 1618.54 818.598 1605.7 821.621C1597.91 822.13 1581.1 822.732 1573.26 825.297C1571.48 825.879 1563.22 837.355 1561.1 840.16C1552.63 851.583 1543.39 862.201 1533.47 871.913ZM773.716 297.559C784.141 296.24 795.017 293.534 805.27 292.632C834.863 290.029 868.842 293.576 892.491 316.756C897.463 321.629 909.525 333.032 909.786 340.326C904.21 338.857 898.278 332.856 893.442 329.272C876.381 316.625 862.924 310.304 842.968 307.251C766.683 295.58 649.939 357.221 581.743 396.905C543.319 419.264 501.201 448.273 457.696 453.125L456.285 454.469C461.638 461.749 495.913 470.981 505.834 474.194C544.319 486.66 586.709 491.74 626.466 491.326C670.802 446.185 726.744 426.552 784.049 418.365C789.627 417.568 812.2 416.046 816.459 417.84C813.034 419.798 770.62 427.204 763.186 429.628C732.226 439.722 697.011 454.561 669.87 474.072C641.147 495.028 615.203 520.765 592.858 550.469C567.015 585.041 542.736 629.523 509.756 653.264C561.302 651.058 629.667 638.506 678.638 618.552C693.416 612.53 703.564 605.218 716.785 598.886C743.689 546.158 770.132 518.049 818.073 489.87C825.424 485.549 842.898 476.677 850.787 474.411C853.119 473.755 855.467 473.176 857.827 472.676C854.242 475.458 849.477 478.913 846.116 481.835C765.796 532.484 730.968 577.422 697.797 677.547C690.329 700.088 679.167 734.128 670.584 755.81C696.681 731.519 726.811 712.534 754.966 691.734C789.988 665.86 823.598 637.517 858.365 611.22C866.091 605.297 874.212 599.803 880.836 592.193C884.025 588.53 884.691 584.469 884.896 579.486C887.192 523.714 902.579 468.307 940.921 432.129C955.399 418.468 973.483 407.235 992.436 403.111L993.014 404.026C983.702 411.517 974.61 417.774 965.428 425.717C926.807 459.123 907.366 494.42 898.657 549.379C891.382 595.292 896.317 623.77 899.005 668.757C900.494 693.682 902.498 735.048 901.969 759.902C941.244 713.852 979.359 684.024 1005.44 623.574C1012.54 608.472 1018.95 596.215 1018.89 578.266C1018.75 533.135 1013.08 484.021 1043.87 449.634C1056.53 435.5 1084.24 414.046 1102.31 420.215C1072.29 439.614 1044.18 453.178 1032.83 497.378C1026.61 521.591 1028.58 564.812 1029.84 590.687C1030.18 597.546 1029.74 610.092 1031.22 615.941C1036.42 617.279 1064.86 596.61 1070.91 591.918C1100.07 569.335 1136.53 539.025 1135.39 493.378C1134.91 474.324 1128.35 453.034 1124.95 434.36C1124.28 430.981 1124.14 411.896 1123.74 406.772C1119.45 352.611 1123.2 283.389 1140.31 231.808C1124.2 197.404 1116.06 195.124 1088.91 180.635C1099.32 203.869 1102.38 224.931 1096.81 250.512L1095.42 251.433C1091.61 226.725 1089.04 198.277 1074.23 178.711C1032.66 123.769 968.694 102.486 909.24 88.6084C895.506 85.4029 879.516 79.114 865.729 79.939C888.733 110.456 894.504 148.377 907.967 185.765C932.807 199.095 955.307 222.607 964.891 252.887C974.796 284.184 969.424 291.04 968.056 319.612C966.673 315.253 965.621 296.207 964.699 289.759C951.198 195.315 865.796 177.14 797.897 163.579C767.468 157.501 743.371 163.345 714.943 141.644C714.637 186.03 715.445 206.065 735.724 246.022C742.689 259.744 747.089 268.945 756.889 280.919C762.62 287.922 768.49 291.804 773.716 297.559ZM304.345 930.883C311.553 927.257 322.004 921.264 329.789 921.59L330.516 922.635L328.218 925.889C330.329 926.08 329.253 926.041 331.447 925.991C329.106 930.494 328.703 929.322 326.842 931.641C311.093 951.266 301.051 995.639 299.594 1021.92C298.984 1032.92 297.443 1062.66 300.331 1070.2L301.913 1070.12C306.82 1063.6 308.575 1055.27 313.148 1048.37C320.833 1036.78 323.798 1030.95 334.198 1022.42C333.928 994.996 333.903 987.059 347.53 964.293C349.351 974.141 346.01 992.587 346.061 1003.31C346.299 1052.95 364.372 1102.51 384.167 1145.61C397.268 1174.13 416.28 1223.06 435.012 1246.9C438.706 1254.51 441.559 1259.91 445.774 1267.14C449.339 1267.26 456.596 1268.04 459.47 1266.48C461.399 1257.25 459.608 1249.24 460.711 1240.41C464.571 1209.52 477.355 1176.08 501.373 1159.75C521.32 1146.18 556.325 1129.14 577.289 1147.89C590.779 1136.8 601.278 1127.7 619.438 1130.33C626.519 1131.35 633.998 1138.73 639.035 1132.18C645.518 1123.75 664.68 1127.56 666.848 1120.38L666.371 1118.17C663.268 1103.22 660.493 1048.93 655.502 1039.61C637.307 1037.33 622.379 1053.1 613.139 1048.98C610.453 1044.82 608.476 1030.39 607.953 1024.76C604.811 990.895 618.751 965.284 644.848 952.144C628.657 936.139 621.262 924.444 613.037 901.332C610.219 893.414 605.168 884.744 609.055 876.289C614.713 871.822 620.88 876.773 625.867 875.432C636.83 872.483 648.864 867.064 659.423 863.152C649.432 856.487 644.802 852.795 640.627 839.116C637.714 829.57 643.846 818.748 640.03 817.338C618.174 809.261 546.234 800.226 527.261 804.668C447.56 807.038 375.476 838.641 320.268 906.971C314.305 914.318 308.972 922.326 304.345 930.883ZM1177.12 1199.25C1205.31 1188.69 1215.38 1164.47 1234.49 1140.02C1237.41 1136.3 1242.1 1129.28 1245.26 1126.28C1250.41 1141.5 1220.93 1179.1 1213.27 1190.1C1213.48 1189.81 1219.49 1217.83 1216.43 1221.34C1213.38 1237.77 1210.14 1248.59 1201.49 1262.81C1198.96 1266.97 1193.84 1273.34 1192.76 1277.44C1194.88 1278.62 1202.55 1277.37 1205.2 1276.46C1221.06 1271.02 1236.19 1266.41 1249.31 1255.33C1272.04 1238.31 1287.95 1207.8 1302.13 1181.65C1303.81 1178.56 1308.1 1168.49 1310.05 1168.43C1311.45 1177.81 1305.97 1195.32 1301.94 1203.47C1284.53 1238.72 1283.34 1244.49 1310.26 1270.61C1317.58 1258.51 1324.35 1235.26 1330.23 1221.4C1337.65 1203.95 1345.27 1187.59 1353.75 1170.8C1364.24 1149.76 1375.23 1129.09 1386.72 1108.79C1391.51 1100.42 1408.07 1074.86 1410.3 1068.05L1409.4 1067.19C1403.42 1073.65 1394.3 1086.78 1387.4 1087.93C1381.04 1084.28 1382.1 1071.29 1378.57 1064.2C1370.3 1047.63 1346.14 1035.83 1329.88 1036.68C1317.62 1040.12 1274.94 1070.3 1261.73 1078.99C1250.35 1086.47 1225.41 1100.2 1215.46 1108.09C1212.88 1114.98 1209.78 1128.94 1207.94 1136.77C1202.18 1161.37 1191.24 1179.88 1177.12 1199.25ZM531.892 1387.01C544.569 1396.05 562.65 1404.42 577.557 1399.97C585.43 1397.66 592.179 1391.76 596.285 1383.6C609.018 1358.51 592.807 1313.61 592.028 1285.75C591.248 1257.84 599.866 1231.88 592.109 1204.93C586.521 1185.03 576.365 1155.79 556.464 1151.2C535.328 1152.57 508.698 1166.29 494.068 1184.66C473.052 1211.04 470.113 1245.7 470.982 1280.26C471.879 1315.99 486.019 1344.16 508.537 1367.51C512.527 1371.64 527.385 1384.68 531.892 1387.01ZM612.097 653.192L597.283 656.646C607.882 688.451 617.126 710.792 636.333 737.843C642.612 746.686 649.113 753.567 655.199 761.768C661.126 749.995 665.943 735.979 670.503 723.325C641.574 711.595 616.573 692.498 612.923 653.907L612.097 653.192ZM534.095 1467.32C541.396 1467.3 556.319 1467.87 558.54 1457.48C552.59 1454.67 541.726 1458.41 539.212 1450.46C536.384 1441.52 531.892 1437.09 534.792 1426.92C539.428 1410.67 557.777 1428.52 563.73 1421.02L563.671 1416.88C559.093 1412.87 549.305 1413.32 543.09 1408.22C541.119 1406.6 532.993 1403.74 529.689 1401.41C500.773 1381.02 475.399 1353.87 466.373 1314.67C463.737 1303.22 461.371 1293.16 459.612 1281.45L456.716 1280.77C441.362 1280.95 430.761 1285.76 419.618 1298.95C404.295 1317.33 395.797 1342.02 395.964 1367.66C396.653 1437.5 485.496 1467.76 534.095 1467.32ZM691.597 1086.15C712.063 1094.37 729.059 1097.68 750.749 1099.01C755.305 1099.29 766.674 1101.81 770.306 1098.95C771.131 1100.76 753.136 1081.41 752.489 1080.69C734.519 1060.8 717.879 1039.43 711.18 1010.85C701.386 967.828 712.904 938.483 730.597 901.59C732.365 897.905 737.753 886.185 736.714 882.543C729.491 857.246 713.053 830.748 704.546 805.682C700.783 794.596 698.749 779.894 696.094 768.481C694.872 763.224 695.793 754.445 694.234 751.945C679.747 763.687 665.66 777.135 652.122 790.341C651.369 791.076 648.166 790.594 647.151 790.289C647.165 795.079 651.097 801.752 653.345 806.127C661.474 810.559 683.879 816.548 686.236 825.456C678.61 832.767 650.442 819.3 648.849 833.53C647.749 843.356 663.45 852.957 669.883 857.216C676.614 853.635 689.172 845.038 695.515 844.584L696.824 847.583C692.469 853.06 690.978 854.5 685.649 858.747C664.598 875.52 646.249 887.578 619.996 888.976C619.54 898.712 633.199 922.896 639.427 930.808C645.165 938.096 649.056 940.794 655.105 946.864C665.178 943.716 676.349 939.17 686.032 936.577C688.302 935.969 698.221 936.269 704.308 935.05L705.292 935.885C700.364 939.103 694.627 937.923 687.924 944.018C681.874 949.519 669.577 952.259 662.571 956.611C634.103 970.794 612.722 992.886 620.303 1032.98C626.002 1031.07 634.009 1027.77 639.551 1026.78C663.581 1022.51 690.161 1026.94 711.392 1040.81L713.228 1042.03L716.184 1040.07C722.81 1047.31 701.67 1077.84 696.051 1082.63C694.596 1083.85 693.11 1085.02 691.597 1086.15ZM565.155 564.983C570.267 558.001 583.244 539.358 587.985 534.555C595.615 522.673 605.818 514.64 613.188 503.741L613.005 502.76C608.662 501.864 609.09 502.421 605.91 503.073C597.207 504.857 554.302 500.094 547.937 497.079C550.724 509.062 553.345 521.022 556.193 532.988C558.628 543.215 562.916 555.063 565.155 564.983ZM535.788 1503.52C533.729 1496.22 532.179 1494.52 534.919 1488.2C535.656 1486.51 536.418 1484.83 537.206 1483.18C536.064 1481.93 512.802 1481.05 508.45 1480.38C467.564 1474.03 431.016 1457.81 401.914 1420.74C386.831 1451.06 396.656 1488.72 423.294 1504.8C449.075 1520.37 485.18 1525.82 513.994 1525.18C525.1 1524.71 555.747 1516.3 565.49 1511.09C569.081 1509.01 568.927 1509.18 571.469 1505.59L570.539 1504.72C559.359 1508.69 557.048 1510.91 545.3 1510.96C542.211 1508.55 538.787 1506.01 535.788 1503.52ZM1059.2 1245.46C1062.25 1250.24 1065.71 1255.32 1068.26 1260.41C1079.18 1250.72 1097.42 1244.16 1109.14 1237.24C1148.28 1214.16 1180.83 1183.21 1198.29 1135.34C1200.76 1128.57 1205.07 1121.26 1208 1113.31L1207.24 1112.18C1189.69 1121.36 1169.88 1136.96 1152.61 1147.52C1117.88 1168.75 1083.5 1188.12 1045.81 1200.75C1045.29 1221.03 1049.41 1228.35 1059.2 1245.46ZM1746.94 1327.8C1742.02 1334.26 1742.15 1352.05 1746.74 1357.21L1747.9 1357.26C1748.51 1343.91 1744.21 1348.07 1747.76 1328.2C1759.32 1322.8 1766.91 1323.69 1778.79 1325.62C1791.5 1335.18 1787.17 1343.05 1794.81 1350.19C1804.19 1358.96 1815.09 1354.11 1819.32 1374.41L1820.47 1374.02C1826.49 1352.47 1808.96 1355.98 1800.34 1344.05C1786.47 1324.85 1788.66 1320.61 1768 1312.26C1756.69 1316.84 1755.58 1318.02 1746.94 1327.8ZM1773.58 1413.59L1774.96 1413.25L1777.7 1403.48C1779.24 1398.1 1779.97 1394.99 1777.88 1390.08C1773.24 1386.6 1769.09 1387.63 1763.66 1388.32L1763.01 1390.66C1759.78 1390.29 1759 1389.43 1757.15 1391.13C1760.13 1397.29 1769.04 1406.47 1773.58 1413.59ZM612.947 1396.59C616.622 1396.63 616.569 1397.36 619.086 1395.37C617.061 1391.72 612.311 1390.19 608.585 1388.53C606.518 1392.66 605.064 1393.81 605.282 1397.72C608.114 1398.49 610.095 1397.48 612.947 1396.59ZM547.44 1496.37C556.422 1500.26 559.33 1498.66 566.667 1491.76C566.193 1490.22 566.617 1490.54 565.985 1490.19C561.517 1490.74 547.842 1491.76 544.905 1494.48L545.112 1496.07L547.44 1496.37ZM1787 1386.99C1789.57 1393.31 1788.5 1399.24 1792.41 1402.13C1813.47 1403.46 1802.32 1391.66 1811.06 1375.45C1799.82 1362.99 1800.7 1369.32 1789.7 1361.04C1781.55 1354.91 1783.09 1334.85 1767.86 1336.17C1766.06 1336.33 1764.21 1335.38 1761.3 1336.12L1754.59 1336.86C1752.26 1341.22 1756.13 1358.85 1759.88 1363.73C1766.56 1366.51 1770.65 1361.65 1776.21 1357.16C1780.41 1357.05 1778.46 1356.54 1782.27 1358.85C1784.17 1362.5 1783.9 1360.61 1783.27 1364.67C1780.46 1367.35 1777.62 1369.98 1774.73 1372.53L1775.1 1373.9L1781.23 1374.73L1782.5 1377.66C1788.55 1376.69 1790.76 1375.42 1796.15 1378.08L1797.32 1380.34C1796.03 1384.8 1797.07 1382.9 1793.92 1386.11C1791.24 1386.58 1789.74 1386.88 1787 1386.99ZM1310.57 1705.88C1308.37 1709.69 1306.48 1713.02 1304.47 1716.97L1304.84 1718.97C1310.11 1721.53 1312.06 1720.86 1317.1 1722.54L1319.73 1723.04L1320.19 1722.09C1317.34 1717.36 1312.94 1710.67 1310.57 1705.88ZM674.076 1092.56C673.767 1097.6 675.368 1117.19 676.914 1121.63C707.646 1124.56 707.111 1123.96 733.631 1146.08C744.679 1134.57 760.632 1125.78 775.229 1123.7C782.637 1122.9 789.358 1121.97 796.808 1122.31C777.072 1108.75 738.638 1113.66 715.27 1108.37C699.555 1104.81 687.412 1096.54 674.076 1092.56ZM1066.95 1679.16C1070.82 1677.87 1074.26 1677.58 1076.62 1674.57C1076.18 1671.28 1069.49 1661.75 1067.42 1659.6C1064.89 1668.84 1057.94 1674.35 1057.11 1679.87C1060.89 1682.31 1062.94 1680.65 1066.95 1679.16ZM1191.26 1679.98C1189.5 1698.36 1178 1699.64 1201.48 1704.88L1204.69 1701.97C1197.04 1694.89 1196.11 1688.36 1191.26 1679.98ZM729.218 1262.7C741.84 1244.7 745.512 1232.15 744.68 1208.05C743.403 1171.03 712.199 1129.43 677.864 1136.46C668.525 1137.44 656.755 1137.63 648.333 1141.47C654.148 1146.08 662.602 1151.61 667.616 1155.95C686.924 1172.65 718.781 1225.29 724.773 1251.5C726.785 1255.85 727.722 1258.1 729.218 1262.7ZM693.681 1066.06C696.541 1062.36 704.371 1052.98 705.503 1049.06C698.494 1044.14 676.43 1040.62 667.864 1039.57C669.748 1049.08 670.419 1074.51 674.782 1078.69C680.377 1079.21 689.634 1070.53 693.681 1066.06ZM544.847 1431.02C543.179 1435.77 542.726 1436.33 543.058 1441.25C546.885 1447.32 553.977 1445.31 560.243 1445.13C560.167 1438.61 561.147 1439.03 558.323 1435.48C553.256 1433.76 549.866 1433.5 544.847 1431.02ZM1458.31 1003.08C1453.88 1004.11 1439.06 1006.25 1436.76 1008.1C1435.86 1010.81 1424.8 1047.28 1424.8 1047.11C1425.24 1046.81 1425.67 1046.5 1426.1 1046.2C1432.17 1037.74 1438.14 1029.37 1444.73 1021.45C1449.9 1015.25 1456.21 1009.98 1460.73 1003.3C1458.74 1002.91 1459.55 1002.84 1458.31 1003.08ZM624.267 357.753C615.777 342.53 612.991 340.735 603.36 329.021C594.828 318.643 559.947 288.276 556.309 279.74L556.991 278.713C558.566 279.72 560.42 280.793 561.857 281.987C584.144 295.817 621.242 325.843 629.835 354.156C635.137 351.601 689.589 324.779 689.742 324.569C687.492 322.663 687.151 323.258 685.338 322.174C629.278 288.642 591.838 257.848 526.621 252.788C517.532 284.024 519.191 348.21 525.048 380.525C526.679 389.522 526.925 400.099 529.303 409.061L530.566 410.18C538.635 407.237 549.402 399.805 557.424 395.492C578.014 384.42 603.451 366.881 624.267 357.753ZM702.84 628.568C682.246 641.88 646.15 642.107 623.941 651.341C616.667 654.365 629.8 677.028 632.251 680.639C634.641 684.163 637.365 687.361 640.371 690.171C655.544 700.821 657.828 703.195 674.69 711.175C679.966 694.597 685.491 678.129 691.265 661.778C692.885 657.212 702.496 631.681 702.84 628.568Z"/><path fill="#FDFDFD" transform="scale(0.412903 0.412903)" d="M436.466 1562.66C438.963 1561.69 440.991 1562.23 443.64 1562.53C452.833 1569.59 442.822 1588 440.527 1598.95C438.91 1606.95 437.682 1615.06 436.847 1623.22C433.749 1652.81 434.761 1679.67 441.808 1708.48C443.685 1716.15 451.91 1737.51 448.451 1743.43L445.964 1743.87C438.078 1741.27 427.436 1728.13 421.066 1721.2C419.369 1717.13 409.987 1706.96 406.155 1700.64C386.298 1667.92 363.724 1615.97 381.47 1576.33C384.98 1568.48 425.961 1564.22 436.466 1562.66ZM390.013 1590.56C389.353 1622.83 394.443 1652.38 411.741 1678.95C414.619 1684.36 418.085 1691.72 421.868 1696.01L423.236 1695.85C423.162 1695.54 423.089 1695.23 423.015 1694.92L422.681 1693.36C416.84 1667.33 418.969 1608.59 427.549 1583.83L426.887 1582.07L425.468 1582.41C414.115 1582.48 400.601 1585.83 390.013 1590.56Z"/><path fill="#FDFDFD" transform="scale(0.412903 0.412903)" d="M939.655 1326.27C948.308 1325.04 957.471 1333.79 959.129 1343.81C966.119 1386.03 942.106 1428.3 927.959 1465.6C926.513 1469.41 924.792 1470.27 921.746 1471.19C917.625 1470.38 917.242 1469.55 913.903 1466.24C916.894 1437.08 918.715 1408.23 909.775 1380C906.174 1368.63 887.702 1354.67 888.776 1343.14C894.085 1338.33 930.921 1328.46 939.655 1326.27ZM928.931 1400.7C929.545 1406.07 930.099 1411.46 930.592 1416.85C937.438 1413.34 953.252 1349.11 942.094 1339.72L940.513 1339.79C933.5 1343.41 912.977 1349.44 905.513 1349.5C907.383 1353.45 912.384 1357.86 915.055 1361.65C922.644 1372.4 926.397 1387.45 928.931 1400.7Z"/><path fill="#FDFDFD" transform="scale(0.412903 0.412903)" d="M1618.82 1434.26C1620.52 1433.91 1622.81 1432.92 1624.56 1433.48C1676.72 1450.14 1679 1461.29 1640.48 1505.31C1630.13 1517.14 1619.29 1527.36 1606.25 1537.77C1597.76 1542.08 1580.16 1560.02 1572.17 1551.97C1571.51 1543.57 1584.56 1528.73 1589.49 1520.92C1601.85 1501.35 1606.09 1477.7 1612.32 1454.96C1614.15 1448.31 1615.71 1439.74 1618.82 1434.26ZM1618.6 1509.19C1633.09 1494.09 1644.98 1479.99 1655.2 1460.68C1646.77 1453.32 1635.57 1449.79 1625.5 1445.81C1618.26 1462.13 1617.43 1493.84 1608.05 1510.72C1606.57 1513.38 1604.15 1518.82 1603.45 1521.9C1607.72 1520.34 1615.09 1512.83 1618.6 1509.19Z"/><path fill="#FDFDFD" transform="scale(0.412903 0.412903)" d="M885.898 1244.24L904.809 1244.15C915.648 1251.64 943.59 1281.32 942.464 1296.23C938.993 1302.22 915.501 1305.78 905.478 1311.02C900.649 1313.93 898.63 1316.11 893.557 1314.79C887.517 1309.44 875.498 1286.66 869.164 1278.67C866.582 1274.28 854.834 1263.82 853.785 1260.03C850.713 1248.94 881.961 1244.81 885.898 1244.24ZM904.239 1297.15C911.946 1292.7 915.821 1290.62 924.606 1288.82C914.168 1272.46 909.488 1258.94 890.54 1258.52C885.498 1259.37 877.455 1259.89 873.384 1262.22C874.028 1266.92 877.131 1266.85 879.716 1269.95C886.822 1278.46 890.025 1292.43 898.862 1299.12C901.474 1298.61 901.764 1298.37 904.239 1297.15Z"/><path fill="#FDFDFD" transform="scale(0.412903 0.412903)" d="M1645.08 1375.74C1656.94 1373.75 1695.43 1388.97 1700.89 1401.8C1703.96 1409.03 1687.77 1438.7 1684.06 1444.13C1681.95 1447.22 1680.4 1447.41 1676.86 1447.99C1662.67 1433.59 1644.01 1422.61 1625.24 1421.13C1622.47 1420.91 1621.82 1420.82 1619.11 1419.67L1618.3 1416.49C1620.75 1401.99 1635.62 1384.88 1645.08 1375.74ZM1636.75 1410.58C1646 1412.03 1666.34 1420.68 1674.24 1426.28L1675.99 1427.45C1680 1424.51 1687.08 1410.43 1682.27 1405.05C1674.26 1396.1 1661.89 1392.1 1651.13 1391.09C1644.42 1397.61 1641.49 1401.73 1636.75 1410.58Z"/><path fill="#FDFDFD" transform="scale(0.412903 0.412903)" d="M1241.54 156.254L1242 157.472C1240.78 159.539 1240.69 159.895 1239.74 162.158C1240.82 161.811 1241.89 161.477 1242.97 161.159C1230.69 181.581 1218.39 236.729 1220.58 261.017L1222.3 262.5C1223.28 262.446 1226.52 262.244 1227.21 261.293C1236.02 249.089 1246.8 223.858 1249.72 208.863C1250.67 203.982 1248.81 192.951 1250.34 184.894C1252.05 183.144 1253.39 181.25 1256.12 181.676C1267.92 183.517 1286.07 206.617 1293.06 216.198C1306.31 234.355 1314.31 259.555 1313.64 283.216C1313.56 285.807 1313.01 284.703 1313.57 288.578C1318.1 283.774 1324.08 274.803 1327.12 268.527C1331.76 258.941 1338.9 253.805 1337.09 242.913C1338.48 238.689 1337.39 240.403 1340.61 237.679C1362.31 235.208 1402.38 317.423 1400.74 342.756C1400.27 350.15 1398.88 364.411 1399.68 370.733C1414.92 382.405 1419.48 397.841 1420.99 418.505C1421.75 428.931 1423.42 439.515 1420.63 449.706C1418.53 457.416 1414.8 463.377 1412.75 471.226C1420.05 474.603 1431.51 447.474 1437.48 447.978C1447.95 448.862 1451.12 483.334 1452.94 493.907C1454.14 500.864 1453.88 514.903 1453.81 523.142C1459.84 514.329 1466.9 507.268 1473.17 498.487C1476.07 494.424 1478.76 487.478 1481.27 485.247C1481.87 499.755 1476.08 514.637 1470.16 527.12C1463.72 540.685 1455.34 557.948 1446.32 569.512C1424.69 597.235 1394.03 625.847 1378.76 659.242C1368.33 684.018 1368.92 712.381 1371.01 739.184C1371.49 745.269 1375.22 753.065 1372.98 758.455C1370.06 760.1 1371.52 759.97 1368.48 758.998C1359.53 749.233 1359.21 720.044 1358.66 707.026C1356.23 648.911 1389.54 615.323 1421.43 576.901L1421.24 575.563C1415.64 575.708 1398.2 590.168 1387.71 582.598L1388.27 583.119L1389.7 580.803L1385.07 578.089C1400.5 571.881 1399.94 573.89 1414.59 561.113C1426.07 551.101 1438.22 538.044 1440.54 520.08C1441.82 510.154 1442.13 481.475 1437.31 472.229C1432.91 471.561 1425.7 481.91 1421.17 484.355C1405.86 492.635 1383.2 503.33 1366.5 500.967C1370.06 499.611 1369.39 500.77 1370.87 498.17C1368.87 497.654 1367.33 497.386 1365.31 497.02C1376.74 493.873 1391.34 470.132 1397.41 458.787C1404.62 444.55 1414.63 420.285 1408.42 403.818C1405.76 396.761 1404.08 386.646 1397.8 383.052C1395.27 387.118 1391.93 401.369 1389.39 407.643C1384.56 419.612 1368.95 443.608 1358.5 447.952L1358.03 446.614L1360.36 442.777L1358.12 443.512L1357.97 442.208C1376.55 415.608 1393.24 367.609 1387.69 332.942C1383.63 307.537 1366.14 275.47 1349.6 258.756C1343.46 280.34 1330.16 309.624 1310.6 318.216C1303.96 321.136 1296.7 366.98 1286.74 361.921C1295.06 335.957 1304.66 297.453 1303.1 269.521C1301.27 236.895 1280.69 215.905 1260.95 196.03C1261.97 234.022 1241.09 270.805 1212.99 288.613C1223.93 359.492 1265.99 427.61 1299.88 486.512C1319.75 521.046 1339.82 551.407 1350.63 592.445C1352.18 598.319 1354.76 606.26 1352.34 611.79C1349.71 612.984 1351.03 613.044 1348.32 611.974C1337.83 590.539 1332.51 566.036 1320.26 544.251C1278.33 469.715 1227.15 397.633 1206.27 310.334C1202.13 293.018 1197.51 273.338 1199.2 255.353C1202.8 217.197 1216 181.256 1241.54 156.254Z"/><path fill="#FDFDFD" transform="scale(0.412903 0.412903)" d="M1131.19 670.226C1163.49 668.04 1198.35 674.533 1221.88 703.049C1231.19 714.337 1233.78 757.485 1226.93 770.891C1225.73 773.244 1207.04 802.307 1205.96 803.26L1205.15 802.672L1207.02 802.37L1205.43 799.689L1205.12 800.892C1205.08 797.614 1206.2 796.117 1207.62 793.201L1208.23 791.957C1207.24 752.279 1220.85 751.282 1192.61 714.025C1154.8 664.14 1101.03 688.454 1065.23 726.261C1089.61 726.376 1115.08 738.645 1129.24 762.586C1140.4 782.38 1149.26 802.933 1148.38 827.259C1156.74 830.142 1182.21 795.913 1190.49 805.153C1195.56 832.924 1118.02 857.371 1099.59 858.843C1059.64 862.034 1026.54 858.459 1021.22 803.668C1014.57 735.148 1078.04 677.409 1131.19 670.226ZM1061.88 746.995C1056.4 750.872 1042.91 760.204 1049.2 769.741C1052.99 775.481 1063.58 775.56 1069.54 776.439C1095.48 763.472 1087.1 746.995 1061.88 746.995ZM1118.28 798.706C1123.08 801.336 1127.78 804.629 1132.91 804.768L1134.75 803.341C1134 795.642 1119.18 787.456 1114.91 787.925C1110.87 795.993 1103.05 793.756 1097.43 797.414L1108.15 796.938C1108.64 798.45 1108.52 797.641 1108.45 799.378C1111.93 798.908 1112.33 798.943 1115.76 797.576L1118.28 798.706ZM1100.82 846.66C1106.28 845.027 1112.25 843.077 1117.72 841.735L1129.42 837.705C1124.88 834.893 1114.62 828.13 1110.33 826.163C1107.36 834.126 1104.65 839.223 1100.82 846.66ZM1136.8 828.017C1136.46 824.814 1136.75 821.142 1134.25 819.948C1129.22 817.554 1116.95 810.956 1112.12 811.22C1113.08 814.671 1112.55 815.34 1115.73 816.646C1121.9 819.183 1130.94 826.041 1136.8 828.017ZM1049.2 840.798C1046.13 835.816 1038.19 819.71 1035.78 818.212C1037.02 826.96 1040.63 838.896 1049.2 840.798Z"/><path transform="scale(0.412903 0.412903)" d="M1035.78 818.212C1038.19 819.71 1046.13 835.816 1049.2 840.798C1040.63 838.896 1037.02 826.96 1035.78 818.212Z"/><path fill="#FDFDFD" transform="scale(0.412903 0.412903)" d="M782.111 731.977C789.534 729.359 811.297 736.159 819.364 741.136C841.995 755.101 859.446 785.836 867.918 813.307C870.29 820.998 871.601 838.817 874.329 847.302C874.568 848.078 874.807 848.853 875.046 849.629C881.512 849.703 908.048 845.975 912.491 845.138C941.678 839.638 974.209 846.371 1000.55 861.28C1008.16 865.589 1028.5 880.406 1031.15 889.843L1030.48 890.998C1014.9 879.767 974.357 864.41 956.931 862.341C927.712 854.788 869.765 865.557 840.956 877.374C824.898 883.961 807.232 894.112 790.51 899.877L788.774 900.464L797.405 886.52C800.54 885.041 799.836 885.934 801.925 883.338C766.743 871.293 758.325 854.86 738.419 820.144C729.399 804.414 720.632 791.664 717.841 772.408C713.781 744.401 765.73 732.853 782.111 731.977ZM760.005 812.921C768.447 778.871 780.166 762.804 809.636 752.783C797.373 749.198 793.269 747.863 780.92 748.722L779.011 748.834C732.619 765.856 735.939 787.64 759.964 828.97L760.005 812.921ZM816.26 801.257C823.781 797.418 832.164 789.699 828.659 778.809C824.974 774.599 821.24 774.177 816.173 775.462C793.086 777.491 796.951 797.263 816.26 801.257ZM779.259 847.763C783.041 852.213 784.596 853.909 789.096 857.533L789.208 858.554C793.407 860.15 795.13 861.954 797.987 860.286C798.412 855.956 793.153 841.879 791.551 835.242C787.967 840.59 783.887 843.737 779.259 847.763ZM852.907 822.835L854.326 824.172C856.122 822.636 857.933 821.122 859.758 819.632C860.659 812.564 858.103 807.583 853.073 803.211C854.686 813.742 852.45 814.468 843.774 819.067L844.033 819.001L845.305 821.328C848.032 821.946 850.129 822.456 852.907 822.835Z"/><path fill="#FDFDFD" transform="scale(0.412903 0.412903)" d="M1143.42 886.885C1150.02 888.411 1152.55 890.635 1155.59 897.762C1160.77 909.901 1170.56 927.851 1166.17 941.336L1164.9 941.89C1162.99 938.893 1161.75 936.114 1158.88 934.798C1150.18 939.607 1149.84 957.927 1147.03 967.47C1141.68 985.626 1134.8 1013.93 1126.34 1030.03C1114.68 1047.87 1105.82 1069.61 1094.58 1087.4C1079.84 1110.75 1072.48 1126.34 1052.37 1102.24C993.145 1117.77 931.892 1113.79 871.506 1114C856.05 1136.35 823.75 1098.66 813.777 1085.41C813.012 1084.4 807.762 1082.77 806.107 1081.86C781.617 1068.44 765.883 1055.72 755.067 1025.97C744.851 985.069 745.323 983.385 761.309 946.071C763.662 952.564 760.213 966.658 759.097 974.967C751.917 1028.46 787.549 1070.7 831.459 1076.4C847.403 1078.47 872.975 1073.78 889.016 1071.05C898.475 1069.43 909.485 1063.72 919.509 1063.45C938.685 1062.02 958.46 1063.94 977.606 1063.16C1000.26 1063.51 1023.88 1057.1 1045.69 1054.36C1098.88 1047.68 1125.91 1015.58 1137.47 955.009C1139.07 946.635 1138.52 936.136 1139.81 927.436C1140.96 919.639 1143.04 912.271 1143.55 904.155C1139.69 899.375 1138.51 898.578 1138.03 892.401C1139.66 888.88 1140.09 889.403 1143.42 886.885ZM860.7 1109C863.534 1100.95 864.819 1095.18 870.209 1089.2C876.955 1086.84 883.912 1084 889.27 1091.46C889.56 1100 882.068 1100.32 876.176 1101.96C902.088 1101.91 1030.25 1102.23 1044.09 1088.7C1042.41 1083.36 1040.78 1080.82 1041.47 1075.75L1043.2 1074.41C1056.16 1079.55 1060.54 1103.05 1070.78 1098.69C1077.25 1095.94 1093.86 1062.69 1095.89 1055.16L1095.29 1053.47L1094.35 1053.27C1066.95 1070.58 1007.67 1074.17 975.5 1076.6C955.998 1078.07 932.998 1075.28 913.17 1077.18C890.405 1080.21 858.649 1092.37 834.125 1086.89L831.938 1088.02C831.788 1095.17 855.12 1106.4 860.7 1109Z"/><path fill="#FDFDFD" transform="scale(0.412903 0.412903)" d="M854.246 901.543C863.995 899.481 926.408 903.462 936.259 910.554C942.204 913.405 949.271 919.667 951.107 927.634C962.044 975.098 891.825 1011.7 863.371 1022.96C837.409 1023.62 817.735 1011.08 796.446 994.25C787.95 986.54 765.5 965.236 765.624 951.897C766.024 908.857 830.509 904.049 854.246 901.543ZM867.847 944.942C879.514 943.976 931.666 935.061 937.054 925.802C931.427 913.557 860.62 914.584 846.434 914.863C821.444 918.327 796.366 921.1 777.812 943.779L777.811 945.278C791.351 954.12 851.743 946.918 867.847 944.942Z"/><path fill="#FDFDFD" transform="scale(0.412903 0.412903)" d="M1109.43 637.213C1120.53 635.399 1141.05 636.615 1144.23 652.75L1141.93 655.379C1138.36 656.174 1131.36 651.075 1121.65 651.232C1093.71 651.684 1071.79 681.347 1053.7 703.211C1046.65 714.032 1041.82 716.647 1037.15 730.144L1036.35 730.124C1033.66 716.882 1045.28 698.07 1051.77 687.596C1065.15 665.984 1086.01 641.739 1109.43 637.213Z"/><path transform="scale(0.412903 0.412903)" d="M1746.94 1327.8L1747.76 1328.2C1744.21 1348.07 1748.51 1343.91 1747.9 1357.26L1746.74 1357.21C1742.15 1352.05 1742.02 1334.26 1746.94 1327.8Z"/><path fill="#FDFDFD" transform="scale(0.412903 0.412903)" d="M998.496 2245.27C1009.55 2243.6 1007.75 2251.87 1010.76 2258.64C1013.31 2264.37 1028.74 2259.63 1031.81 2270.57C1029.16 2275.78 1020.26 2278.27 1015.04 2280.33C1016.64 2284.77 1017.05 2284.97 1017.38 2290.03C1015.77 2294.46 1017.03 2292.78 1013.44 2295.21C1008.53 2295.09 1001.8 2290.26 998.082 2286.63L997.628 2285.95C988.933 2282.61 980.768 2295.93 972.582 2288.76C970.591 2280.91 976.709 2281.03 978.677 2273.77L977.402 2272.72C973.448 2269.43 969.124 2266.4 968.284 2260.57C972.614 2254.61 983.154 2260.11 988.278 2256.87C991.909 2251.39 993.224 2248.79 998.496 2245.27Z"/><path fill="#FDFDFD" transform="scale(0.412903 0.412903)" d="M1440.66 2227.42C1432.01 2208.68 1443.93 2203.37 1456.84 2197.35C1465.22 2193.44 1474.66 2202.74 1477.64 2211.33C1479.49 2216.67 1476.8 2220.35 1474.6 2224.94C1478.11 2226.45 1482.07 2226.97 1485.8 2227.67C1487.15 2230.94 1486.62 2231.89 1486.07 2235.54C1478.46 2244.5 1466.31 2233.48 1460.54 2236.68C1461.82 2240.35 1463.48 2242.19 1465.67 2245.19C1463.73 2248.84 1456.79 2253.38 1453.29 2255.08C1451.32 2253.2 1451.73 2253.05 1451.11 2250.45C1449.26 2242.83 1444.27 2234.15 1440.66 2227.42ZM1456.99 2225.03C1461.63 2220.63 1460.95 2222.46 1462.98 2216.65C1462.32 2212.55 1463.08 2214.41 1460.02 2211.25L1456.47 2210.42C1452.01 2214.6 1449.63 2218.2 1453.92 2224.63C1454.92 2224.82 1456.09 2225.19 1456.99 2225.03Z"/><path fill="#FDFDFD" transform="scale(0.412903 0.412903)" d="M1078.28 2258.21C1089.77 2258.17 1089.92 2269 1096.23 2277.95C1097.81 2274.94 1097.27 2269.46 1097.23 2265.61C1102.25 2267.07 1104.67 2267.51 1109.33 2270.4C1113.88 2281.69 1107.22 2293.9 1099.98 2301.71C1097.07 2304.85 1092.57 2303.72 1088.91 2303.12C1081.51 2292.27 1083.02 2283.19 1079.21 2279.32L1078.13 2280.88C1077.22 2286.33 1079.74 2291.39 1080.69 2298.24L1079.6 2299.84C1075.92 2300.02 1072.92 2300.23 1069.26 2300.68C1061.12 2296.56 1063.82 2285.64 1065.64 2277.25C1067.94 2266.62 1070.2 2263.46 1078.28 2258.21Z"/><path fill="#FDFDFD" transform="scale(0.412903 0.412903)" d="M1391.88 2252.42C1388.26 2251.72 1386.43 2251.8 1383.61 2249.07L1383.81 2246.62C1387.89 2241.49 1396.51 2238.73 1397.66 2236.3C1399.84 2231.75 1397.98 2221.29 1403.63 2216.26C1414.06 2214.98 1413.93 2226.54 1418.71 2227.21C1426.64 2228.31 1430.19 2223.78 1440.66 2227.42C1437.15 2235.08 1433.77 2234.88 1431.23 2240.52C1433.36 2244.37 1436.1 2248.18 1435.66 2252.35C1433.38 2254.1 1419.57 2253.57 1415.47 2253.72C1411.75 2257.59 1404.86 2265.16 1400.16 2265.82C1396.9 2260.4 1400.43 2257.73 1396.95 2252.75L1391.88 2252.42Z"/><path fill="#FDFDFD" transform="scale(0.412903 0.412903)" d="M1318.86 2240.93C1326.77 2243.68 1328 2248.59 1333.2 2257.11L1344.01 2256.39C1349.33 2256.06 1350.69 2255.78 1354.38 2259.64C1353.42 2264.4 1348.07 2266.58 1344.31 2270.65L1345.05 2271.28C1347.89 2273.72 1349.27 2273.89 1349.66 2276.88C1344.15 2282.33 1335.31 2280.55 1328.88 2278.84C1325.05 2282.31 1312.19 2291.04 1307.47 2289.66L1306.93 2287.53C1307.56 2282.02 1311.38 2281.6 1311.42 2278.03C1306.12 2277.76 1299.78 2278.51 1296.21 2273.41C1298.32 2266.33 1310.79 2267.12 1311.66 2263.88C1313.97 2255.27 1314.14 2249.83 1318.86 2240.93Z"/><path fill="#FDFDFD" transform="scale(0.412903 0.412903)" d="M889.653 2231C901.494 2231.65 902.615 2231.23 912.394 2238.69C895.768 2249.31 898.219 2238.2 885.176 2243.36L885.431 2244.21L898.852 2247.95L899.526 2249.46C897.478 2252.43 896.022 2257.92 894.814 2258.08C891.417 2258.53 884.109 2256.6 881.525 2258.8C884.75 2261.81 884.611 2260.87 889.5 2261.55C890.856 2261.98 892.989 2262.72 894.15 2263.57C896.522 2265.3 898.185 2268.09 898.75 2271.28C897.924 2273.17 897.864 2274.54 896.23 2274.99C885.832 2277.85 854.431 2261.08 861.263 2246.38C868.969 2244.59 865.389 2234.59 889.653 2231Z"/><path fill="#FDFDFD" transform="scale(0.412903 0.412903)" d="M1218.63 2261.21C1223.67 2260.37 1237.58 2261.51 1237.72 2268.7C1235.37 2273.13 1235.04 2274.36 1231.54 2277.32C1229.48 2277.11 1227.5 2276.7 1225.48 2276.2C1220.9 2277.66 1218.95 2277.61 1216.31 2281.76L1216.54 2283.12C1221.76 2281.61 1225.11 2280.73 1230.24 2282.17C1232.91 2285.32 1232.08 2284.14 1232.82 2289.33C1228.75 2292.64 1224.72 2289.76 1219.23 2292.67L1220.19 2293.92C1225.35 2294.88 1226.7 2294.96 1231.92 2294.66C1232.97 2293.99 1232.28 2294.28 1234.11 2294.41C1236.01 2297.31 1236.87 2297.88 1236.85 2301.44C1230.19 2312.58 1189.84 2304.6 1199.23 2281.86C1203.81 2270.79 1209.22 2265.57 1218.63 2261.21Z"/><path fill="#FDFDFD" transform="scale(0.412903 0.412903)" d="M810.496 2214.06C815.531 2212.46 820.963 2211.55 824.251 2216.69L823.735 2219.56C817.881 2226.44 808.245 2223.68 798.401 2223.94C801.297 2226.38 808.39 2230.76 810.528 2233.34C826.762 2252.98 802.78 2253.86 791.422 2253.7C786.339 2251.05 782.918 2255.1 776.951 2248.12C776.236 2244 776.29 2246.15 777.843 2241.45C783.693 2240.04 791.281 2244.81 796.823 2242.35C793.123 2238.12 784.62 2237.2 783.71 2229.54C782.073 2215.79 803.356 2214.44 810.496 2214.06Z"/><path fill="#FDFDFD" transform="scale(0.412903 0.412903)" d="M1115.24 2269.6C1116.43 2270.4 1124.52 2273.45 1126.78 2274.47C1128.92 2280.31 1123.59 2285.52 1124.78 2293.59C1127.93 2298.44 1132.22 2298.45 1136.47 2295.51C1138.31 2291.43 1137.34 2285.69 1137.84 2280.69C1141.11 2277.5 1140.93 2277.63 1145.01 2276.16C1153.9 2278.14 1152.17 2285.66 1151.76 2293.94C1136.25 2329.36 1099.16 2308.79 1115.24 2269.6Z"/><path fill="#FDFDFD" transform="scale(0.412903 0.412903)" d="M1169.33 2263.41C1173.94 2262.82 1183.92 2264.27 1188.75 2265.26C1192.29 2265.99 1191.76 2266.48 1193.15 2269.48C1193.07 2277.69 1189.25 2278.34 1183.01 2280.44L1181.64 2280.89C1176.07 2290.44 1189.37 2300.16 1178.81 2308.29C1173.92 2309.87 1171.8 2311.73 1167.52 2308.39C1164.36 2300.37 1170.77 2287.12 1166.08 2280.3C1161.97 2281.12 1160.76 2281.41 1156.65 2281.32C1152.14 2277.77 1152.3 2272.89 1155.03 2267.74C1158.19 2264.93 1164.99 2264.49 1169.33 2263.41Z"/><path fill="#FDFDFD" transform="scale(0.412903 0.412903)" d="M1511.2 2182.24C1513.58 2192.77 1512.57 2192.46 1505.96 2197.68C1506.15 2211.53 1513.69 2213.33 1516.26 2224.49C1515.04 2230.34 1510 2235.14 1504.88 2235.06C1502.44 2232.76 1501.44 2226.92 1500.43 2223.08C1498.05 2217.74 1495.56 2209.24 1491.91 2206.62C1487.47 2206.87 1487.74 2207.88 1483.36 2211.34L1476.42 2199.88C1492.53 2188.17 1492.41 2188.17 1511.2 2182.24Z"/><path fill="#FDFDFD" transform="scale(0.412903 0.412903)" d="M947.164 2238.95C948.998 2239.84 958.596 2242.21 961.467 2243.12C964.659 2247.92 950.94 2263.63 951.257 2271.96L952.623 2272.97C956.654 2271.35 958.206 2269.9 961.794 2272.34C963.578 2276.34 962.882 2279.6 962.596 2284.21C958.205 2285.65 947.611 2284.84 943.077 2283.58C925.233 2278.6 943.622 2247.68 947.164 2238.95Z"/><path fill="#FDFDFD" transform="scale(0.412903 0.412903)" d="M830.219 2221C842.525 2220.52 856.804 2223.42 868.289 2228.38L865.13 2231.07C851.576 2242.72 854.905 2225.39 843.048 2250.46C843.648 2254.2 844.137 2255.64 843.331 2259.37C837.879 2264.55 833.125 2262.55 827.465 2259.3C826.013 2252.43 833.224 2243.55 835.504 2234.71L834.773 2233.33C831.178 2233.21 829.492 2233.44 826.123 2231.84C825.867 2228.16 828.339 2224.79 830.219 2221Z"/><path fill="#FDFDFD" transform="scale(0.412903 0.412903)" d="M919.434 2234.77C924.716 2236.73 930.055 2238.13 935.439 2239.66C932.507 2243.68 922.029 2259.82 921.16 2264.22C924.465 2266.76 926.583 2265.02 932.083 2265.83C933.488 2269.65 932.959 2274.33 932.942 2278.81C896.723 2281.75 902.592 2260.51 919.434 2234.77Z"/><path fill="#FDFDFD" transform="scale(0.412903 0.412903)" d="M1243.97 2259.25C1248.97 2259.38 1254.91 2258.72 1258.69 2262.24C1260.79 2271.57 1252.38 2275.13 1258.46 2288.56C1264.04 2289.72 1262.11 2285.72 1267.7 2286.72C1269.88 2290.49 1269.16 2289.46 1268.96 2295.06C1265.18 2297.69 1254.93 2301.19 1250.4 2299.88C1247.72 2299.08 1245.42 2297.07 1243.99 2294.3C1239.45 2285.47 1241.63 2268.87 1243.97 2259.25Z"/><path fill="#FDFDFD" transform="scale(0.412903 0.412903)" d="M1270.89 2254.74C1298.47 2258.5 1279.36 2259.79 1286.31 2283.21C1290.44 2285.6 1289.16 2280.63 1296.21 2282.37C1298.45 2286.25 1297.69 2285.81 1297.87 2291.35C1292.52 2291.99 1287.39 2294.37 1282.03 2294.68C1265.02 2295.66 1268.45 2268.06 1270.89 2254.74Z"/></svg>